<svg xmlns="http://www.w3.org/2000/svg" xmlns:xlink="http://www.w3.org/1999/xlink" width="232.44" height="199.86" viewBox="0 0 232.44 199.86">
  <defs>
    <linearGradient id="linear-gradient" x1="0.028" y1="0.422" x2="0.5" y2="1" gradientUnits="objectBoundingBox">
      <stop offset="0" stop-color="#06bfb6"/>
      <stop offset="1" stop-color="#5b5388"/>
    </linearGradient>
    <linearGradient id="linear-gradient-2" x1="0.5" y1="0" xlink:href="#linear-gradient"/>
    <linearGradient id="linear-gradient-3" x1="0.939" y1="0.191" x2="0.085" y2="0.773" xlink:href="#linear-gradient"/>
  </defs>
  <g id="g10" transform="translate(0 -54.095)">
    <path id="path14" d="M232.44-338.495H0V-505.8H34.522v16.44h6.989v-43.55H64.32v47.966H82.268v-50.714l37.27,17.789v55.125H151.6v-20H163.71v10.459h8.545v-31.082h18.107V-477.3H232.44" transform="translate(0 589.756)" fill="#d8d8d8" opacity="0.198"/>
    <path id="path28" d="M547.213-71.311l0-.006c.182-.341.358-.693.54-1.049q.742-1.472,1.491-3.036c.106-.219.206-.435.309-.66.1-.193.189-.4.284-.6.022-.057.053-.11.078-.175" transform="translate(-321.252 320.39)" fill="#27425a"/>
    <path id="path42" d="M88.361-98.32c-8.127-.863-18.28.42-23.523-7.363a.391.391,0,0,0-.705.264.167.167,0,0,0-.11.152l0,.023a13.247,13.247,0,0,0,1.08,3.6l.007.02c2.375,5.217,7.8,8.829,13.178,10.476a44.248,44.248,0,0,0,12.58,1.627c2.381.014,4.765-.1,7.147-.088,2.246.009,4.435.39,6.648.563.093.01.193.023.289.026.263.315.519.626.769.951a.237.237,0,0,0,.39-.269c-.039-.058-.084-.12-.126-.171l0-.009c-.115-.158-.224-.313-.341-.464.1,0,.189.013.278.014a.254.254,0,0,0,.145-.479,11.02,11.02,0,0,0-1.124-.439c-.19-.225-.34-.432-.536-.642l-.037-.025a24.4,24.4,0,0,0-16-7.769" transform="translate(-37.585 337.427)" fill="#3899a9"/>
    <path id="path44" d="M89.421-189.124v.017l0,.01,0,.009,0,.01,0,.01c.09.747.179,1.495.279,2.239a16.243,16.243,0,0,0-.565-1.719.355.355,0,0,0,.074-.161c.042-.2.085-.4.134-.6a1.213,1.213,0,0,1,.034-.163,1.6,1.6,0,0,1,.029.346Zm5.138-49.524c-2.155,8.617-4.319,17.272-5.288,26.121a105.129,105.129,0,0,0-.114,20.684c-.1.377-.188.751-.273,1.134-.029.117-.061.241-.083.36-.058.217-.1.434-.151.654-.137-.289-.285-.568-.434-.848a.5.5,0,0,0,.3-.279.319.319,0,0,0-.147-.408c-.068-.047-.145-.091-.213-.138l-.007,0c-.233-.148-.457-.281-.7-.415a17.79,17.79,0,0,0-1.44-1.85,9.831,9.831,0,0,0-.743-.795l-.051-.047c-3.612-3.678-8.657-6.083-13.419-8.093-9.628-4.041-19.132-8.781-26.129-16.763a.573.573,0,0,0-.854-.032l0,.007a.361.361,0,0,0-.1.175.61.61,0,0,0-.025.216,25.756,25.756,0,0,0,11.82,19.806,35.913,35.913,0,0,0,13.51,4.576c5.681.885,11.737.658,16.893,3.463.311.174.611.352.916.54l.077.026c.238.385.461.787.674,1.193l-.119.53a.376.376,0,0,0,.563.386,17.529,17.529,0,0,1,.7,1.831l.048-.019-.012-.046a.073.073,0,0,0,.1-.066c-.006-.344-.008-.678,0-1.015v-.017l-.011-.029c-.009-.89-.031-1.785-.057-2.674,0-.228,0-.456-.012-.688.256-1.062.539-2.11.831-3.163l0-.007c1.776-6.378,4.071-12.609,5.113-19.16a38.634,38.634,0,0,0,.143-11.419,68.393,68.393,0,0,1-.641-10.753l0-.01c.012-.937.047-1.887.1-2.845a.392.392,0,0,0-.23-.405l-.007,0a.381.381,0,0,0-.535.284" transform="translate(-26.235 415.575)" fill="#3899a9"/>
    <path id="path46" d="M56.848-281.513c0,.169-.008.338-.008.5-.1,4.988-.082,9.6,1.476,14.448a35.093,35.093,0,0,0,7.491,12.959c3.742,4.07,8.523,7.038,12.748,10.564a48.687,48.687,0,0,1,7.153,7.282l.006,0a42.431,42.431,0,0,1,2.465,3.487c-.825-2.415-1.651-4.846-2.485-7.257l-.007-.02a121.9,121.9,0,0,0-8.448-19.666A70.8,70.8,0,0,0,58.167-280.7l-.007,0c-.453-.361-.912-.708-1.381-1.052a.388.388,0,0,1,.068.242" transform="translate(-33.334 440.695)" fill="#3899a9"/>
    <path id="path48" d="M132.014-272.538a97.589,97.589,0,0,0-.446,44.752l-.021.064,0,.006c-.269.7-.531,1.4-.8,2.1a.563.563,0,0,0-.036.2.532.532,0,0,0,.183.4l.006,0a.493.493,0,0,0,.814-.165c.157-.4.308-.8.459-1.2,2.512-6.62,4.728-13.374,4.322-20.56-.455-8.183-2.077-16.427-3.454-24.511l0-.026c-.062-.345-.122-.7-.183-1.042l-.019-.066a.42.42,0,0,0-.815.042" transform="translate(-75.841 435.485)" fill="#3899a9"/>
    <path id="path50" d="M80.462-129.912c-8.655-3.289-18.546-2.455-25.691-9.164-.226-.217-.489.021-.47.265a.354.354,0,0,0,.029.151,32.768,32.768,0,0,0,2.065,3.4,27.091,27.091,0,0,0,2.213,2.861,24.305,24.305,0,0,0,13.039,7.805c7.868,1.842,16.215,1.278,23.73,4.429a7.488,7.488,0,0,1,1.341,1.5l0,.009,0,.01a4.109,4.109,0,0,1,.665,1.537c.071.325.583.29.527-.052a5.072,5.072,0,0,0-.989-2.286l.115.052.09.033a.328.328,0,0,0,.211-.018.42.42,0,0,0,.036-.755c-.4-.2-.791-.385-1.184-.556-.263-.12-.531-.226-.79-.336-1.159-.967-2.514-1.772-3.632-2.565a51.558,51.558,0,0,0-11.311-6.32" transform="translate(-31.878 356.982)" fill="#3899a9"/>
    <path id="path52" d="M172.494-196.771l-.059.095a240.118,240.118,0,0,0-7.749,27.03,118.754,118.754,0,0,0-3.09,17.784l-.008.142v.017l0,.009c-.07.9-.107,1.8-.113,2.71-.03.067-.061.134-.088.211.188.8.358,1.585.525,2.359a12.8,12.8,0,0,1,.453-1.548,1.561,1.561,0,0,1,.06-.168c.157-.432.329-.865.522-1.289l.181-.4.047-.084c1.346-2.846,3.287-5.559,4.583-8.225a43.085,43.085,0,0,0,4.057-12.079c1.191-7.465,0-15.043.672-22.533l0-.046a36.811,36.811,0,0,1,.51-3.722.31.31,0,0,0-.512-.266" transform="translate(-94.748 390.851)" fill="#3899a9"/>
    <path id="path54" d="M98.038-218.776l.017.015a142.316,142.316,0,0,1,9.405,15.888l.006,0q1.309,2.583,2.485,5.137c.064.127.122.266.183.4l.007,0c1.756,3.83,3.291,7.592,4.63,11.216l.091.246c.17.466.335.923.5,1.38.133.387.269.765.4,1.134,1.454,4.172,2.656,8.148,3.64,11.837.037.131.072.268.1.4q.04.152.08.3c.119.452.235.895.339,1.324l0,.009,0,.01c.347,1.361.666,2.675.953,3.935.181.8.355,1.575.515,2.346s.323,1.52.466,2.26c.084.419.169.84.243,1.248.017.089.036.171.052.26.371,1.95.686,3.809.959,5.571h1.756q-.339-2.217-.776-4.638l-.007,0c-.072-.431-.157-.868-.24-1.311q-.348-1.828-.754-3.747c-.056-.269-.115-.532-.178-.8-.045-.241-.1-.486-.156-.729-.019-.065-.028-.134-.05-.21l0-.007c-.044-.206-.088-.414-.138-.623-.2-.889-.419-1.791-.644-2.722l-.007,0,0-.009v-.017c-.019-.066-.035-.138-.051-.21-.848-3.433-1.887-7.163-3.161-11.106v-.017l-.011-.029c-.134-.419-.268-.837-.416-1.262l0-.01,0-.01,0-.009,0-.01v-.017c-.022-.058-.041-.124-.063-.183-.153-.468-.308-.929-.474-1.4a159.919,159.919,0,0,0-6.322-15.756c-.111-.254-.226-.5-.348-.752l0-.007c-.053-.1-.1-.2-.146-.3s-.093-.189-.133-.28l0-.006c-1.044-2.182-2.153-4.385-3.347-6.595l-.007-.02A140.378,140.378,0,0,0,95.4-225.4a.871.871,0,0,0-1.223-.16.867.867,0,0,0-.156,1.216q2.112,2.758,4.023,5.564" transform="translate(-55.088 407.808)" fill="#27425a"/>
    <path id="path56" d="M134.22-232.641a108.862,108.862,0,0,1-1.672,28.87.816.816,0,0,0,1.6.312,110.564,110.564,0,0,0,1.7-29.291.816.816,0,0,0-1.628.11" transform="translate(-77.805 412.356)" fill="#27425a"/>
    <path id="path58" d="M154.006-186.9q-2.175,14.242-4.35,28.484c-.159,1.037,1.443,1.352,1.6.313q2.175-14.243,4.35-28.484c.159-1.037-1.442-1.352-1.6-.313" transform="translate(-87.852 385.385)" fill="#27425a"/>
    <path id="path60" d="M168.714-154.113a251.924,251.924,0,0,0-8.2,31.179.816.816,0,0,0,1.6.312,251.852,251.852,0,0,1,8.2-31.179c.331-.995-1.274-1.295-1.6-.312" transform="translate(-94.222 366.114)" fill="#27425a"/>
    <path id="path62" d="M102.533-147.281c-4.008-4.367-9.579-6.433-15.1-8.168-6.652-2.09-12.835-4.243-18.015-9.11-.765-.719-1.823.524-1.058,1.242,4.613,4.334,10.082,6.751,16.055,8.629,6.149,1.932,12.56,3.742,17.063,8.65.708.771,1.761-.477,1.058-1.242" transform="translate(-39.975 372.02)" fill="#27425a"/>
    <path id="path64" d="M110.795-109.526a60.451,60.451,0,0,0-15.4-6.621c-5.991-1.831-12.021-3.537-18.033-5.3-1.009-.3-1.312,1.309-.312,1.6,5.785,1.695,11.582,3.352,17.353,5.092,5.472,1.65,10.858,3.575,15.683,6.695.881.569,1.58-.906.709-1.469" transform="translate(-44.873 346.603)" fill="#27425a"/>
    <path id="path66" d="M114.325-79.946c-5.359-2.993-11.1-4.051-17.139-4.678s-12.214-1.23-17.447-4.6c-.881-.568-1.58.907-.708,1.47C83.937-84.6,89.71-83.767,95.4-83.174c6.406.668,12.5,1.508,18.214,4.7.918.513,1.622-.959.708-1.469" transform="translate(-46.162 327.742)" fill="#27425a"/>
    <path id="path68" d="M264.369-119.269c1.669,1.7,3.432,3.308,5.1,5.007,1.577,1.6,2.851,3.42,4.288,5.11l.013.015h.971c-.063-.138-.124-.276-.193-.411.025-.293.067-.545.078-.833l-.009-.044a24.4,24.4,0,0,0-5.774-16.826c-5.119-6.372-13.187-12.667-11.364-21.873a.391.391,0,0,0-.684-.314.169.169,0,0,0-.186.03l-.018.015a13.208,13.208,0,0,0-1.794,3.306l-.009.019c-2.025,5.363-.759,11.759,1.863,16.732a44.25,44.25,0,0,0,7.716,10.067" transform="translate(-148.993 363.092)" fill="#3899a9"/>
    <path id="path70" d="M309.423-171.111l-.012.013,0,.009,0,.01,0,.009,0,.01c-.467.591-.934,1.182-1.391,1.777a16.169,16.169,0,0,0,.821-1.613.355.355,0,0,0,.166-.062c.172-.111.344-.222.518-.326l.139-.091a1.6,1.6,0,0,1-.225.264Zm38.742-31.275c-7.631,4.548-15.293,9.116-22.252,14.668a105.066,105.066,0,0,0-14.748,14.5c-.338.2-.665.4-1,.606-.1.063-.213.126-.314.2-.195.112-.378.235-.57.354.11-.3.2-.6.3-.905a.5.5,0,0,0,.407.014.319.319,0,0,0,.186-.393c-.014-.081-.038-.167-.052-.248l0-.007c-.061-.27-.123-.522-.2-.786a17.766,17.766,0,0,0,.3-2.326,9.936,9.936,0,0,0,.039-1.086l0-.07c.061-5.155-1.79-10.428-3.723-15.222-3.923-9.677-7.263-19.759-6.535-30.348a.574.574,0,0,0-.58-.629l-.007,0a.361.361,0,0,0-.193.056.629.629,0,0,0-.171.134,25.755,25.755,0,0,0-5.712,22.346,35.907,35.907,0,0,0,6.28,12.807c3.378,4.652,7.81,8.788,9.455,14.421.1.343.181.682.263,1.03l.035.074c-.1.441-.232.882-.37,1.32l-.46.289a.376.376,0,0,0,.123.672,17.377,17.377,0,0,1-.8,1.788l.048.022.024-.041.12.026c.24-.246.475-.484.72-.716l.011-.012.013-.029c.625-.633,1.244-1.281,1.856-1.926.161-.162.322-.324.48-.493.933-.567,1.876-1.105,2.829-1.64l.007,0c5.775-3.237,11.811-6,17.191-9.883a38.65,38.65,0,0,0,8.2-7.951,68.333,68.333,0,0,1,7.173-8.037l0-.01q1.01-.977,2.089-1.933a.392.392,0,0,0,.126-.449l0-.007a.381.381,0,0,0-.579-.18" transform="translate(-171.846 406.828)" fill="#3899a9"/>
    <path id="path72" d="M361.755-279.124c-.122.117-.244.233-.36.347-3.611,3.443-6.862,6.706-9.2,11.233a35.1,35.1,0,0,0-3.908,14.449c-.248,5.524,1.018,11.006,1.5,16.489a48.689,48.689,0,0,1-.12,10.206l0,.007a42.52,42.52,0,0,1-.735,4.207c1.13-2.288,2.273-4.587,3.394-6.879l.008-.019a121.931,121.931,0,0,0,7.99-19.856,70.814,70.814,0,0,0,1.792-28.674l0-.007c-.063-.575-.141-1.146-.228-1.721a.383.383,0,0,1-.124.219" transform="translate(-204.448 439.279)" fill="#3899a9"/>
    <path id="path74" d="M381.208-216.394a97.579,97.579,0,0,0-32.05,31.237l-.06.03-.007,0c-.684.3-1.366.608-2.058.912a.563.563,0,0,0-.169.118.532.532,0,0,0-.155.412l0,.007a.493.493,0,0,0,.691.461c.394-.17.786-.347,1.177-.523,6.465-2.886,12.817-6.077,17.627-11.432,5.482-6.093,10.185-13.055,14.947-19.732l.016-.021c.2-.287.409-.577.609-.865l.033-.059a.42.42,0,0,0-.605-.548" transform="translate(-203.544 402.364)" fill="#3899a9"/>
    <path id="path76" d="M287.687-155.306c-3.77-8.456-11.336-14.882-11.615-24.68-.006-.313-.36-.331-.519-.146a.365.365,0,0,0-.087.127,32.839,32.839,0,0,0-.957,3.863,27.123,27.123,0,0,0-.469,3.587,24.308,24.308,0,0,0,3.658,14.749c4.242,6.878,10.527,12.4,13.591,19.951a7.481,7.481,0,0,1-.116,2.006l0,.01,0,.009a4.125,4.125,0,0,1-.622,1.556c-.18.279.205.617.409.337a5.073,5.073,0,0,0,.924-2.313l.044.118.041.088a.329.329,0,0,0,.161.137.421.421,0,0,0,.561-.508c-.14-.421-.285-.833-.441-1.232-.1-.27-.214-.536-.318-.8-.132-1.5-.516-3.033-.741-4.384a51.585,51.585,0,0,0-3.494-12.477" transform="translate(-160.846 381.105)" fill="#3899a9"/>
    <path id="path78" d="M352.252-126.091l-.109.025A240.042,240.042,0,0,0,327.511-112.5a118.653,118.653,0,0,0-14.789,10.348l-.107.094-.011.013,0,.009c-.689.587-1.354,1.2-2,1.831-.069.026-.138.051-.212.086-.435.7-.871,1.371-1.3,2.036a12.777,12.777,0,0,1,1.417-.77,1.443,1.443,0,0,1,.161-.075c.417-.194.846-.377,1.282-.539l.409-.152.093-.026c2.967-1.053,6.26-1.588,9.064-2.549a43.054,43.054,0,0,0,11.426-5.64c6.134-4.418,10.666-10.608,16.453-15.41l.037-.029a36.548,36.548,0,0,1,3-2.263.31.31,0,0,0-.173-.551" transform="translate(-181.454 349.309)" fill="#3899a9"/>
    <path id="path80" d="M304.219-146.2c.5-.738,1-1.488,1.505-2.26.151-.229.3-.456.445-.693.138-.2.271-.416.407-.624.033-.059.076-.114.113-.183l.007,0c.116-.177.231-.354.345-.537.486-.772.974-1.56,1.476-2.377l0-.007,0-.009.011-.013c.034-.06.073-.121.113-.184,1.836-3.022,3.749-6.388,5.648-10.072l.011-.012.013-.029c.2-.39.4-.781.6-1.185l0-.01,0-.009,0-.01,0-.009.012-.012c.026-.057.059-.117.085-.173.224-.438.441-.873.66-1.325a159.963,159.963,0,0,0,6.716-15.592c.1-.259.2-.514.288-.777l.007,0c.031-.106.073-.208.111-.317s.068-.2.105-.291l.007,0c.81-2.28,1.591-4.619,2.316-7.024l.008-.019a140.32,140.32,0,0,0,4.794-21.751.871.871,0,0,0-.749-.98.867.867,0,0,0-.972.745q-.467,3.443-1.109,6.776v.023a142.334,142.334,0,0,1-4.634,17.871l0,.007q-.908,2.749-1.891,5.385c-.045.134-.1.274-.155.412l0,.007c-1.478,3.946-3.064,7.687-4.69,11.191l-.109.237c-.211.449-.42.888-.627,1.328-.179.366-.352.73-.52,1.084-1.933,3.973-3.9,7.629-5.828,10.927-.066.119-.139.241-.208.353l-.16.272c-.237.4-.469.8-.7,1.174l0,.01,0,.009c-.72,1.206-1.428,2.359-2.119,3.451-.438.691-.867,1.362-1.3,2.02s-.851,1.3-1.274,1.922c-.238.357-.477.713-.713,1.053-.052.074-.1.146-.148.22l-.01.015h2.094" transform="translate(-177.369 400.153)" fill="#27425a"/>
    <path id="path82" d="M370.587-187.646a108.882,108.882,0,0,1-21.652,19.169.816.816,0,0,0,.907,1.355,110.508,110.508,0,0,0,21.969-19.447.816.816,0,0,0-1.225-1.077" transform="translate(-204.643 385.61)" fill="#27425a"/>
    <path id="path84" d="M352.71-138.7l-23.266,17c-.847.619.058,1.976.907,1.356l23.266-17c.847-.619-.058-1.975-.907-1.355" transform="translate(-193.208 356.807)" fill="#27425a"/>
    <path id="path86" d="M337.133-101.212a251.8,251.8,0,0,0-27.893,16.167.816.816,0,0,0,.907,1.355,251.945,251.945,0,0,1,27.893-16.166c.939-.468.02-1.817-.907-1.356" transform="translate(-181.338 334.758)" fill="#27425a"/>
    <path id="path88" d="M316.951-151.566c.271-5.921-2.192-11.329-4.856-16.469-3.208-6.191-6.041-12.093-6.242-19.2-.03-1.049-1.657-.924-1.626.125.179,6.328,2.321,11.909,5.2,17.468,2.965,5.723,6.2,11.546,5.9,18.2-.048,1.045,1.579.913,1.626-.126" transform="translate(-178.603 385.631)" fill="#27425a"/>
    <path id="path90" d="M296.019-119.181a60.463,60.463,0,0,0-6.163-15.589c-2.926-5.539-5.968-11.018-8.957-16.523-.5-.924-1.853-.008-1.355.907,2.877,5.3,5.789,10.576,8.624,15.9,2.688,5.045,5.121,10.221,6.311,15.842.217,1.026,1.756.482,1.541-.534" transform="translate(-164.049 364.33)" fill="#27425a"/>
    <path id="path92" d="M266.429-111.475c3.853,4.779,7.394,9.471,9.246,15.353h1.7c-1.686-5.754-4.923-10.475-8.665-15.111-3.817-4.728-7.739-9.529-9.037-15.617-.219-1.026-1.757-.481-1.541.533,1.216,5.708,4.7,10.387,8.293,14.842" transform="translate(-151.533 350.077)" fill="#27425a"/>
    <path id="path94" d="M93.05-314.75h57.381c4.38,0,6.994-3.551,5.838-7.931L112.653-488.023a11.035,11.035,0,0,0-10.023-7.93H45.249c-4.38,0-6.994,3.55-5.839,7.93L83.027-322.681A11.036,11.036,0,0,0,93.05-314.75" transform="translate(-22.976 566.445)" fill="#36414a"/>
    <path id="path96" d="M96.847-321.4h55.089c4.38,0,6.994-3.551,5.839-7.931L115.912-488.023a11.035,11.035,0,0,0-10.023-7.93H50.8c-4.38,0-6.994,3.55-5.839,7.93L86.824-329.331A11.035,11.035,0,0,0,96.847-321.4" transform="translate(-26.235 566.445)" fill="#607783"/>
    <path id="path98" d="M57.874-488.38h56.864a6.309,6.309,0,0,1,5.73,4.534l43.758,165.88a3.376,3.376,0,0,1-3.338,4.534H104.025a6.309,6.309,0,0,1-5.73-4.534L54.536-483.846a3.376,3.376,0,0,1,3.338-4.534" transform="translate(-31.925 561.999)" fill="#edf0f1"/>
    <path id="path100" d="M141.882-484.651c-2.22.041-.564,4.754,1.657,4.713s.564-4.754-1.657-4.713" transform="translate(-82.678 559.81)" fill="#36414a"/>
    <path id="path108" d="M0-58.176v3.743H232.44v-3.743H0" transform="translate(0 308.387)" fill="#36414a"/>
    <path id="path152" d="M500.889-317.614h.46v-5.573h-.46Z" transform="translate(-294.059 465.019)" fill="#e0c2bc"/>
    <path id="path148" d="M501.349-317.614a54.879,54.879,0,0,1-.46-5.559c.03,1.435.2,3.35.46,5.559m-.46-5.571v0" transform="translate(-294.059 465.019)"/>
    <path id="path154" d="M546.155-334.8q.089-.418.2-.834h0q-.107.414-.2.829l0,.005" transform="translate(-320.633 472.325)" fill="#d8dae8"/>
    <path id="path156" d="M546.632-341.1c.328-1.271.764-2.531,1.149-3.793-.385,1.262-.82,2.522-1.146,3.793h0m1.152-3.8,0-.014,0,.014m.007-.023.007-.022h0l-.007.022" transform="translate(-320.913 477.793)" fill="#b59587"/>
    <path id="path208" d="M395.715-320.043l7.021.454,4.216-3.254h1.157l-2.529-2.944-3.311-.557-6.555,4.54v1.761" transform="translate(-232.314 466.872)" fill="#f79984"/>
    <path id="path210" d="M395.715-325.619l2.417-.553a6.581,6.581,0,0,0,3.966-2.7l.747-1.1,4.732-.826a.643.643,0,0,0,.533-.634.644.644,0,0,0-.661-.644l-5.782-.731a4.627,4.627,0,0,0-3.837,1.3l-2.115,2.1v3.786" transform="translate(-232.314 470.687)" fill="#fabeb3"/>
    <path id="path212" d="M310.778-80.5h-7.132l-.044-2.584h7.232l-.056,2.584" transform="translate(-178.236 324.061)" fill="#fabeb3"/>
    <path id="path214" d="M320.594-71.441l-12.186-5.387h-7.875l-1.291,6.652h22.067l-.715-1.265" transform="translate(-175.677 320.388)" fill="#00653d"/>
    <path id="path216" d="M298.952-60.72l-.2,1.05h22.863l-.593-1.05H298.952" transform="translate(-175.387 310.931)" fill="#fff"/>
    <path id="path218" d="M237.491-241.05V-269.8l3.8,1.458a4.525,4.525,0,0,1,2.615,5.816,3.931,3.931,0,0,0,1.239,4.463l28.935,22.925a5.181,5.181,0,0,1,1.955,4.359l-2.19,38.078H262.152l-1.238-32.649-23.423-15.7" transform="translate(-139.425 433.675)" fill="#252d33"/>
    <path id="path220" d="M205.339-265.4l.1,10,18.388,20.593a8.25,8.25,0,0,1,2.094,5.629,10.865,10.865,0,0,1-6.773,9.887L190.369-207.6l-3.958-12.555,24.233-9.31-13.007-5.317a26.877,26.877,0,0,1-16.7-24.877l24.407-5.737" transform="translate(-106.22 431.091)" fill="#33414b"/>
    <path id="path222" d="M252.657-182.213a30.029,30.029,0,0,1-11.828-3.435.551.551,0,0,0-.5.981,31.351,31.351,0,0,0,12.392,3.554c.7.052.636-1.048-.062-1.1" transform="translate(-140.921 384.313)" fill="#252d33"/>
    <path id="path224" d="M255.869-175.389l-2.759-1.694a.557.557,0,0,0-.759.175.561.561,0,0,0,.175.759l2.759,1.693a.558.558,0,0,0,.759-.175.56.56,0,0,0-.175-.759" transform="translate(-148.102 379.292)" fill="#252d33"/>
    <path id="path226" d="M285.865-346.833c1.473-2.519,2.958-4.9,5.488-3.361a68.7,68.7,0,0,0,12.23,5.779l-4.624,10.1c-4.639-1.231-10.034-1.939-14.25-4.5-2.519-1.527-.349-5.448,1.156-8.022" transform="translate(-166.467 481.159)" fill="url(#linear-gradient)"/>
    <path id="path228" d="M330.437-331.719l-4.933-2.293a25.919,25.919,0,0,1-4.964,9l9.4,2.935,21.64-2.47v-5.548l-21.145-1.627" transform="translate(-188.181 471.373)" fill="#fabeb3"/>
    <path id="path230" d="M333.214-323.62l22.556-2.154v-4L334.625-331.4l-4.453-2.07a15.306,15.306,0,0,1-2.5,7.838l5.54,2.014" transform="translate(-192.368 471.057)" fill="#fabeb3"/>
    <path id="path232" d="M329.121-324.206l-5.54-2.014a15.306,15.306,0,0,0,2.5-7.838l-.687-.319-.217-.093a20.17,20.17,0,0,1-4.472,9.213l9.334,2.914,21.64-2.47v-1.546l-22.556,2.154" transform="translate(-188.276 471.643)" fill="#f79984"/>
    <path id="path234" d="M324.455-335.958a32.953,32.953,0,0,1-4.6,9.454c-.408.58.52,1.174.927.595a33.961,33.961,0,0,0,4.724-9.722.551.551,0,0,0-1.052-.327" transform="translate(-187.719 472.736)" fill="#268362"/>
    <path id="path236" d="M209.152-328.973a28.123,28.123,0,0,1,1.837-6.4,73.4,73.4,0,0,1,14.1-22.921,45.657,45.657,0,0,1,6.474-5.761c-6.237-6.422-16.309-12.071-26.161-14.2a8.439,8.439,0,0,0-9.676,5.312l-7.494,9.268a49.192,49.192,0,0,0-8.246,46.983h0c12.642-8.6,26.258-9.731,29.161-8.745a11.408,11.408,0,0,1,.007-3.54" transform="translate(-104.082 497.458)" fill="url(#linear-gradient-2)"/>
    <path id="path238" d="M197.321-328.794a43.339,43.339,0,0,0-13.172,3.523c-3.785-17.031,5.439-32.434,16.144-45.165a1.873,1.873,0,0,0-2.743-2.545,8.437,8.437,0,0,0-1.825,2.905l-7.494,9.268a49.192,49.192,0,0,0-8.246,46.983h0q1.685-1.145,3.384-2.116a12.669,12.669,0,0,1,1.332-3.826c2.36-5.114,7.811-6.012,12.941-7.312a.875.875,0,0,0-.32-1.717" transform="translate(-104.082 494.592)" fill="#268362"/>
    <path id="path240" d="M234.8-259.248a23.752,23.752,0,0,0-10.054,1.7c-.656.263-.126,1.228.526.967a22.475,22.475,0,0,1,9.495-1.563.551.551,0,0,0,.034-1.1" transform="translate(-131.765 427.499)" fill="#268362"/>
    <path id="path242" d="M265.856-322.933a54.867,54.867,0,0,0-12.427,22.286,54.784,54.784,0,0,0-1.488,7.177c-.1.7,1,.743,1.1.046a53.644,53.644,0,0,1,9.076-23.108,52.666,52.666,0,0,1,4.474-5.581c.476-.518-.255-1.341-.736-.82" transform="translate(-147.904 464.967)" fill="#268362"/>
    <path id="path244" d="M191.544-283.09s3.649,1.626,6.1,2.95c.763,2.739-1.263,5.333-3.52,6.5a6.008,6.008,0,0,1-5.893-.275,6.008,6.008,0,0,1-2.7-5.247l6.013-3.93" transform="translate(-108.916 441.479)" fill="#fabeb3"/>
    <path id="path246" d="M217.066-269.016a10.525,10.525,0,0,0-5.236-7.525,1.021,1.021,0,0,0-1.036,1.757,8.6,8.6,0,0,1,4.3,6.3c.2,1.293,2.169.752,1.969-.535" transform="translate(-123.46 437.717)" fill="#fabeb3"/>
    <path id="path248" d="M211.436-265.248a10.522,10.522,0,0,0-5.235-7.524,1.02,1.02,0,0,0-1.037,1.756,8.6,8.6,0,0,1,4.3,6.3c.2,1.293,2.169.753,1.969-.534" transform="translate(-120.155 435.504)" fill="#fabeb3"/>
    <path id="path250" d="M204.295-263.254a10.524,10.524,0,0,0-5.236-7.525,1.02,1.02,0,0,0-1.036,1.756,8.6,8.6,0,0,1,4.3,6.3c.2,1.294,2.169.753,1.969-.533" transform="translate(-115.963 434.334)" fill="#fabeb3"/>
    <path id="path252" d="M196.858-263.284a10.521,10.521,0,0,0-5.235-7.525,1.02,1.02,0,0,0-1.036,1.757,8.6,8.6,0,0,1,4.3,6.3c.2,1.294,2.169.753,1.968-.534" transform="translate(-111.597 434.352)" fill="#fabeb3"/>
    <path id="path254" d="M171.351-337.76l-7.439-21.311,21.351-7.6-4.485-9.541-27.594,9.083A2.99,2.99,0,0,0,151.42-363l13.918,29.174,6.013-3.93" transform="translate(-88.723 496.149)" fill="#fabeb3"/>
    <path id="path256" d="M199.2-366.673l-4.485-9.541-7.719,2.54a24.163,24.163,0,0,0,.527,8.825,62.679,62.679,0,0,1-12.657,4.969,16.82,16.82,0,0,1,4.085,3.964l-1.1-3.157,21.351-7.6" transform="translate(-102.658 496.149)" fill="#f79984"/>
    <path id="path258" d="M160.929-356.267a62.677,62.677,0,0,0,12.657-4.969,24.163,24.163,0,0,1-.527-8.825l-19.876,6.542a2.99,2.99,0,0,0-1.763,4.127l13.918,29.174,6.013-3.93L165.014-352.3a16.821,16.821,0,0,0-4.085-3.964" transform="translate(-88.723 492.537)" fill="#fabeb3"/>
    <path id="path260" d="M192.108-362.616a84.571,84.571,0,0,1,14.81-4.177,5.758,5.758,0,0,0,4.646-6.66c-.652-3.015,1.69-4.857-1.488-5.1-8.049-.614-16.152,2.629-21.423,4.591a28.527,28.527,0,0,0,3.454,11.345" transform="translate(-110.754 497.566)" fill="url(#linear-gradient-3)"/>
    <path id="path262" d="M188.168-367.575a27.334,27.334,0,0,0,3.616,11.077c.36.612,1.286.017.928-.594a26.023,26.023,0,0,1-3.443-10.541c-.072-.7-1.172-.65-1.1.058" transform="translate(-110.466 491.405)" fill="#268362"/>
    <path id="path264" d="M272.485-421.253a5.275,5.275,0,0,0,2.973-5.272A7.484,7.484,0,0,0,272-431.759a14.732,14.732,0,0,0-6.36-2.156,15.906,15.906,0,0,0-5.724.205,3.764,3.764,0,0,0-2.4,1.412,1.478,1.478,0,0,0,.8,2.208,1.969,1.969,0,0,0-2.006.955,1.683,1.683,0,0,0,.454,2.043,2.3,2.3,0,0,0-2.244,1.2,1.983,1.983,0,0,0,.54,2.342,1.937,1.937,0,0,0-1.112,2.308,6.579,6.579,0,0,0,1.436,2.4,27.144,27.144,0,0,1,3.617,6.111,14.832,14.832,0,0,0,3.785-2" transform="translate(-149.047 530.119)" fill="#362315"/>
    <path id="path266" d="M275.532-415.519a11.556,11.556,0,0,0-3.589-.009c-1.025.121-4.162.8-4.162.8-.746,2.182-1.112,3.632-2.872,5.122a.983.983,0,0,1-.573.294,3.292,3.292,0,0,1-.9-.3c-.395-.118-.781-.262-1.165-.411-1.206-.466-2.517-1.121-3.7-.242a2.708,2.708,0,0,0-.687,3.308,3.388,3.388,0,0,0,3.022,1.737A22.418,22.418,0,0,1,260.78-397c.6,1.647,2.16,3.7,3.6,4.155a5.825,5.825,0,0,0,4.411-.239,31.619,31.619,0,0,1,.582-5.046,10.63,10.63,0,0,0,3.481.057,1.937,1.937,0,0,0,1.172-.517,2.124,2.124,0,0,0,.386-.892,46.669,46.669,0,0,0,1.117-16.036" transform="translate(-151.234 519.31)" fill="#fabeb3"/>
    <path id="path268" d="M283.038-369.584a31.628,31.628,0,0,1,.582-5.046,12.1,12.1,0,0,0,1.95.172,32.584,32.584,0,0,1-3.7-1.177c.2,2.213.849,6.219,1.169,6.051" transform="translate(-165.477 495.809)" fill="#f79984"/>
    <path id="path270" d="M262.887-399.709a2.92,2.92,0,0,0-1.28-.713c-.255-.067-.32.373-.069.445a2.554,2.554,0,0,1,1.117.671,2.8,2.8,0,0,1,.4.518c.106.173.15.319.315.423a.155.155,0,0,0,.223-.127c.053-.445-.427-.947-.709-1.217" transform="translate(-153.448 510.365)" fill="#f79984"/>
    <path id="path272" d="M285.614-403.9a1.226,1.226,0,0,0-.039-.569.38.38,0,0,0-.64-.1,1.224,1.224,0,0,0-.206.531,2.651,2.651,0,0,0-.078.508.449.449,0,0,0,.887.137,2.6,2.6,0,0,0,.076-.508" transform="translate(-167.111 512.875)" fill="#40261d"/>
    <path id="path274" d="M299.048-404.845a1.215,1.215,0,0,0-.182-.541.378.378,0,0,0-.643.066,1.222,1.222,0,0,0-.066.566,2.669,2.669,0,0,0,.053.511.449.449,0,0,0,.893-.091,2.576,2.576,0,0,0-.055-.512" transform="translate(-175.038 513.363)" fill="#40261d"/>
    <path id="path276" d="M285.332-381.526a5.256,5.256,0,0,1,2.626.97c.209.148-.042.456-.25.308a4.853,4.853,0,0,0-2.436-.885c-.254-.022-.193-.414.061-.393" transform="translate(-167.38 499.268)" fill="#f79984"/>
    <path id="path278" d="M296.706-412.809c.682-.447,1.918.232,2.263.869a.355.355,0,0,1-.383.48c-.33-.1-.616-.286-.939-.4s-.71-.112-.956-.347a.385.385,0,0,1,.015-.6" transform="translate(-174.098 517.718)" fill="#362315"/>
    <path id="path280" d="M282.445-412.179a3.988,3.988,0,0,1,3.082-.932c.459.032.4.709-.014.777a10.076,10.076,0,0,0-1.491.3,6.518,6.518,0,0,1-1.281.393.336.336,0,0,1-.3-.54" transform="translate(-165.773 517.817)" fill="#362315"/>
    <path id="path282" d="M283.774-392.33a17.21,17.21,0,0,0,5.151,1.933,4.626,4.626,0,0,0-.509.93,11.222,11.222,0,0,1-4.474-1.886,5,5,0,0,1-.167-.977" transform="translate(-166.596 505.61)" fill="#f6f6f7"/>
    <path id="path284" d="M288.653-388.078c-.15.351-.276.714-.41,1.065a4.179,4.179,0,0,1-2.947-1.05,3.883,3.883,0,0,1-1.117-1.9,11.222,11.222,0,0,0,4.474,1.886" transform="translate(-166.834 504.222)" fill="#b51d24"/>
    <path id="path286" d="M264.026-371.841a5.549,5.549,0,0,0,7.8,4.218c.583-.246.838.707.262.95a6.494,6.494,0,0,1-9.012-4.906c-.11-.62.84-.886.95-.262" transform="translate(-154.44 493.791)" fill="#268362"/>
    <path id="path288" d="M274.535-438.316c-1.338.71-2.665,1.448-3.97,2.224-.072-.065-.143-.132-.215-.2a11.2,11.2,0,0,0-9.938-2.825,11.211,11.211,0,0,0-7.906,6.646c-1.206,2.989-1.162,6.827.655,9.426-.066.055-.127.116-.193.176a.551.551,0,0,0,.754.8,96.584,96.584,0,0,1,10.312-8.473q3.559-2.544,7.334-4.746c1.217-.716,2.445-1.4,3.694-2.059a.552.552,0,0,0-.529-.969" transform="translate(-147.758 533.217)" fill="#268362"/>
    <path id="path290" d="M295.69-399.365l-1.354-4.833c-.1-.34-.634-.225-.538.117l1.279,4.564-1.2.245a.275.275,0,0,0,.117.538l1.488-.3a.278.278,0,0,0,.21-.328" transform="translate(-172.402 512.698)" fill="#40261d"/>
    <path id="path292" d="M271.182-431.891l-15.159,11.651c-.563.433.177,1.249.736.82l15.159-11.651c.563-.433-.177-1.249-.736-.82" transform="translate(-150.186 528.907)" fill="#00653d"/>
    <path id="path294" d="M373.047-300.722h43.51l-1.51,26.016h-40.49l-1.51-26.016" transform="translate(-219.006 451.83)" fill="#00653d"/>
    <path id="path296" d="M415.047-237.718l1.51,7.483h-43.51l1.51-7.483h40.49" transform="translate(-219.006 414.842)" fill="#0a3e29"/>
    <path id="path298" d="M421.7-310.511V-316.1a6.284,6.284,0,0,0-5.569-6.317,6.17,6.17,0,0,0-6.758,6.136v5.767a.5.5,0,0,1-.5.5.5.5,0,0,1-.5-.5v-5.56a7.308,7.308,0,0,1,6.809-7.369,7.178,7.178,0,0,1,7.532,7.161v5.767a.5.5,0,0,1-.5.5.5.5,0,0,1-.5-.5" transform="translate(-239.741 465.172)" fill="#252d33"/>
    <path id="path308" d="M196.218-150.381q-5.07-15.643-10.141-31.285c-.433-1.338-2.579-.832-2.14.521q5.071,15.642,10.141,31.285c.434,1.339,2.579.832,2.14-.521" transform="translate(-107.95 382.396)" fill="#51c292"/>
    <path id="path310" d="M180.48-200.67q-.709-1.966-1.417-3.931a1.2,1.2,0,0,0-.486-.673,1.124,1.124,0,0,0-.845-.137,1.112,1.112,0,0,0-.809,1.331l1.416,3.932a1.2,1.2,0,0,0,.486.673,1.123,1.123,0,0,0,.845.137,1.113,1.113,0,0,0,.81-1.331" transform="translate(-103.838 395.894)" fill="#51c292"/>
    <path id="path312" d="M152.274-292.72q-1.984-6.6-3.967-13.2c-.406-1.351-2.55-.842-2.141.521q1.984,6.6,3.967,13.2c.406,1.351,2.55.842,2.141-.521" transform="translate(-85.78 455.348)" fill="#51c292"/>
    <path id="path314" d="M422.274-323.652h0a.8.8,0,0,0,.079-1.125L419.9-327.6a.8.8,0,0,0-1.125-.079.8.8,0,0,0-.079,1.125l2.453,2.822a.8.8,0,0,0,1.125.079" transform="translate(-245.69 467.77)" fill="#fabeb3"/>
    <path id="path316" d="M417.372-321.144h0a.8.8,0,0,0,.079-1.125L415-325.091a.8.8,0,0,0-1.125-.079.8.8,0,0,0-.079,1.125l2.453,2.822a.8.8,0,0,0,1.125.079" transform="translate(-242.813 466.298)" fill="#fabeb3"/>
    <path id="path318" d="M413.25-318.3h0a.8.8,0,0,0,.078-1.125l-2.452-2.823a.8.8,0,0,0-1.125-.079.8.8,0,0,0-.079,1.125l2.452,2.823a.8.8,0,0,0,1.125.079" transform="translate(-240.393 464.63)" fill="#fabeb3"/>
    <path id="path320" d="M410.528-315.276h0a.8.8,0,0,0,.079-1.125l-2.136-2.458a.8.8,0,0,0-1.125-.079.8.8,0,0,0-.079,1.125l2.136,2.457a.8.8,0,0,0,1.125.079" transform="translate(-238.981 462.638)" fill="#fabeb3"/>
    <path id="Path_19415" data-name="Path 19415" d="M111.432,272.752c-.044.09-.076.15-.1.213q-.651,1.452-1.3,2.9a1.823,1.823,0,0,1-.114.22.6.6,0,0,1-.77.292,2.215,2.215,0,0,1-1.5-1.4,4.481,4.481,0,0,1-.205-.94,5.914,5.914,0,0,1-.052-1.119,5.636,5.636,0,0,1,.523-2.153,3.264,3.264,0,0,1,.6-.88,1.643,1.643,0,0,1,1.31-.537,1.914,1.914,0,0,1,.726.2,4.448,4.448,0,0,1,1.105.779l.165.149a.156.156,0,0,0,.034.014c.072-.2.143-.39.216-.585.181-.484.349-.975.548-1.452a5.841,5.841,0,0,1,2.015-2.513,1.167,1.167,0,0,1,.877-.206c.15.02.3.057.447.09a.488.488,0,0,1,.393.39,1.8,1.8,0,0,1-.092,1.162,20.3,20.3,0,0,1-.95,1.887c-.232.408-.477.81-.688,1.229a8.108,8.108,0,0,0-.756,2.444,14.693,14.693,0,0,0-.16,2.04q-.006.469-.008.939c0,.046.008.091.014.164a.616.616,0,0,0,.075-.085,5.683,5.683,0,0,0,.263-.508q1.09-2.689,2.172-5.382c.049-.121.1-.241.157-.358a.632.632,0,0,1,.564-.383c.2-.01.409-.008.614-.007.461,0,.923.007,1.385.011.046,0,.093,0,.157.008l-.882,2.473.122.075c.029-.034.055-.061.077-.092q.619-.848,1.238-1.7c.061-.084.114-.175.173-.261a1.206,1.206,0,0,1,.728-.536,1.362,1.362,0,0,1,.57,0c.1.018.194.043.3.067a.906.906,0,0,1-.034.1c-.106.229-.211.458-.319.686a2.162,2.162,0,0,0-.214.572,1.13,1.13,0,0,0,.312.917c.014-.044.029-.082.039-.121.141-.529.285-1.057.419-1.588a.766.766,0,0,1,.776-.589c.575,0,1.15-.008,1.724-.013h.173c-.018.067-.031.116-.044.165-.253.895-.5,1.791-.7,2.7a17.9,17.9,0,0,0-.364,2.329c-.037.442-.052.885-.045,1.329,0,.033,0,.067.009.122a.427.427,0,0,0,.063-.061,15.62,15.62,0,0,0,1.662-3.687,8.036,8.036,0,0,0,.3-2.476c0-.116-.013-.232-.019-.345.113-.029,2.468-.034,2.618-.006-.013.105-.024.212-.038.318-.074.56-.155,1.12-.22,1.68-.041.349-.069.7-.086,1.053q-.028.554-.023,1.109a10.691,10.691,0,0,0,.268,2.236c.021.092.04.184.06.279.074-.014.072-.071.088-.111q.257-.642.512-1.284.69-1.74,1.378-3.48c.016-.04.03-.079.05-.132a.336.336,0,0,1-.336-.238q-.126-.258-.254-.514a.8.8,0,0,1,.02-.786,1.723,1.723,0,0,1,.6-.656,11.478,11.478,0,0,1,1.248-.608c.15.119.173.2.1.368-.169.391-.342.781-.514,1.171l-.325.742a.953.953,0,0,0,.417.245.523.523,0,0,0,.481-.1,1.522,1.522,0,0,0,.24-.255,3.291,3.291,0,0,1,.573-.623,2.286,2.286,0,0,1,1.482-.49,2.5,2.5,0,0,1,.732.121,1.158,1.158,0,0,1,.837.883,1.553,1.553,0,0,1-.274,1.382,1.273,1.273,0,0,1-.941.5c-.251.019-.5.026-.77.038-.027.144-.06.291-.082.439-.108.717-.214,1.435-.322,2.153a1.924,1.924,0,0,0-.026.61,1.42,1.42,0,0,0,.169.49.284.284,0,0,0,.372.158c.27-.081.538-.173.8-.27a.738.738,0,0,0,.362-.345q.356-.593.71-1.187.557-.936,1.111-1.874a.4.4,0,0,1,.1-.12.33.33,0,0,1-.009.047,13,13,0,0,1-.842,2.006,5.61,5.61,0,0,1-1,1.346,2.471,2.471,0,0,1-.912.593,1.851,1.851,0,0,1-2.051-.584,3.486,3.486,0,0,1-.715-1.492,5.03,5.03,0,0,1-.068-1.557,6.077,6.077,0,0,1,.286-1.389.448.448,0,0,0,.011-.047.711.711,0,0,0-1.011.114,2.214,2.214,0,0,0-.234.434q-.787,2.009-1.565,4.023a2.235,2.235,0,0,1-.125.272.564.564,0,0,1-.715.3,2.633,2.633,0,0,1-1.458-1.062,4.4,4.4,0,0,1-.636-1.464c-.069-.274-.124-.551-.185-.827-.01-.046-.022-.093-.034-.145-.059.018-.065.071-.083.11q-.464,1.043-.926,2.086c-.118.266-.232.534-.351.8a1.865,1.865,0,0,1-.143.263.55.55,0,0,1-.575.251,2.03,2.03,0,0,1-1.675-1.587,2.355,2.355,0,0,1-.048-.414c-.014-.752-.021-1.5-.03-2.257,0-.126,0-.251,0-.386-.086-.016-.162-.03-.238-.046s-.171-.034-.254-.059a.948.948,0,0,1-.706-.9c-.006-.125.007-.251.011-.377,0-.033,0-.065,0-.118a.853.853,0,0,0-.082.065,10.821,10.821,0,0,0-1.562,2,5.934,5.934,0,0,0-.764,2.054,5.583,5.583,0,0,0,0,1.766c.007.046.011.093.018.147a1.158,1.158,0,0,1-.662-.027,1.274,1.274,0,0,1-.7-.535,3.881,3.881,0,0,1-.42-.881c-.159-.469-.309-.942-.463-1.412-.013-.039-.027-.078-.048-.139-.029.057-.05.094-.066.133q-.548,1.234-1.1,2.468a2.249,2.249,0,0,1-.13.256.478.478,0,0,1-.508.248,2.016,2.016,0,0,1-1.739-1.347,3.317,3.317,0,0,1-.156-.752c-.056-.479-.106-.959-.159-1.439,0-.033-.014-.065-.027-.13Zm-1.806,3.372c.02-.039.043-.081.062-.123q.984-2.225,1.965-4.45a.731.731,0,0,0,.054-.278.888.888,0,0,0-.138-.47.4.4,0,0,0-.537-.217.819.819,0,0,0-.53.409,9.289,9.289,0,0,0-.739,1.737,10.2,10.2,0,0,0-.411,3.09c0,.253.007.259.275.3Zm5.13-6.455c.068-.108.131-.206.191-.307.3-.5.6-1,.89-1.5a2.582,2.582,0,0,0,.34-1.047,4.915,4.915,0,0,0,.005-.559c0-.063-.01-.133-.087-.162l-.3-.112-1.244,3.612.206.078Zm18.814,2.267v.007h.118a.9.9,0,0,0,.94-.784,1.957,1.957,0,0,0-.052-.787c-.021-.1-.075-.133-.188-.1a3.613,3.613,0,0,0-.5.153.773.773,0,0,0-.465.515c-.08.275-.146.554-.212.832-.027.112.017.161.136.168.074,0,.148,0,.222,0Zm-2.882-3.047a.7.7,0,0,0-.085.064c-.187.2-.374.4-.557.6a1.212,1.212,0,0,0-.149.212.431.431,0,0,0-.053.339,3.428,3.428,0,0,0,.148.35,11.975,11.975,0,0,0,.7-1.567Z" transform="translate(53.662 -101.771)" fill="#fff"/>
    <path id="Path_19416" data-name="Path 19416" d="M376.447,283.391a1.105,1.105,0,0,1-1.135-1.024,1.193,1.193,0,0,1,.366-1.057,1.186,1.186,0,1,1,1.117,2.034,1.229,1.229,0,0,1-.166.036c-.061.008-.122.008-.183.011Z" transform="translate(-199.664 -116.223)" fill="#fff"/>
    <path id="Path_19417" data-name="Path 19417" d="M356.439,209.426h-.456c0-.165,0-.329,0-.492v-1h-1.889v1.5h-.462v-3.355l.213-.005c.07,0,.139,0,.227,0,.007.16,0,.315,0,.47s0,.322,0,.483v.476h1.9v-1.416c.159-.014.309-.007.468,0v3.347Z" transform="translate(-179.172 -45.369)" fill="#fff"/>
    <path id="Path_19418" data-name="Path 19418" d="M436.934,209.1h1.642c.008.134.007.261,0,.4H436.46V206.16c.093-.026,1.937-.032,2.087,0v.358c-.272.017-.54.005-.808.008s-.53,0-.8,0v1.057c.152.008.306,0,.461,0s.313,0,.47,0h.483c-.014.132-.027.252-.04.384-.153.015-.3,0-.454.007s-.3,0-.457,0h-.455a7.165,7.165,0,0,0-.01,1.124Z" transform="translate(-257.489 -45.432)" fill="#fff"/>
    <path id="Path_19419" data-name="Path 19419" d="M274.382,206.447H273.2v-.383c.094-.027,2.638-.035,2.809-.007v.372h-1.152c0,.5,0,.994,0,1.484V209.4h-.474v-2.95Z" transform="translate(-103.124 -45.339)" fill="#fff"/>
    <path id="Path_19415-2" data-name="Path 19415" d="M5.238,8.358c-.057.107-.1.179-.135.253q-.841,1.727-1.682,3.454a2.113,2.113,0,0,1-.147.261.808.808,0,0,1-1,.347A2.781,2.781,0,0,1,.342,11.013,4.965,4.965,0,0,1,.076,9.894,6.477,6.477,0,0,1,.009,8.564,6.27,6.27,0,0,1,.685,6a3.886,3.886,0,0,1,.777-1.047,2.22,2.22,0,0,1,1.693-.639,2.644,2.644,0,0,1,.939.234,5.775,5.775,0,0,1,1.429.927c.07.06.141.118.213.177a.212.212,0,0,0,.044.017c.093-.232.185-.464.279-.7.234-.576.451-1.159.708-1.726A7.086,7.086,0,0,1,9.373.261,1.611,1.611,0,0,1,10.507.016c.194.024.387.068.578.107a.608.608,0,0,1,.509.464,1.983,1.983,0,0,1-.119,1.382,23.442,23.442,0,0,1-1.228,2.244c-.3.485-.616.964-.89,1.462a9.09,9.09,0,0,0-.978,2.907,16.1,16.1,0,0,0-.206,2.426q-.007.558-.01,1.117c0,.054.01.108.018.2a.754.754,0,0,0,.1-.1,6.584,6.584,0,0,0,.339-.6q1.409-3.2,2.808-6.4c.063-.144.129-.287.2-.426a.819.819,0,0,1,.729-.455c.264-.012.529-.009.794-.008.6,0,1.193.008,1.79.014.06,0,.12.006.2.01-.384.99-.76,1.961-1.14,2.941l.158.089c.037-.04.071-.073.1-.109q.8-1.009,1.6-2.019c.079-.1.148-.208.223-.311a1.555,1.555,0,0,1,.942-.638,1.911,1.911,0,0,1,.737,0c.126.021.251.051.388.08a1.017,1.017,0,0,1-.044.124c-.137.273-.273.545-.413.816A2.447,2.447,0,0,0,17.42,6a1.279,1.279,0,0,0,.4,1.09c.018-.052.037-.1.051-.144.182-.629.368-1.258.542-1.889a.98.98,0,0,1,1-.7c.743,0,1.486-.01,2.229-.016h.223c-.023.08-.039.138-.057.2-.327,1.064-.651,2.129-.907,3.21a19.713,19.713,0,0,0-.47,2.77,14.627,14.627,0,0,0-.058,1.581c0,.039.006.08.012.146a.532.532,0,0,0,.082-.073A17.889,17.889,0,0,0,22.62,7.782a8.835,8.835,0,0,0,.387-2.944c-.006-.138-.017-.276-.025-.41.146-.034,3.19-.04,3.384-.007-.016.125-.031.252-.049.378-.1.666-.2,1.331-.285,2-.053.416-.089.834-.111,1.252q-.036.658-.03,1.318a11.747,11.747,0,0,0,.347,2.659c.027.109.051.219.078.332.1-.017.094-.084.114-.131q.333-.763.661-1.528.892-2.069,1.781-4.139c.02-.047.039-.095.065-.157A.432.432,0,0,1,28.5,6.12q-.163-.307-.329-.612a.89.89,0,0,1,.025-.935,2.125,2.125,0,0,1,.78-.781,15.421,15.421,0,0,1,1.614-.723c.194.142.224.239.13.438-.219.465-.442.928-.664,1.392l-.42.883a1.259,1.259,0,0,0,.539.291.722.722,0,0,0,.622-.115,1.883,1.883,0,0,0,.311-.3,4.061,4.061,0,0,1,.741-.74,3.128,3.128,0,0,1,1.916-.583,3.487,3.487,0,0,1,.946.144A1.433,1.433,0,0,1,35.8,5.526a1.732,1.732,0,0,1-.354,1.643,1.692,1.692,0,0,1-1.216.592c-.325.023-.651.03-1,.045-.035.171-.077.346-.106.522-.14.853-.277,1.707-.416,2.561a2.108,2.108,0,0,0-.033.725,1.6,1.6,0,0,0,.219.583.378.378,0,0,0,.48.188c.349-.1.7-.206,1.038-.321a.924.924,0,0,0,.468-.41q.461-.7.918-1.412.719-1.114,1.436-2.229a.485.485,0,0,1,.129-.143.364.364,0,0,1-.011.056,14.805,14.805,0,0,1-1.088,2.386,6.744,6.744,0,0,1-1.295,1.6,3.235,3.235,0,0,1-1.179.7,2.525,2.525,0,0,1-2.652-.695,4.016,4.016,0,0,1-.925-1.774A5.512,5.512,0,0,1,30.124,8.3a6.725,6.725,0,0,1,.37-1.652.494.494,0,0,0,.014-.056.973.973,0,0,0-1.307.136,2.573,2.573,0,0,0-.3.517c-.678,1.593-1.349,3.19-2.024,4.784a2.558,2.558,0,0,1-.161.324.754.754,0,0,1-.924.353,3.4,3.4,0,0,1-1.885-1.263,5.03,5.03,0,0,1-.823-1.74c-.089-.326-.16-.655-.239-.983-.013-.055-.028-.11-.044-.172-.077.022-.085.084-.107.131q-.6,1.24-1.2,2.481c-.152.317-.3.636-.454.951a2.165,2.165,0,0,1-.185.313.736.736,0,0,1-.744.3,2.543,2.543,0,0,1-2.166-1.887,2.589,2.589,0,0,1-.063-.492c-.018-.894-.027-1.79-.039-2.684,0-.15,0-.3,0-.459-.111-.019-.21-.036-.307-.055s-.221-.04-.328-.07A1.15,1.15,0,0,1,16.3,6c-.008-.149.009-.3.015-.449,0-.039,0-.078,0-.14a1.1,1.1,0,0,0-.106.077,13.08,13.08,0,0,0-2.019,2.382,6.715,6.715,0,0,0-.987,2.442,6.115,6.115,0,0,0,0,2.1c.009.055.015.111.023.175a1.737,1.737,0,0,1-1.763-.669,4.463,4.463,0,0,1-.542-1.048c-.206-.558-.4-1.12-.6-1.68-.017-.047-.035-.093-.062-.165-.037.068-.064.112-.086.158q-.708,1.467-1.416,2.935a2.6,2.6,0,0,1-.168.3.636.636,0,0,1-.656.295,2.58,2.58,0,0,1-2.248-1.6,3.672,3.672,0,0,1-.2-.894c-.072-.57-.137-1.14-.206-1.711,0-.039-.018-.078-.035-.155ZM2.9,12.368c.025-.047.056-.1.08-.146q1.272-2.646,2.54-5.293a.809.809,0,0,0,.07-.33,1,1,0,0,0-.179-.559.537.537,0,0,0-.694-.258,1.052,1.052,0,0,0-.685.486A10.593,10.593,0,0,0,3.08,8.333a11.226,11.226,0,0,0-.532,3.674c0,.3.009.307.356.36ZM9.535,4.691c.087-.129.169-.245.247-.365.385-.6.777-1.188,1.151-1.789a2.9,2.9,0,0,0,.44-1.245,5.374,5.374,0,0,0,.007-.665.177.177,0,0,0-.112-.192L10.875.3,9.267,4.6l.267.093Zm24.321,2.7V7.4h.152a1.137,1.137,0,0,0,1.215-.933,2.147,2.147,0,0,0-.067-.936c-.027-.121-.1-.158-.243-.124a4.979,4.979,0,0,0-.642.182.951.951,0,0,0-.6.612c-.1.327-.189.659-.275.99-.035.133.022.192.175.2.1,0,.191,0,.287,0ZM30.13,3.764a.9.9,0,0,0-.11.076c-.242.237-.484.474-.72.715a1.446,1.446,0,0,0-.193.252.478.478,0,0,0-.068.4,3.92,3.92,0,0,0,.192.416,13.684,13.684,0,0,0,.9-1.863Z" transform="translate(44.432 96.082) rotate(-9)" fill="#191919"/>
    <path id="Path_19416-2" data-name="Path 19416" d="M1.512,3.152A1.46,1.46,0,0,1,.014,1.8,1.576,1.576,0,0,1,.5.4a1.538,1.538,0,0,1,2.522.747A1.547,1.547,0,0,1,1.972,3.09a1.625,1.625,0,0,1-.219.048c-.08.011-.161.01-.241.014Z" transform="translate(63.127 93.724) rotate(-9)" fill="#191919"/>
    <path id="Path_19417-2" data-name="Path 19417" d="M3.71,4.431h-.6c-.006-.218,0-.434,0-.65V2.464H.61V4.44H0V.008L.282,0c.092,0,.184,0,.3,0,.009.212,0,.416,0,.621s0,.425,0,.639v.629H3.092V.018C3.3,0,3.5.009,3.709.011V4.432Z" transform="translate(60.85 89.133) rotate(-9)" fill="#191919"/>
    <path id="Path_19418-2" data-name="Path 19418" d="M.626,3.91H2.795c.01.177.009.344,0,.523H0V.03C.122,0,2.559-.012,2.757.023V.5C2.4.518,2.043.5,1.689.506s-.7,0-1.061,0V1.9c.2.01.4,0,.609,0s.414,0,.621,0H2.5c-.019.175-.035.333-.053.508-.2.02-.4.006-.6.009s-.4,0-.6,0h-.6A9.469,9.469,0,0,0,.626,3.909Z" transform="translate(66.614 88.225) rotate(-9)" fill="#191919"/>
    <path id="Path_19419-2" data-name="Path 19419" d="M1.561.539H0V.032C.124,0,3.485-.014,3.71.023V.515H2.188c0,.665,0,1.313,0,1.96V4.436H1.561V.539Z" transform="translate(55.268 90.015) rotate(-9)" fill="#191919"/>
  </g>
</svg>
