<svg xmlns="http://www.w3.org/2000/svg" width="15.327" height="16.35" viewBox="0 0 15.327 16.35">
  <g id="Group_74679" data-name="Group 74679" transform="translate(-199.979 -17.825)">
    <path id="Icon_ionic-ios-arrow-forward" data-name="Icon ionic-ios-arrow-forward" d="M15.423,11.423,11.466,7.469a.744.744,0,0,1,0-1.055.754.754,0,0,1,1.058,0l4.483,4.48a.746.746,0,0,1,.022,1.03l-4.5,4.511a.747.747,0,0,1-1.058-1.055Z" transform="translate(188.732 14.575)" fill="#fff"/>
    <path id="Icon_ionic-ios-arrow-forward-2" data-name="Icon ionic-ios-arrow-forward" d="M17.777,14.368,11.59,8.186a1.163,1.163,0,0,1,0-1.65,1.178,1.178,0,0,1,1.655,0l7.01,7a1.166,1.166,0,0,1,.034,1.611L13.25,22.205a1.169,1.169,0,0,1-1.655-1.65Z" transform="translate(194.711 11.629)" fill="#fff"/>
  </g>
</svg>


