<svg xmlns="http://www.w3.org/2000/svg" width="21.622" height="24.711" viewBox="0 0 21.622 24.711">
  <path id="Icon_awesome-bell" data-name="Icon awesome-bell" d="M10.811,24.711A3.088,3.088,0,0,0,13.9,21.622H7.724A3.088,3.088,0,0,0,10.811,24.711Zm10.4-7.226c-.932-1-2.677-2.509-2.677-7.447A7.622,7.622,0,0,0,12.355,2.55V1.544a1.543,1.543,0,1,0-3.087,0V2.55a7.622,7.622,0,0,0-6.175,7.489c0,4.937-1.745,6.445-2.677,7.447A1.508,1.508,0,0,0,0,18.533a1.546,1.546,0,0,0,1.549,1.544H20.073a1.546,1.546,0,0,0,1.549-1.544,1.507,1.507,0,0,0-.416-1.048Z" transform="translate(0)" fill="#fff"/>
</svg>
