<svg xmlns="http://www.w3.org/2000/svg" width="30.866" height="27.907" viewBox="0 0 30.866 27.907">
  <g id="svgexport-6_53_" data-name="svgexport-6 (53)" transform="translate(-32)">
    <path id="Path_18940" data-name="Path 18940" d="M62.1,89.913,64.307,88H48.551c-.225,0-.551.373-.551.956s.326.956.551.956Z" transform="translate(-14.898 -84.174)" fill="#bfbfbf"/>
    <path id="Path_18941" data-name="Path 18941" d="M49.783,138.74a2.717,2.717,0,0,1-3.1-.084A1.914,1.914,0,0,1,46.208,136H34.617l-2.57,7.549a1.259,1.259,0,0,0-.047.339v13.155H50.189V143.887a2.1,2.1,0,0,1,.082-.58l.006-.02,2.158-6.338Zm-8.964,6.825h0a.426.426,0,0,1-.057.214l-1.035,1.8.456,5.54a1.326,1.326,0,0,1-.439,1.08,1.78,1.78,0,0,1-1.21.457h-.939a1.78,1.78,0,0,1-1.21-.457,1.326,1.326,0,0,1-.439-1.08l.456-5.54-1.035-1.8a.426.426,0,0,1-.057-.214h0v-1.913a.557.557,0,0,1,1.1,0v1.435h1.1v-1.435a.557.557,0,0,1,1.1,0v1.435h1.1v-1.435a.557.557,0,0,1,1.1,0Zm4.969,8.614a1.779,1.779,0,0,1-1.226.472h-.871a1.776,1.776,0,0,1-1.226-.472,1.319,1.319,0,0,1-.419-1.105l.427-3.707v-.159l-.8-.346a.471.471,0,0,1-.3-.464c.018-.213.49-5.225,3.857-5.225a.519.519,0,0,1,.551.478v5.715l.427,3.707A1.321,1.321,0,0,1,45.787,154.179Z" transform="translate(0 -129.136)" fill="#bfbfbf"/>
    <path id="Path_18942" data-name="Path 18942" d="M432,24h3.307v5.261H432Z" transform="translate(-372.441 -24)" fill="#bfbfbf"/>
    <path id="Path_18943" data-name="Path 18943" d="M187,40.2l-3.622,1.714h8.311a.558.558,0,0,1,.509.3.433.433,0,0,1-.119.521L188.3,46a1.042,1.042,0,0,0-.057,1.574,1.471,1.471,0,0,0,1.807.146l3.44-2.321a.856.856,0,0,1,.475-.141h1.355a1.767,1.767,0,0,0,1.876-1.628.829.829,0,0,1,.88-.764H199.4V40H187.894A2.111,2.111,0,0,0,187,40.2Z" transform="translate(-140.945 -39.044)" fill="#bfbfbf"/>
    <path id="Path_18944" data-name="Path 18944" d="M106.79,336h-1.178l-.431,5.227a.442.442,0,0,0,.146.36.593.593,0,0,0,.4.152h.939a.593.593,0,0,0,.4-.152.442.442,0,0,0,.146-.36Z" transform="translate(-68.138 -317.18)" fill="#bfbfbf"/>
    <path id="Path_18945" data-name="Path 18945" d="M185.614,278.153h1.1v-4.7a3.03,3.03,0,0,0-1.659,1.964,9.327,9.327,0,0,0-.507,1.974l.76.33a.476.476,0,0,1,.3.428Z" transform="translate(-142.039 -258.436)" fill="#bfbfbf"/>
    <path id="Path_18946" data-name="Path 18946" d="M101.5,304.956h1.523l.551-.957h-2.626Z" transform="translate(-64.194 -287.156)" fill="#bfbfbf"/>
    <path id="Path_18947" data-name="Path 18947" d="M323.314,468.551h2.85l-1.425-1.237Z" transform="translate(-271.243 -440.644)" fill="#bfbfbf"/>
    <path id="Path_18948" data-name="Path 18948" d="M195.269,368h-1.207l-.38,3.3a.44.44,0,0,0,.14.369.592.592,0,0,0,.409.157h.871a.592.592,0,0,0,.409-.157.439.439,0,0,0,.14-.369Z" transform="translate(-150.54 -347.267)" fill="#bfbfbf"/>
    <path id="Path_18949" data-name="Path 18949" d="M312.047,162.63a1.259,1.259,0,0,0-.047.339v12.479l1.654-1.435V163.69a.557.557,0,0,1,1.1,0v10.323l1.654,1.435V163.009a1.257,1.257,0,0,0-.067-.4l-2.139-6.309Z" transform="translate(-260.709 -148.217)" fill="#bfbfbf"/>
  </g>
</svg>
