<svg xmlns="http://www.w3.org/2000/svg" width="17.511" height="17.51" viewBox="0 0 17.511 17.51">
  <path id="Path_8103" data-name="Path 8103" d="M10.755,2a3.5,3.5,0,0,0-3.5,3.5H4.688a2.648,2.648,0,0,0-2.66,3l1.295,8.755a2.669,2.669,0,0,0,2.66,2.251h9.544a2.669,2.669,0,0,0,2.66-2.251L19.482,8.5a2.648,2.648,0,0,0-2.66-3H14.257a3.5,3.5,0,0,0-3.5-3.5Zm1.751,3.5A1.751,1.751,0,1,0,9,5.5ZM8.128,11.63a.875.875,0,0,0,0,1.751H9.879v1.751a.875.875,0,0,0,1.751,0V13.381h1.751a.875.875,0,0,0,0-1.751H11.63V9.879a.875.875,0,1,0-1.751,0V11.63Z" transform="translate(-1.999 -2)" fill="#1b4081" fill-rule="evenodd"/>
</svg>
