<svg xmlns="http://www.w3.org/2000/svg" width="24.347" height="28.001" viewBox="0 0 24.347 28.001">
  <path id="Union_14" data-name="Union 14" d="M6412.769-6510.888h-8.944a4.085,4.085,0,0,1-4.146-3.814l-.777-15.561v-.03a.524.524,0,0,1,.162-.384.577.577,0,0,1,.4-.157h4.831v-1.291a3.655,3.655,0,0,1,3.71-3.574h3.863a3.77,3.77,0,0,1,2.616,1.066,3.49,3.49,0,0,1,1.061,2.537v1.291h4.862a.544.544,0,0,1,.53.542l-.623,12.647a5.249,5.249,0,0,1,2.495,2.583,5.191,5.191,0,0,1-2.869,6.907,5.615,5.615,0,0,1-2.147.427A5.473,5.473,0,0,1,6412.769-6510.888Zm3.38-6a4.212,4.212,0,0,0-2.726,3.892,4.181,4.181,0,0,0,.25,1.381,4.359,4.359,0,0,0,3.963,2.818,4.385,4.385,0,0,0,4.171-2.52v0a4.1,4.1,0,0,0-.886-4.619,4.457,4.457,0,0,0-3.126-1.267A4.508,4.508,0,0,0,6416.149-6516.883Zm-9.971-17.056a2.475,2.475,0,0,0-.764,1.785v1.291h9.1v-1.291a2.483,2.483,0,0,0-.766-1.785,2.659,2.659,0,0,0-1.852-.738h-3.869A2.665,2.665,0,0,0,6406.178-6533.939Zm11.287,23.209v-1.707h-1.706a.538.538,0,0,1-.54-.538.54.54,0,0,1,.54-.54h1.706v-1.706a.533.533,0,0,1,.158-.38.527.527,0,0,1,.382-.158.532.532,0,0,1,.381.158.533.533,0,0,1,.157.38v1.706h1.706a.54.54,0,0,1,.54.54.539.539,0,0,1-.54.538h-1.706v1.707a.538.538,0,0,1-.538.538A.539.539,0,0,1,6417.465-6510.729Z" transform="translate(-6398.901 6535.699)" fill="#fff"/>
</svg>
