<svg xmlns="http://www.w3.org/2000/svg" width="20.11" height="24" viewBox="0 0 20.11 24">
  <g id="add" transform="translate(-1)">
    <path id="Path_7586" data-name="Path 7586" d="M35.608,17.3H32.418a3.071,3.071,0,0,0-3.063,3.063V21.47H25.363a.461.461,0,0,0-.463.463v.026L25.543,35.3a3.426,3.426,0,0,0,3.424,3.269h7.388a4.509,4.509,0,1,0,8.289-3.552,4.424,4.424,0,0,0-2.06-2.214L43.1,21.959a.457.457,0,0,0-.438-.463H38.646V20.389A3.054,3.054,0,0,0,35.608,17.3ZM30.28,20.338a2.159,2.159,0,0,1,2.162-2.162h3.191a2.159,2.159,0,0,1,2.162,2.162v1.107H30.28ZM43.82,38.2a3.613,3.613,0,0,1-6.719-.255,3.694,3.694,0,0,1-.206-1.184,3.611,3.611,0,1,1,6.925,1.442Z" transform="translate(-23.9 -17.3)" fill="#1b4081"/>
    <path id="Path_7587" data-name="Path 7587" d="M78.4,83.6a.426.426,0,0,0-.3.123.417.417,0,0,0-.124.3v1.334H76.625a.421.421,0,1,0,0,.842h1.349v1.334a.426.426,0,0,0,.851,0V86.2h1.349a.421.421,0,1,0,0-.842H78.824V84.021a.417.417,0,0,0-.124-.3A.426.426,0,0,0,78.4,83.6Z" transform="translate(-61.781 -66.311)" fill="#1b4081"/>
  </g>
</svg>
