<svg xmlns="http://www.w3.org/2000/svg" width="16.35" height="12.337" viewBox="0 0 16.35 12.337">
  <g id="Group_4494" data-name="Group 4494" transform="translate(0 0)">
    <path id="Icon_ionic-ios-arrow-forward" data-name="Icon ionic-ios-arrow-forward" d="M4.176,5.226.219,1.273a.744.744,0,0,1,0-1.055.754.754,0,0,1,1.058,0L5.761,4.7a.746.746,0,0,1,.022,1.03l-4.5,4.511A.747.747,0,0,1,.223,9.183Z" transform="translate(2.947 12.337) rotate(-90)" fill="#fff"/>
    <path id="Icon_ionic-ios-arrow-forward-2" data-name="Icon ionic-ios-arrow-forward" d="M6.53,8.172.343,1.99a1.163,1.163,0,0,1,0-1.65A1.178,1.178,0,0,1,2,.34l7.01,7a1.166,1.166,0,0,1,.034,1.611L2,16.009a1.169,1.169,0,0,1-1.655-1.65Z" transform="translate(0 9.348) rotate(-90)" fill="#fff"/>
  </g>
</svg>
