<svg xmlns="http://www.w3.org/2000/svg" width="18" height="17" viewBox="0 0 18 17">
  <g id="Icon_ionic-ios-calendar" data-name="Icon ionic-ios-calendar" transform="translate(-3.375 -4.5)">
    <path id="Path_19420" data-name="Path 19420" d="M19.644,6.75H17.913V7.808a.351.351,0,0,1-.346.353h-.692a.351.351,0,0,1-.346-.353V6.75H8.221V7.808a.351.351,0,0,1-.346.353H7.183a.351.351,0,0,1-.346-.353V6.75H5.106A1.753,1.753,0,0,0,3.375,8.514V20.509a1.753,1.753,0,0,0,1.731,1.764H19.644a1.753,1.753,0,0,0,1.731-1.764V8.514A1.753,1.753,0,0,0,19.644,6.75Zm.346,13.229a.876.876,0,0,1-.865.882H5.625a.876.876,0,0,1-.865-.882V12.042a.351.351,0,0,1,.346-.353H19.644a.351.351,0,0,1,.346.353Z" transform="translate(0 -0.772)" fill="#bfbfbf"/>
    <path id="Path_19421" data-name="Path 19421" d="M10.478,4.869a.37.37,0,0,0-.369-.369H9.369A.37.37,0,0,0,9,4.869V5.978h1.478Z" transform="translate(-2.183)" fill="#bfbfbf"/>
    <path id="Path_19422" data-name="Path 19422" d="M26.228,4.869a.37.37,0,0,0-.369-.369h-.739a.37.37,0,0,0-.369.369V5.978h1.478Z" transform="translate(-8.295)" fill="#bfbfbf"/>
  </g>
</svg>
