<svg xmlns="http://www.w3.org/2000/svg" width="50" height="50" viewBox="0 0 50 50">
  <g id="Group_74678" data-name="Group 74678" transform="translate(-38 -612)">
    <g id="Ellipse_509" data-name="Ellipse 509" transform="translate(38 612)" fill="#191919" stroke="#45a080" stroke-width="3">
      <circle cx="25" cy="25" r="25" stroke="none"/>
      <circle cx="25" cy="25" r="23.5" fill="none"/>
    </g>
    <g id="Logo" transform="translate(-61.611 270.974)">
      <path id="Path_7721" data-name="Path 7721" d="M115.019,224.557a.854.854,0,0,1-.347.335.452.452,0,0,1-.083.033c-.393.114-.924.408-1.151.258a1.419,1.419,0,0,1-.349-1.139c.1-1.082.318-2.153.5-3.262.375,0,.589.018.8,0a1.645,1.645,0,0,0,1.537-1.65,1.5,1.5,0,0,0-1.465-1.671,2.693,2.693,0,0,0-2.719,1.2c-.388.567-.774.6-1.338.188.362-.823.717-1.636,1.074-2.448l-.188-.195c-.911.382-1.953.706-2.28,1.754-.112.358.226.853.449,1.313a.281.281,0,0,0,.329.148h0l-2.3,5.8c-.711-2.625-.346-5.177.036-7.747h-3.036c.253,2.861-.919,5.272-2.283,7.632a24.623,24.623,0,0,1,1.323-7.679c-.845,0-1.616-.044-2.379.025a.963.963,0,0,0-.661.529c-.232.638-.355,1.317-.56,2.135-.889-1.111.1-1.812.293-2.649a1.469,1.469,0,0,0-1.894.625c-.5.79-1.1,1.517-1.65,2.271l-.137-.072c.333-.932.666-1.865,1.023-2.861-.779,0-1.49.04-2.193-.012a.927.927,0,0,0-1.074.723c-.845,2.2-1.741,4.373-2.626,6.551a2.737,2.737,0,0,1-.3.456c-.024-2.431.065-4.8,1.324-6.942a26.043,26.043,0,0,0,1.685-3.249c.175-.43.107-1.321-.166-1.486a1.884,1.884,0,0,0-1.682-.048,6.926,6.926,0,0,0-1.974,2.084,22.377,22.377,0,0,0-1.319,3.22c-.189-.171-.361-.337-.544-.489-1.644-1.368-3.114-1.042-4,.877a6.9,6.9,0,0,0-.441,4.136,2.712,2.712,0,0,0,1.5,2.087c.657.32,1.118.292,1.429-.5.45-1.145,1-2.25,1.589-3.545.1.917.126,1.618.268,2.294a2.34,2.34,0,0,0,1.89,1.912.68.68,0,0,0,.922-.468c.41-1.014.879-2,1.363-3.088.925,3.112,1.223,3.5,2.644,3.49-.5-2.783.722-4.912,2.74-7-.2,1.226.367,1.673,1.339,1.753,0,1.041-.071,2.05.02,3.045a2.375,2.375,0,0,0,1.668,2.213c.539.179.9.137,1.146-.487.441-1.129.973-2.222,1.55-3.516.127.571.188.927.285,1.272a3.785,3.785,0,0,0,2.048,2.683c.584.258,1.021.231,1.285-.5.561-1.551,1.228-3.066,1.789-4.618.27-.749.661-1.046,1.451-.715-.076.264-.173.524-.224.8a5.358,5.358,0,0,0,.479,4,2.211,2.211,0,0,0,3.578.49,9.768,9.768,0,0,0,2.332-4.243Q116.186,222.58,115.019,224.557Zm-1.285-4.3c.249-1.292.353-1.553,1.378-1.789a.153.153,0,0,1,.182.115c.293,1.292-.3,1.97-1.475,1.789a.1.1,0,0,1-.067-.04A.1.1,0,0,1,113.734,220.253Zm-19.959-6.7.419.156c.226,1.647-.925,2.766-1.6,4.066-.079-.029-.159-.057-.238-.086Zm-4.7,6.231c-.749,1.821-1.58,3.609-2.387,5.406l-.287-.082a10.73,10.73,0,0,1,1.417-5.993.958.958,0,0,1,.882-.268A1.08,1.08,0,0,1,89.079,219.786Zm20.967-1.1a3.187,3.187,0,0,0-.152-.377c-.224-.445.952-1.4.986-1.43Z" transform="translate(23.873 148.49)" fill="#fff"/>
      <g id="Group_74449" data-name="Group 74449" transform="translate(118.331 358)">
        <path id="Path_7722" data-name="Path 7722" d="M204.52,163.48h-1.353v3.407h-.557V163.48h-1.36V163h3.27Z" transform="translate(-201.25 -163)" fill="#fff"/>
        <path id="Path_7723" data-name="Path 7723" d="M254.575,163v3.886h-.556v-1.744h-2.163v1.745H251.3V163h.556v1.673h2.164V163Z" transform="translate(-246.287 -163)" fill="#fff"/>
        <path id="Path_7724" data-name="Path 7724" d="M305.478,166.419v.468H303V163h2.448v.467h-1.892v1.212h1.657l-.061.456h-1.6v1.283Z" transform="translate(-292.81 -163)" fill="#fff"/>
      </g>
      <path id="Path_7720" data-name="Path 7720" d="M253.818,224.171a1.319,1.319,0,0,1-1.4,1.351,1.284,1.284,0,0,1-1.277-1.368,1.335,1.335,0,0,1,1.3-1.374,1.368,1.368,0,0,1,.987.4A1.347,1.347,0,0,1,253.818,224.171Z" transform="translate(-126.412 139.914)" fill="#fff"/>
    </g>
  </g>
</svg>
