<svg id="svgexport-6_27_" data-name="svgexport-6 (27)" xmlns="http://www.w3.org/2000/svg" width="16.097" height="18.315" viewBox="0 0 16.097 18.315">
  <g id="Group_4414" data-name="Group 4414">
    <g id="Group_4413" data-name="Group 4413">
      <path id="Path_8131" data-name="Path 8131" d="M45.487,2.146H42.3L41.948,1.1A1.608,1.608,0,0,0,40.421,0H37.676a1.609,1.609,0,0,0-1.527,1.1L35.8,2.146H32.61A1.611,1.611,0,0,0,31,3.756V4.829c0,.6.538.537,1.115.537H46.56a.536.536,0,0,0,.537-.537V3.756A1.611,1.611,0,0,0,45.487,2.146Zm-8.556,0,.235-.706a.536.536,0,0,1,.509-.367h2.746a.535.535,0,0,1,.509.367l.235.706Z" transform="translate(-31)" fill="#fff"/>
    </g>
  </g>
  <g id="Group_4416" data-name="Group 4416" transform="translate(1.204 6.51)">
    <g id="Group_4415" data-name="Group 4415">
      <path id="Path_8132" data-name="Path 8132" d="M64.666,182l.856,10.34a1.6,1.6,0,0,0,1.6,1.464H75.9a1.6,1.6,0,0,0,1.6-1.469L78.355,182Zm4.161,9.122a.537.537,0,0,1-1.073,0V183.61a.537.537,0,0,1,1.073,0Zm3.219,0a.537.537,0,0,1-1.073,0V183.61a.537.537,0,0,1,1.073,0Zm3.219,0a.537.537,0,0,1-1.073,0V183.61a.537.537,0,1,1,1.073,0Z" transform="translate(-64.666 -182)" fill="#fff"/>
    </g>
  </g>
</svg>
