<svg xmlns="http://www.w3.org/2000/svg" width="16" height="17.621" viewBox="0 0 16 17.621">
  <path id="Union_4" data-name="Union 4" d="M1.552,17.62A1.552,1.552,0,0,1,0,16.069a.517.517,0,0,1,.517-.517H12.931a.517.517,0,0,1,.517.517A1.552,1.552,0,0,1,11.9,17.62Zm1.335-3.1a4.467,4.467,0,0,1-1.455-2.058A7.76,7.76,0,0,1,1.035,10V6.724a.517.517,0,0,1,.516-.517H11.88a.517.517,0,0,1,.517.517v.517h1a2.627,2.627,0,0,1,2.256,1.3,2.467,2.467,0,0,1,.039,2.472A4.743,4.743,0,0,1,11.5,13.469a4.611,4.611,0,0,1-.951,1.048ZM12.4,10a7.765,7.765,0,0,1-.379,2.385,3.607,3.607,0,0,0,2.768-1.881,1.424,1.424,0,0,0-.028-1.444,1.57,1.57,0,0,0-1.365-.79h-1ZM6.724,5.241a.515.515,0,0,1-.286-.087,1.762,1.762,0,0,1,0-2.929.842.842,0,0,0,.323-.673.715.715,0,0,0-.323-.6A.517.517,0,0,1,7.011.087a1.757,1.757,0,0,1,.783,1.465,1.881,1.881,0,0,1-.783,1.534.727.727,0,0,0,0,1.208.517.517,0,0,1-.287.948Zm-2.586,0a.515.515,0,0,1-.286-.087,1.762,1.762,0,0,1,0-2.929.842.842,0,0,0,.323-.673.715.715,0,0,0-.323-.6A.517.517,0,0,1,4.424.087a1.757,1.757,0,0,1,.783,1.465,1.881,1.881,0,0,1-.783,1.534.727.727,0,0,0,0,1.208.517.517,0,0,1-.287.948Zm4.887-.087a1.762,1.762,0,0,1,0-2.929.842.842,0,0,0,.323-.673.715.715,0,0,0-.323-.6A.517.517,0,0,1,9.6.087a1.757,1.757,0,0,1,.783,1.465A1.882,1.882,0,0,1,9.6,3.086a.727.727,0,0,0,0,1.208.517.517,0,1,1-.573.861Z" transform="translate(0 0)" fill="#c6c6c9"/>
</svg>
