<svg xmlns="http://www.w3.org/2000/svg" width="38.777" height="14.366" viewBox="0 0 38.777 14.366">
  <path id="Path_7721" data-name="Path 7721" d="M120.184,226.447a1,1,0,0,1-.4.391.527.527,0,0,1-.1.038c-.458.133-1.079.477-1.343.3a1.656,1.656,0,0,1-.407-1.329c.117-1.263.372-2.513.579-3.807.437,0,.687.021.935,0a1.921,1.921,0,0,0,1.794-1.926,1.754,1.754,0,0,0-1.71-1.95,3.143,3.143,0,0,0-3.174,1.4c-.452.662-.9.7-1.562.219.422-.96.837-1.909,1.253-2.857l-.22-.227c-1.064.445-2.279.824-2.662,2.047-.131.418.264,1,.524,1.532a.328.328,0,0,0,.385.173h0l-2.68,6.773c-.83-3.063-.4-6.042.042-9.042h-3.543c.3,3.34-1.073,6.154-2.665,8.907a28.74,28.74,0,0,1,1.544-8.963c-.987,0-1.887-.051-2.776.029a1.124,1.124,0,0,0-.772.617c-.271.745-.414,1.537-.653,2.492-1.038-1.3.117-2.115.343-3.091a1.714,1.714,0,0,0-2.21.73c-.584.922-1.279,1.77-1.925,2.651l-.16-.084c.389-1.088.777-2.177,1.193-3.34-.909,0-1.739.046-2.56-.014a1.082,1.082,0,0,0-1.253.843c-.987,2.562-2.032,5.1-3.065,7.647a3.2,3.2,0,0,1-.351.532c-.028-2.837.076-5.6,1.545-8.1a30.393,30.393,0,0,0,1.966-3.792c.2-.5.125-1.542-.194-1.734a2.2,2.2,0,0,0-1.963-.056,8.083,8.083,0,0,0-2.3,2.432,26.118,26.118,0,0,0-1.539,3.758c-.221-.2-.421-.393-.635-.571-1.918-1.6-3.634-1.216-4.668,1.023a8.056,8.056,0,0,0-.514,4.828,3.165,3.165,0,0,0,1.753,2.436c.767.374,1.3.341,1.668-.586.525-1.336,1.169-2.626,1.855-4.138.117,1.071.147,1.888.313,2.677a2.732,2.732,0,0,0,2.206,2.232A.794.794,0,0,0,93.149,227c.478-1.183,1.026-2.339,1.591-3.6,1.08,3.632,1.427,4.089,3.086,4.074-.584-3.248.843-5.734,3.2-8.167-.234,1.431.428,1.952,1.563,2.046,0,1.215-.083,2.393.023,3.554a2.772,2.772,0,0,0,1.946,2.583c.629.209,1.052.16,1.337-.568.514-1.318,1.136-2.594,1.81-4.1.148.667.22,1.082.333,1.485a4.418,4.418,0,0,0,2.391,3.132c.682.3,1.191.269,1.5-.58.655-1.811,1.433-3.579,2.088-5.39.316-.875.771-1.22,1.694-.834-.089.309-.2.611-.262.928a6.254,6.254,0,0,0,.559,4.67,2.581,2.581,0,0,0,4.177.572,11.4,11.4,0,0,0,2.721-4.952Q121.546,224.139,120.184,226.447Zm-1.5-5.023c.291-1.508.411-1.813,1.608-2.088a.179.179,0,0,1,.213.135c.343,1.508-.351,2.3-1.722,2.088a.117.117,0,0,1-.078-.046A.115.115,0,0,1,118.684,221.424Zm-23.3-7.818.489.182c.264,1.922-1.08,3.228-1.87,4.745-.092-.034-.186-.066-.278-.1Zm-5.481,7.273c-.874,2.125-1.845,4.212-2.786,6.31l-.335-.1A12.524,12.524,0,0,1,88.44,220.1a1.118,1.118,0,0,1,1.03-.313A1.261,1.261,0,0,1,89.907,220.879Zm24.472-1.286a3.718,3.718,0,0,0-.178-.44c-.262-.52,1.112-1.637,1.151-1.669Z" transform="translate(-84.127 -213.252)" fill="#fff"/>
</svg>
