<svg xmlns="http://www.w3.org/2000/svg" xmlns:xlink="http://www.w3.org/1999/xlink" width="30" height="21.675" viewBox="0 0 30 21.675">
  <defs>
    <linearGradient id="linear-gradient" x1="0.5" x2="0.5" y2="1" gradientUnits="objectBoundingBox">
      <stop offset="0" stop-color="#06bfb6"/>
      <stop offset="1" stop-color="#5b5388"/>
    </linearGradient>
  </defs>
  <g id="svgexport-10_7_" data-name="svgexport-10 (7)" transform="translate(-1)">
    <g id="Group_4367" data-name="Group 4367" transform="translate(1)">
      <path id="Path_8125" data-name="Path 8125" d="M28.142,15.383a.964.964,0,0,0-.061-.076l-1.051-1.12c.872-.218,1.811-1.025,1.811-1.852,0-.964-1.212-1.306-2.246-1.306-1.081,0-1.207.818-1.22,1.4L22.662,9.539a3.648,3.648,0,0,0-2.378-1.076H9.716A3.649,3.649,0,0,0,7.339,9.539L4.627,12.425c-.014-.578-.14-1.4-1.22-1.4-1.035,0-2.247.342-2.247,1.306,0,.827.939,1.634,1.811,1.852l-1.051,1.12c-.024.025-.04.05-.061.076A6.812,6.812,0,0,0,0,19.84v4.244a4.094,4.094,0,0,0,.963,2.661v1.646A1.693,1.693,0,0,0,2.59,30.138H4.558a1.691,1.691,0,0,0,1.627-1.747V27.97H23.816v.421a1.691,1.691,0,0,0,1.627,1.747H27.41a1.692,1.692,0,0,0,1.627-1.747V26.745A4.09,4.09,0,0,0,30,24.084V19.84A6.8,6.8,0,0,0,28.142,15.383ZM8.335,10.822A2.574,2.574,0,0,1,9.716,10.2H20.285a2.574,2.574,0,0,1,1.381.617l3.557,3.8H4.779ZM1.22,19.2A1.786,1.786,0,0,1,2.876,17.3c.914,0,3.9,1.936,3.9,2.98s-2.987.8-3.9.8A1.783,1.783,0,0,1,1.22,19.2Zm4.965,6.911H5.555l-1.871,0A3.434,3.434,0,0,1,2.54,25.5a1.723,1.723,0,0,1-.31-.347,1.408,1.408,0,0,1-.174-.351A1.719,1.719,0,0,1,2.3,23.411H5.5l2.128,2.7Zm13.406,0H10.41A1.831,1.831,0,0,1,8.676,24.2H21.325A1.831,1.831,0,0,1,19.591,26.11Zm.4-3.219H10.007c-1.041,0-1.886-1.417-1.886-3.164H21.88C21.88,21.476,21.035,22.891,19.994,22.891Zm7.952,1.914a1.417,1.417,0,0,1-.175.35,1.686,1.686,0,0,1-.31.347,3.4,3.4,0,0,1-1.144.61l-1.871,0H22.375l2.13-2.7H27.7A1.715,1.715,0,0,1,27.946,24.805Zm-.82-3.717c-.914,0-3.9.241-3.9-.8s2.987-2.98,3.9-2.98A1.786,1.786,0,0,1,28.781,19.2,1.784,1.784,0,0,1,27.125,21.088Z" transform="translate(0 -8.463)" fill="url(#linear-gradient)"/>
    </g>
  </g>
</svg>
