<svg xmlns="http://www.w3.org/2000/svg" xmlns:xlink="http://www.w3.org/1999/xlink" width="44" height="44" viewBox="0 0 44 44">
  <defs>
    <filter id="Ellipse_477" x="0" y="0" width="44" height="44" filterUnits="userSpaceOnUse">
      <feOffset dy="3" input="SourceAlpha"/>
      <feGaussianBlur stdDeviation="3" result="blur"/>
      <feFlood flood-opacity="0.161"/>
      <feComposite operator="in" in2="blur"/>
      <feComposite in="SourceGraphic"/>
    </filter>
  </defs>
  <g id="Group_4350" data-name="Group 4350" transform="translate(-7672.635 150.308)">
    <g transform="matrix(1, 0, 0, 1, 7672.63, -150.31)" filter="url(#Ellipse_477)">
      <circle id="Ellipse_477-2" data-name="Ellipse 477" cx="13" cy="13" r="13" transform="translate(9 6)" fill="#fff"/>
    </g>
    <g id="Icon_ionic-ios-menu" data-name="Icon ionic-ios-menu" transform="translate(7689.29 -136.22)">
      <path id="Path_8078" data-name="Path 8078" d="M11.816,1.353H.514A.614.614,0,0,1,0,.677H0A.614.614,0,0,1,.514,0h11.3a.614.614,0,0,1,.514.677h0A.614.614,0,0,1,11.816,1.353Z" transform="translate(0.957 0) rotate(45)"/>
      <path id="Path_8080" data-name="Path 8080" d="M11.989,1.353H.521A.616.616,0,0,1,0,.677H0A.616.616,0,0,1,.521,0H11.989a.616.616,0,0,1,.521.677h0A.616.616,0,0,1,11.989,1.353Z" transform="translate(0 8.846) rotate(-45)"/>
    </g>
  </g>
</svg>
