<svg xmlns="http://www.w3.org/2000/svg" xmlns:xlink="http://www.w3.org/1999/xlink" width="30.402" height="45.635" viewBox="0 0 30.402 45.635">
  <defs>
    <clipPath id="clip-path">
      <path id="path1038" d="M53.716-53.713a1.852,1.852,0,0,1-.616-.11,1.529,1.529,0,0,1-.512-.326c-.083.013-.173.034-.3.059.121-.025.211-.046.293-.058a1.605,1.605,0,0,1-.384-.56.816.816,0,0,0-.273-.05.394.394,0,0,0-.38.2.407.407,0,0,0-.042.171.407.407,0,0,1,.042-.171.394.394,0,0,1,.38-.2.815.815,0,0,1,.276.051,1.432,1.432,0,0,1-.113-.455,2.361,2.361,0,0,1,.081-.748,2.486,2.486,0,0,0,.413,1.2,1.141,1.141,0,0,0,.232.238,1.449,1.449,0,0,0,.388.209,1.854,1.854,0,0,0,.537.082,1.478,1.478,0,0,0,.32-.033.855.855,0,0,0,.343-.144,1.456,1.456,0,0,0,.284-.261,2.3,2.3,0,0,1,.272-.268.6.6,0,0,1,.263-.124.538.538,0,0,1,.081-.006.465.465,0,0,1,.1.012l.045.012-.009,0h0a.417.417,0,0,1,.412.312.36.36,0,0,1,0,.115c0-.007,0-.014,0-.021a.4.4,0,0,0-.374-.258.736.736,0,0,0-.554.392,1.415,1.415,0,0,1-.2.276l-.01,0a1.253,1.253,0,0,1-.135.152,1.1,1.1,0,0,1-.463.257,1.523,1.523,0,0,1-.41.055M55.457-55h0s0,0,0,0" transform="translate(-51.506 55.91)"/>
    </clipPath>
  </defs>
  <g id="Group_74743" data-name="Group 74743" transform="translate(10968.417 -6433.349)">
    <path id="path964" d="M15.117-77.127c-.135-.378-1.071-1.409-1.926-.753-.772.592.266,2.558,1.125,3.851a4.261,4.261,0,0,1,.634,2.787c.089.781.75,2.17,1.956,1.879,1.146-.277-.727-5.794-.727-5.794l-1.063-1.97" transform="translate(-10980.916 6534.979)" fill="#e9b49f"/>
    <path id="path966" d="M91.845-77.127c.135-.378,1.071-1.409,1.926-.753.773.592-.265,2.558-1.125,3.851a6.142,6.142,0,0,0-.949,3.178c-.089.781-.465,1.6-1.641,1.488s.727-5.794.727-5.794l1.063-1.97" transform="translate(-11033.467 6534.979)" fill="#e9b49f"/>
    <path id="path968" d="M40.6-115.009l-9.788.078-9.788-.078-2.837,2.029,1.759,14c.367,1.8.605,5.089.82,6.534s2.407,4.255,4.083,6.6,2.837,2.5,3.61,2.732a7.88,7.88,0,0,0,2.352,0,7.879,7.879,0,0,0,2.352,0c.774-.234,1.934-.39,3.61-2.732s3.868-5.152,4.083-6.6.453-4.733.82-6.534l1.759-14L40.6-115.009" transform="translate(-10984.522 6560.255)" fill="#e9b49f"/>
    <path id="path970" d="M40.843-140.308c-1.88-5.62-10.588-8.02-12.984-7.93a15.362,15.362,0,0,0-7.071,1.4c-4.3,1.761-4.5,5.368-4.5,5.368-2.876.726-2.716,4.5-2.237,7.4s1.469,8.609,1.469,8.609l1.406,3.724s-.239-2.177-.423-3.8,1.142-3.094.583-4.327-.879-5.613,1.118-6.919c1.945-1.272,5.193,0,9.587,0s7.642-1.272,9.587,0c2,1.306,1.678,5.685,1.118,6.919s.765,2.705.582,4.327-.423,3.8-.423,3.8l1.407-3.724s.51-2.806.99-5.708.98-5.574-.213-9.14" transform="translate(-10981.504 6583.008)" fill="#9c4b33"/>
    <path id="path972" d="M20.939-144.552c-1.281-1.726.927-5,4.238-6.469a8.093,8.093,0,0,1,5.518-.7s3.25-2.152,4.905-.2a4.9,4.9,0,0,1,4.108,1c2.268,1.6,3.249,1.249,3.924.839a2.065,2.065,0,0,1,0,2.459,4.6,4.6,0,0,1,3,4.157c.214,3.689,1.5,3.923,1.5,3.923s-2.974,1.112-7.266-2.576-19.934-2.431-19.934-2.431" transform="translate(-10986.153 6586.089)" fill="#9c4b33"/>
    <path id="path974" d="M97.558-117.782c1.287,2.5,0,7.505,0,7.505s.159,3.017-1.032,4.8l-.286-4.387.368-9.192.95,1.277" transform="translate(-11037.964 6563.028)" fill="#9c4b33"/>
    <path id="path976" d="M14.785-126.769s-2.225.152-2.781,3.3,1.326,6.034-.422,6.8c0,0,.77.67,1.46.238,0,0,.183,4,.975,5.67l.767-11.074v-4.936" transform="translate(-10980 6568.307)" fill="#9c4b33"/>
    <path id="path978" d="M23.065-114.582c.425,1-1.905,2.366-1.905,3.38s-.668,1.1-.559,2.776-1.28-5.232-1.24-5.253.368-1.175,1.226-1.456,2.477.553,2.477.553" transform="translate(-10985.325 6560.381)" fill="#9c4b33"/>
    <path id="path980" d="M31.11-119.015c.343-.25,2.632-.4,4.962.9s5.192-.177,5.192-.177a7.351,7.351,0,0,0,5.191-.429,5.789,5.789,0,0,0,2.289,1.145c1.611.478.776,2.29,1.308,2.876a2.921,2.921,0,0,1,.313,3.03l1.919-3.069s-.6-5.66-2.355-6.4-4.5-.547-7.889-.351-10.137.644-10.137.644l-.793,1.83" transform="translate(-10993.37 6564.813)" fill="#9c4b33"/>
    <path id="path982" d="M27.5-61.931c.108-.817.243-1.535.864-1.684s.886-.476,1.432-.545a20.654,20.654,0,0,1,2.349.149,16.452,16.452,0,0,1,2.35-.149c.545.069.81.4,1.431.545s.756.867.864,1.684A1.516,1.516,0,0,1,36-60.346c-.432.223-.648.916-1.026,1.089s-1.026.668-1.323.5a.806.806,0,0,0-.427-.063c-.219.005-.434.011-.546-.209a.663.663,0,0,1,.189-.817,3.231,3.231,0,0,0,.675-.371c.351-.2.243-.347.243-.347a3.388,3.388,0,0,1-.945.223,2.323,2.323,0,0,0-.7.074,2.324,2.324,0,0,0-.7-.074,3.388,3.388,0,0,1-.945-.223s-.108.148.243.347a3.23,3.23,0,0,0,.675.371.664.664,0,0,1,.189.817c-.112.219-.327.214-.546.209a.8.8,0,0,0-.426.063c-.3.173-.945-.322-1.323-.5s-.594-.866-1.026-1.089a1.515,1.515,0,0,1-.783-1.585m15.982-7.185a23.49,23.49,0,0,1,.3-3.982,1.45,1.45,0,0,0-.417-1.133s-.686,6.435-.875,6.683a2.365,2.365,0,0,0-.27,1.213,1.753,1.753,0,0,1-.405.983c-.135.116-.378,1.369-.837,1.419s-1.188,1.263-1.323,1.46a7.616,7.616,0,0,1-1.242,1.164c-.216.1-1.1.443-1.1.443s-.169-.074-.034-.718-.135-2.674-.7-3.095a7.007,7.007,0,0,0-2.3-.99c-.972-.272-1.512.223-2.133.223s-1.161-.5-2.134-.223a7.009,7.009,0,0,0-2.3.99c-.567.421-.837,2.451-.7,3.095s-.034.718-.034.718-.886-.344-1.1-.443a7.6,7.6,0,0,1-1.242-1.164c-.135-.2-.864-1.411-1.323-1.46s-.7-1.3-.837-1.419a1.754,1.754,0,0,1-.405-.983,2.363,2.363,0,0,0-.27-1.213c-.189-.248-.739-5.5-.739-5.5s-1.207-1.9-.867-.9c.548,1.615.715,6.168.742,6.837.009.214.07.691.159,1.261h0v.009c.022.139.045.283.07.43.264,1.8.075,2.961,1.043,4.588,1.045,1.757,1.437,1.677,2,2.675s.915.8,1.612,1.517,2.178,1.6,2.962,2.4,2.794.679,3.357.839a4.723,4.723,0,0,0,2.784-.759,5.748,5.748,0,0,1,1.612-.919c.7-.24,1.263-1.4,1.96-1.517s1.35-1.557,1.873-1.917a3.507,3.507,0,0,0,1.481-2.036c.177-.937,1.337-2.672,1.35-4.073s.513-3.587.278-4.509" transform="translate(-10985.852 6532.335)" fill="#9c4b33"/>
    <path id="path984" d="M26.9-120.049l-.232-.023a1.726,1.726,0,0,1-.279-.049,1.909,1.909,0,0,1-.356-.1,3.492,3.492,0,0,1-.795-.406,4.722,4.722,0,0,1-.751-.656,4.734,4.734,0,0,1-.943-1.546,3.363,3.363,0,0,1-.155-.569l-.034-.22.049.217a3.368,3.368,0,0,0,.193.552,4.662,4.662,0,0,0,1.024,1.445,4.527,4.527,0,0,0,.756.575,3.2,3.2,0,0,0,.754.326,1.589,1.589,0,0,0,.312.069,1.314,1.314,0,0,0,.248.028l.233.008-.025.351" transform="translate(-10988.062 6566.15)" fill="#e9b49f"/>
    <path id="path986" d="M27.8-134.749s-.1-.088-.258-.249a5.362,5.362,0,0,1-.577-.755,5.425,5.425,0,0,1-.557-1.22,4.9,4.9,0,0,1-.161-.742,5.585,5.585,0,0,1-.049-.786,4.841,4.841,0,0,1,.112-.784,3.721,3.721,0,0,1,.241-.729,5.184,5.184,0,0,1,.347-.63c.14-.182.268-.356.4-.5s.277-.265.4-.373.243-.181.334-.251c.188-.134.3-.2.3-.2s-.083.1-.233.27c-.073.086-.173.179-.266.3s-.19.269-.3.416-.2.336-.309.514c-.085.193-.185.391-.261.6a4.448,4.448,0,0,0-.18.671,4.5,4.5,0,0,0-.086.71,5.143,5.143,0,0,0,.029.718,6.547,6.547,0,0,0,.108.693c.063.22.106.439.181.638s.141.389.209.563a7.649,7.649,0,0,0,.4.818c.119.191.182.3.182.3" transform="translate(-10990.006 6578.718)" fill="#af5c43"/>
    <path id="path988" d="M28.842-134.57l-.066.267a4.343,4.343,0,0,0-.082.693,3.811,3.811,0,0,0,.08.958,3.9,3.9,0,0,0,.142.519,3.315,3.315,0,0,0,.222.509,4.133,4.133,0,0,0,.281.486c.12.144.207.309.335.438a5.23,5.23,0,0,0,.353.386c.121.117.228.236.344.33l.306.272.25.2.215.182-.267-.1a3.912,3.912,0,0,1-.677-.337,3.049,3.049,0,0,1-.42-.285,3.247,3.247,0,0,1-.429-.371,3.985,3.985,0,0,1-.4-.457,4.487,4.487,0,0,1-.33-.534,3.835,3.835,0,0,1-.233-.582,3.07,3.07,0,0,1-.116-.592,3.12,3.12,0,0,1-.012-.56,2.965,2.965,0,0,1,.081-.493,2.653,2.653,0,0,1,.271-.693c.095-.149.155-.231.155-.231" transform="translate(-10991.465 6573.648)" fill="#af5c43"/>
    <path id="path990" d="M53.588-143.833l.1-.108a1.828,1.828,0,0,1,.285-.295l.235-.189c.09-.063.193-.12.3-.187a2.56,2.56,0,0,1,.361-.185,2.543,2.543,0,0,1,.422-.162,5.97,5.97,0,0,1,.991-.239,6.591,6.591,0,0,1,1.137-.091,7.626,7.626,0,0,1,1.218.087,5.813,5.813,0,0,1,.617.114c.207.04.41.1.613.158a7.544,7.544,0,0,1,1.169.471c.374.2.694.42,1.021.6a5.791,5.791,0,0,0,.966.418,3.834,3.834,0,0,0,.937.174,3.341,3.341,0,0,0,1.422-.2,1.841,1.841,0,0,0,.491-.257l-.1.1a1.83,1.83,0,0,1-.344.238,3.143,3.143,0,0,1-1.47.381,4.594,4.594,0,0,1-2.116-.5c-.346-.179-.688-.383-1.025-.558a7.083,7.083,0,0,0-1.1-.425,5.666,5.666,0,0,0-.575-.157,5.577,5.577,0,0,0-.582-.116,8.751,8.751,0,0,0-1.15-.121,7.321,7.321,0,0,0-2.04.169,3.165,3.165,0,0,0-.413.119,2.436,2.436,0,0,0-.365.131c-.11.05-.218.093-.311.142l-.245.15a2.523,2.523,0,0,0-.329.244l-.114.091" transform="translate(-11008.761 6580.988)" fill="#af5c43"/>
    <path id="path992" d="M47.51-134.482s-.1-.074-.274-.211a2.263,2.263,0,0,1-.291-.269,2.635,2.635,0,0,1-.343-.393l-.178-.238-.159-.273a4.409,4.409,0,0,1-.3-.615,5.148,5.148,0,0,1-.214-.7,4.812,4.812,0,0,1-.111-.745,4.733,4.733,0,0,1,.013-.756,3.54,3.54,0,0,1,.151-.721,3.284,3.284,0,0,1,.269-.639,2.8,2.8,0,0,1,.372-.5l.193-.2a2.4,2.4,0,0,1,.2-.151,1.7,1.7,0,0,1,.345-.213c.205-.1.321-.142.321-.142s-.1.084-.267.217a1.583,1.583,0,0,0-.275.266,2.312,2.312,0,0,0-.295.384,3.688,3.688,0,0,0-.267.494,4.273,4.273,0,0,0-.182.594,4.342,4.342,0,0,0-.1.656,4.411,4.411,0,0,0,0,.687,4.39,4.39,0,0,0,.086.686c.043.225.1.445.159.655.076.206.129.414.218.6a4.408,4.408,0,0,0,.246.519,4.407,4.407,0,0,0,.245.423,2.069,2.069,0,0,0,.22.317c.134.171.205.273.205.273" transform="translate(-11003.313 6578.222)" fill="#af5c43"/>
    <path id="path994" d="M62.976-127.122l-.132-.025a2.559,2.559,0,0,1-.368-.1,3.6,3.6,0,0,1-1.174-.68,3.48,3.48,0,0,1-1.037-1.6,3.129,3.129,0,0,1,.154-2.177,3.925,3.925,0,0,1,.606-.957,3.879,3.879,0,0,1,.836-.736,3.6,3.6,0,0,1,1.9-.556,4.268,4.268,0,0,1,1.361.215,2.527,2.527,0,0,1,.475.195s-.182-.045-.5-.092a5.167,5.167,0,0,0-1.312-.011,3.607,3.607,0,0,0-1.655.616,3.464,3.464,0,0,0-.723.663,3.72,3.72,0,0,0-.547.845,3.173,3.173,0,0,0-.265.949,2.944,2.944,0,0,0,.063.952,3.41,3.41,0,0,0,.827,1.524,3.48,3.48,0,0,0,1.027.776,3.145,3.145,0,0,0,.465.2" transform="translate(-11013.246 6573.223)" fill="#af5c43"/>
    <path id="path996" d="M67.123-121.449s-.092.01-.252.018c-.08-.011-.183-.021-.3-.047a2.608,2.608,0,0,1-.364-.128,3.1,3.1,0,0,1-.8-.523,3.465,3.465,0,0,1-.37-.389,3.245,3.245,0,0,1-.313-.459,3.3,3.3,0,0,1-.223-.509,2.21,2.21,0,0,1-.1-.532,1.7,1.7,0,0,1,.024-.5,1.94,1.94,0,0,1,.132-.431,2.377,2.377,0,0,1,.193-.325,1.049,1.049,0,0,1,.191-.216c.115-.111.182-.169.182-.169l-.1.221a1.312,1.312,0,0,0-.1.246c-.025.1-.069.2-.092.324a2.873,2.873,0,0,0-.036.385,2.016,2.016,0,0,0,.04.423,2.79,2.79,0,0,0,.12.439,2.928,2.928,0,0,0,.207.431,2.771,2.771,0,0,0,.26.41c.094.131.2.254.3.372a4.63,4.63,0,0,0,.636.578c.1.079.2.132.292.193l.241.12.241.074" transform="translate(-11016.155 6567.551)" fill="#af5c43"/>
    <path id="path998" d="M43.239-128.811s0,.033-.005.1a1.606,1.606,0,0,0,0,.27,3.557,3.557,0,0,0,.193.918c.062.184.14.381.231.583a6.132,6.132,0,0,0,.329.619,6.9,6.9,0,0,0,.42.621,5.509,5.509,0,0,0,.514.58,5.426,5.426,0,0,0,.577.52c.208.151.414.3.625.429.223.107.42.251.637.329s.408.189.6.24.373.115.533.168.307.064.425.09c.237.049.375.084.375.084s-.139.007-.385.006c-.123,0-.274,0-.447-.008s-.365-.045-.576-.08a4.747,4.747,0,0,1-.668-.175,5.072,5.072,0,0,1-.715-.3,6.345,6.345,0,0,1-.7-.431,5.792,5.792,0,0,1-.64-.555,5.989,5.989,0,0,1-.544-.639,5.221,5.221,0,0,1-.415-.69,4.344,4.344,0,0,1-.289-.688,4.215,4.215,0,0,1-.162-.645,3.026,3.026,0,0,1-.014-.99,1.06,1.06,0,0,1,.072-.263l.031-.091" transform="translate(-11001.581 6569.705)" fill="#af5c43"/>
    <path id="path1000" d="M38.881-139.215l-.112-.137a3.316,3.316,0,0,1-.3-.4l-.193-.3-.194-.372a5.335,5.335,0,0,1-.366-.938,4.687,4.687,0,0,1-.143-.557,5.209,5.209,0,0,1-.106-.607,6.521,6.521,0,0,1-.047-1.334,5.644,5.644,0,0,1,.283-1.414,4.352,4.352,0,0,1,.721-1.339,3.941,3.941,0,0,1,1.2-.981,3.61,3.61,0,0,1,1.5-.4,6.829,6.829,0,0,1,1.4.085c.431.055.832.119,1.2.135a6.071,6.071,0,0,0,1.007-.021l.414-.077c.127-.03.238-.074.343-.105a3.665,3.665,0,0,0,.468-.19l.165-.074-.151.1a2.683,2.683,0,0,1-.444.252c-.1.043-.212.1-.339.145l-.42.125a4.639,4.639,0,0,1-1.049.113c-.772.013-1.662-.15-2.556-.073a3.376,3.376,0,0,0-1.279.37c-.1.048-.205.128-.308.19l-.156.1-.117.1c-.085.076-.176.148-.258.228l-.224.261a3.9,3.9,0,0,0-.661,1.2,5.817,5.817,0,0,0-.3,1.306,7.991,7.991,0,0,0-.027,1.266,4.953,4.953,0,0,0,.061.588,4.445,4.445,0,0,0,.1.545,7.888,7.888,0,0,0,.268.936l.147.382.153.312a4.694,4.694,0,0,0,.241.431l.09.151" transform="translate(-10997.682 6583.008)" fill="#af5c43"/>
    <path id="path1002" d="M45.456-123.619a1.111,1.111,0,0,0,.077.182,4.7,4.7,0,0,0,.259.437,6.555,6.555,0,0,0,.979,1.151,8.812,8.812,0,0,0,1.209.949c.178.123.333.219.442.289s.17.117.17.117-.075-.008-.206-.031a2.911,2.911,0,0,1-.534-.136,2.165,2.165,0,0,1-.343-.134,2.687,2.687,0,0,1-.366-.188,3.836,3.836,0,0,1-.716-.534,3.589,3.589,0,0,1-.563-.683,2.873,2.873,0,0,1-.326-.69,1.963,1.963,0,0,1-.1-.527.69.69,0,0,1,.018-.2" transform="translate(-11003.181 6566.15)" fill="#af5c43"/>
    <path id="path1004" d="M41.9-117.957a2.349,2.349,0,0,0,.392.49,4.81,4.81,0,0,0,.473.412,6.843,6.843,0,0,0,.593.414c.205.139.422.265.627.386s.4.228.565.333c.337.192.558.352.558.352s-.068,0-.186-.018a3.886,3.886,0,0,1-.481-.087,4.208,4.208,0,0,1-.654-.215,4.256,4.256,0,0,1-.7-.364,3.476,3.476,0,0,1-.615-.5,2.512,2.512,0,0,1-.237-.279,1.968,1.968,0,0,1-.171-.28,1.383,1.383,0,0,1-.155-.459.674.674,0,0,1-.006-.181" transform="translate(-11000.756 6562.273)" fill="#af5c43"/>
    <path id="path1006" d="M16.76-121.668l-.073.064a.744.744,0,0,0-.127.222,3.173,3.173,0,0,0-.134.91c-.039.768-.012,1.807-.067,2.853a9.158,9.158,0,0,1-.52,2.857,2.546,2.546,0,0,1-.531.829,1.49,1.49,0,0,1-.3.223l.065-.071a1.378,1.378,0,0,0,.162-.209,2.758,2.758,0,0,0,.337-.853,16.527,16.527,0,0,0,.3-2.8,21.078,21.078,0,0,1,.278-2.862,2.807,2.807,0,0,1,.327-.917.574.574,0,0,1,.285-.245" transform="translate(-10982.344 6564.814)" fill="#af5c43"/>
    <path id="path1008" d="M14.53-117.957a4.042,4.042,0,0,0-.1.582,7.918,7.918,0,0,0-.007,1.246c.01.228.033.456.046.673s.033.421.044.6a5.9,5.9,0,0,1,.013.6,2.979,2.979,0,0,1-.288-.546,4.027,4.027,0,0,1-.3-1.3,3.465,3.465,0,0,1,.04-.726,2.251,2.251,0,0,1,.186-.615,1.42,1.42,0,0,1,.367-.513" transform="translate(-10981.61 6562.273)" fill="#af5c43"/>
    <path id="path1010" d="M21.986-111.9s-.116.081-.3.239a3.038,3.038,0,0,0-.307.3c-.117.115-.225.268-.354.419s-.243.337-.356.534a6.584,6.584,0,0,0-.33.628,6.474,6.474,0,0,0-.264.705,6.24,6.24,0,0,0-.192.751,6.892,6.892,0,0,0-.1.77c-.01.128-.02.255-.029.381s0,.251,0,.373a6.468,6.468,0,0,0,.03.71,5.755,5.755,0,0,0,.067.638c.032.2.045.382.073.543l.082.416c.044.232.063.368.063.368s-.06-.122-.155-.343a6.259,6.259,0,0,1-.34-.932l-.091-.309-.063-.338a4.393,4.393,0,0,1-.1-.738,4.694,4.694,0,0,1-.012-.8,7.06,7.06,0,0,1,.092-.825,6.642,6.642,0,0,1,.224-.8,5.125,5.125,0,0,1,.325-.743,4.639,4.639,0,0,1,.413-.641,4.6,4.6,0,0,1,.448-.518,4.1,4.1,0,0,1,.822-.619,1.793,1.793,0,0,1,.258-.124l.093-.039" transform="translate(-10985.283 6558.123)" fill="#af5c43"/>
    <path id="path1012" d="M23.428-109.817a5.612,5.612,0,0,0-.685.569,5.309,5.309,0,0,0-.583.654,3.97,3.97,0,0,0-.269.4,3.356,3.356,0,0,0-.231.437c-.076.148-.123.307-.186.458l-.131.463c-.024.155-.053.3-.081.447s-.027.282-.045.409c-.037.256-.025.473-.038.627s-.018.245-.018.245-.031-.083-.079-.233a2.9,2.9,0,0,1-.147-.634,3.223,3.223,0,0,1-.04-.436c0-.156.006-.321.021-.492.033-.168.056-.347.1-.523.064-.171.111-.352.192-.52a3.78,3.78,0,0,1,.276-.484,2.964,2.964,0,0,1,.337-.425,3.426,3.426,0,0,1,.37-.346,3.237,3.237,0,0,1,.373-.26,2.624,2.624,0,0,1,.86-.36" transform="translate(-10986.377 6556.7)" fill="#af5c43"/>
    <path id="path1014" d="M74.7-126.894l-.077-.138a2.682,2.682,0,0,1-.174-.414,3.25,3.25,0,0,1-.111-1.6,2.821,2.821,0,0,1,.422-1.025,2.573,2.573,0,0,1,.957-.852,3.666,3.666,0,0,1,1.336-.377,5.541,5.541,0,0,1,1.415.066,3.038,3.038,0,0,1,1.328.58,3.437,3.437,0,0,1,.866,1.04,10.008,10.008,0,0,1,.524,1.08c.151.344.3.663.451.946a5.3,5.3,0,0,0,.916,1.27,5.125,5.125,0,0,0,.456.405l-.14-.081a3.193,3.193,0,0,1-.382-.255,4.642,4.642,0,0,1-1.1-1.206c-.369-.562-.7-1.272-1.109-1.951a3.361,3.361,0,0,0-.784-.894,2.692,2.692,0,0,0-1.119-.477,5.007,5.007,0,0,0-1.286-.076,3.26,3.26,0,0,0-1.18.288,2.386,2.386,0,0,0-.869.682,2.549,2.549,0,0,0-.444.893,3.349,3.349,0,0,0-.061,1.521,3.594,3.594,0,0,0,.108.425l.053.148" transform="translate(-11022.931 6571.42)" fill="#af5c43"/>
    <path id="path1016" d="M84.742-133.65s.108-.021.3-.048a3.233,3.233,0,0,1,.813.005,2.639,2.639,0,0,1,.538.133,2.5,2.5,0,0,1,.558.27,3.469,3.469,0,0,1,.523.393,5.236,5.236,0,0,1,.451.484,6.324,6.324,0,0,1,.379.529c.119.177.208.366.308.54a7.843,7.843,0,0,1,.422,1,6.585,6.585,0,0,1,.216.733l.064.282-.155-.248-.383-.658c-.154-.272-.344-.582-.544-.913a10.163,10.163,0,0,0-.694-.979,4.779,4.779,0,0,0-.4-.451,4.344,4.344,0,0,0-.437-.377,2.861,2.861,0,0,0-.458-.287,3.586,3.586,0,0,0-.455-.192,5.142,5.142,0,0,0-.748-.172l-.3-.045" transform="translate(-11030.091 6573.067)" fill="#af5c43"/>
    <path id="path1018" d="M95.351-132.468a1.011,1.011,0,0,1,.226.038,1.9,1.9,0,0,1,.55.257,1.937,1.937,0,0,1,.314.259,2.436,2.436,0,0,1,.289.347,3.1,3.1,0,0,1,.411.87,3.447,3.447,0,0,1,.109.469,2.8,2.8,0,0,1,.053.46,4.793,4.793,0,0,1-.012.813,2.247,2.247,0,0,1-.047.32l-.045.245c-.026.135-.047.212-.047.212s-.012-.079-.025-.216c-.005-.068-.012-.15-.02-.245s-.011-.2-.028-.316c-.034-.23-.044-.5-.1-.779a4.157,4.157,0,0,0-.08-.431,3.288,3.288,0,0,0-.113-.434,3.733,3.733,0,0,0-.334-.809,2.817,2.817,0,0,0-.462-.613,1.98,1.98,0,0,0-.64-.448" transform="translate(-11037.355 6572.208)" fill="#af5c43"/>
    <path id="path1020" d="M79.971-123.619s-.059.048-.165.126a1.326,1.326,0,0,0-.274.4,1.6,1.6,0,0,0-.138.642,2.091,2.091,0,0,0,.02.369,1.868,1.868,0,0,0,.089.374,2.492,2.492,0,0,0,.137.365c.072.108.109.235.189.335a3.332,3.332,0,0,0,.213.3,3.324,3.324,0,0,0,.216.26l.2.217.167.159.144.149s-.072-.023-.2-.071a2.223,2.223,0,0,1-.5-.253,2.511,2.511,0,0,1-.6-.526,2.493,2.493,0,0,1-.26-.371,2.815,2.815,0,0,1-.183-.432,2.348,2.348,0,0,1-.089-.462,1.78,1.78,0,0,1,.022-.457,1.691,1.691,0,0,1,.12-.412,1.411,1.411,0,0,1,.209-.329,1.159,1.159,0,0,1,.241-.225,1.663,1.663,0,0,1,.229-.119c.131-.03.207-.042.207-.042" transform="translate(-11026.117 6566.15)" fill="#af5c43"/>
    <path id="path1022" d="M77.721-121.668s.01.2.053.468c.019.137.048.292.084.454a3.088,3.088,0,0,0,.157.489,2.345,2.345,0,0,0,.234.454,2.742,2.742,0,0,0,.278.366c.178.213.335.341.328.349s-.049-.012-.132-.042a1.478,1.478,0,0,1-.335-.155.992.992,0,0,1-.2-.143,1.259,1.259,0,0,1-.2-.193,1.745,1.745,0,0,1-.315-.509,1.975,1.975,0,0,1-.134-.572,1.938,1.938,0,0,1,.025-.5,1.551,1.551,0,0,1,.157-.463" transform="translate(-11025.155 6564.814)" fill="#af5c43"/>
    <path id="path1024" d="M92.285-111.219l0,.092a1.171,1.171,0,0,0,0,.256,2.607,2.607,0,0,0,.072.378c.041.146.084.31.144.489.227.713.591,1.654.883,2.628a13.528,13.528,0,0,1,.355,1.455c.053.233.066.47.094.688s.017.433.016.626a3.679,3.679,0,0,1-.074.528,3.68,3.68,0,0,1-.129.391c-.12.2-.19.3-.19.3s.035-.129.1-.331a3.662,3.662,0,0,0,.039-.385c.007-.147-.023-.319-.026-.5-.03-.182-.059-.38-.1-.587s-.09-.426-.154-.651c-.117-.45-.255-.93-.4-1.41a21.6,21.6,0,0,1-.686-2.7,3.568,3.568,0,0,1-.05-.523,2.635,2.635,0,0,1,.014-.413.858.858,0,0,1,.066-.249l.03-.086" transform="translate(-11035.178 6557.659)" fill="#af5c43"/>
    <path id="path1026" d="M95.35-106.212l.354.758a8.464,8.464,0,0,1,.618,1.739,4.423,4.423,0,0,1,.1,1,2.878,2.878,0,0,1-.135.873,1.786,1.786,0,0,1-.132.329,1.128,1.128,0,0,1-.135.236c-.085.125-.137.192-.137.192s.017-.083.047-.227a1.638,1.638,0,0,0,.045-.254,3.124,3.124,0,0,0,.034-.326,4.812,4.812,0,0,0-.019-.809c-.006-.147-.046-.3-.06-.454-.03-.155-.053-.312-.093-.468-.131-.627-.313-1.26-.406-1.754a4.794,4.794,0,0,1-.084-.6c0-.147,0-.231,0-.231" transform="translate(-11037.354 6554.231)" fill="#af5c43"/>
    <path id="path1028" d="M54.209-132.9l-.16.18a2.4,2.4,0,0,0-.288.513,2.884,2.884,0,0,0-.2.782,3.8,3.8,0,0,0-.027.451,2.852,2.852,0,0,0,.041.463,3.736,3.736,0,0,0,.24.891c.07.132.113.273.186.393s.126.243.2.344.133.2.189.286l.162.213.14.194s-.077-.044-.208-.127a2.8,2.8,0,0,1-.506-.4,2.919,2.919,0,0,1-.287-.324,3.226,3.226,0,0,1-.268-.405,3.372,3.372,0,0,1-.208-.476,3.16,3.16,0,0,1-.125-.523,3.3,3.3,0,0,1-.028-.536,2.743,2.743,0,0,1,.077-.515,2.325,2.325,0,0,1,.157-.461,2.084,2.084,0,0,1,.223-.378,1.753,1.753,0,0,1,.474-.457c.138-.071.22-.107.22-.107" transform="translate(-11008.398 6572.501)" fill="#af5c43"/>
    <path id="path1030" d="M55.017-129.386a1.781,1.781,0,0,0-.1.395,2.323,2.323,0,0,0,.031.826,3.375,3.375,0,0,0,.116.434c.045.14.1.269.138.384l.106.282c.025.07.036.113.036.113a1.087,1.087,0,0,1-.1-.074,1.974,1.974,0,0,1-.23-.219,1.816,1.816,0,0,1-.255-.368,1.834,1.834,0,0,1-.178-.486,1.534,1.534,0,0,1-.015-.523,1.265,1.265,0,0,1,.146-.434.955.955,0,0,1,.3-.33" transform="translate(-11009.424 6570.099)" fill="#af5c43"/>
    <path id="path1032" d="M52.477-134.532a4,4,0,0,1-.165-.529,5.687,5.687,0,0,1-.121-.626,3.934,3.934,0,0,1-.045-.832,3.967,3.967,0,0,1,.166-.992,2.461,2.461,0,0,1,.609-.994,2.7,2.7,0,0,1,1.108-.654c.212-.057.43-.09.648-.135.225-.027.42-.039.632-.06a8.6,8.6,0,0,1,1.29.032,6.81,6.81,0,0,1,1.22.244c.77.232,1.418.558,2,.751.291.1.559.185.8.247s.46.1.638.14l.567.087s-.209.009-.578,0c-.183-.016-.409-.019-.664-.059a5.547,5.547,0,0,1-.85-.167c-.615-.16-1.3-.414-2.037-.606a7.716,7.716,0,0,0-1.149-.191,8.282,8.282,0,0,0-1.2-.015c-.2.017-.427.029-.614.05-.189.039-.383.064-.567.11a2.4,2.4,0,0,0-.944.513,2.4,2.4,0,0,0-.578.817,3.693,3.693,0,0,0-.227.9,6.116,6.116,0,0,0-.048.8,5.53,5.53,0,0,0,.033.624c.034.346.071.544.071.544" transform="translate(-11007.77 6576.93)" fill="#af5c43"/>
    <g id="g1034" transform="translate(-10955.829 6463.88)">
      <g id="g1036" transform="translate(0 0)" clip-path="url(#clip-path)">
        <path id="path1042" d="M51.506-53.713h4.364v-2.2H51.506Z" transform="translate(-51.506 55.91)" fill="#d29b86"/>
      </g>
    </g>
    <path id="path1044" d="M64.174-55.565s.047-.029.124-.085a2.058,2.058,0,0,0,.3-.266,1.29,1.29,0,0,0,.285-.488,1.232,1.232,0,0,0,.033-.153l.011-.092v-.075a1.286,1.286,0,0,0-.046-.335,6.391,6.391,0,0,0-.542-1.184,3.889,3.889,0,0,1-.19-.4,1.177,1.177,0,0,1-.054-.164s.029.054.086.14.144.2.244.347a3.892,3.892,0,0,1,.64,1.192,1.556,1.556,0,0,1,.048.411,1.083,1.083,0,0,1-.006.111l-.016.091a1.49,1.49,0,0,1-.053.194,1.235,1.235,0,0,1-.376.513,1.321,1.321,0,0,1-.348.2.734.734,0,0,1-.14.043" transform="translate(-11015.954 6521.775)" fill="#d29b86"/>
    <path id="path1046" d="M50.085-55.06a1.36,1.36,0,0,1-.452-.275,1.631,1.631,0,0,1-.368-.473,1.35,1.35,0,0,1-.118-.355,1.351,1.351,0,0,1-.013-.4,2.383,2.383,0,0,1,.562-1.194,2.728,2.728,0,0,1,.388-.391s-.13.189-.306.479a3.038,3.038,0,0,0-.452,1.138,1.081,1.081,0,0,0,0,.321,1.422,1.422,0,0,0,.084.3,1.862,1.862,0,0,0,.288.472,2.6,2.6,0,0,0,.382.378" transform="translate(-11005.705 6521.323)" fill="#d29b86"/>
    <path id="path1048" d="M53.961-69.516s.043-.288.092-.717.1-1,.116-1.574c.006-.286,0-.571-.011-.839-.013-.133-.011-.264-.028-.385s-.023-.238-.042-.344c-.038-.209-.062-.389-.1-.51l-.044-.195.08.182a3.451,3.451,0,0,1,.17.5,5.68,5.68,0,0,1,.133.737,7.2,7.2,0,0,1,.035.857c-.013.291-.031.583-.07.853s-.089.52-.133.734a5.766,5.766,0,0,1-.2.7" transform="translate(-11009.006 6532.23)" fill="#d29b86"/>
    <path id="path1050" d="M61.991-68.187a7.581,7.581,0,0,1-.272-.8c-.066-.246-.148-.533-.209-.85s-.116-.656-.159-1a10.161,10.161,0,0,1-.055-1.018,8.037,8.037,0,0,1,.054-.889,4.783,4.783,0,0,1,.117-.613l.06-.227-.023.236c-.025.149-.029.365-.045.617-.007.126,0,.266-.006.412s.012.3.013.459c.014.318.041.656.077.993.076.674.187,1.343.281,1.844s.167.835.167.835" transform="translate(-11014.038 6531.89)" fill="#d29b86"/>
    <path id="path1052" d="M51.974-50.744c-.259,0-.469-.137-.468-.349,0,.212.209.349.468.349a.751.751,0,0,0,.136-.012l.181-.035-.181.035a.751.751,0,0,1-.136.012" transform="translate(-11007.335 6516.492)" fill="#c38976"/>
    <path id="path1054" d="M51.974-51.541c-.259,0-.469-.137-.468-.349a.407.407,0,0,1,.042-.171.394.394,0,0,1,.38-.2.816.816,0,0,1,.273.05,1.605,1.605,0,0,0,.384.56c-.082.013-.172.033-.293.058l-.181.035a.751.751,0,0,1-.136.012" transform="translate(-11007.335 6517.289)" fill="#b07665"/>
    <path id="path1056" d="M62.386-51.209a1.7,1.7,0,0,1-.274-.03,1.629,1.629,0,0,0-.266-.03.591.591,0,0,0-.139.015l.011-.012a.508.508,0,0,1,.128-.016,1.406,1.406,0,0,1,.266.036,1.44,1.44,0,0,0,.273.036.552.552,0,0,0,.208-.038.552.552,0,0,0,.256-.406.443.443,0,0,1-.256.413.661.661,0,0,1-.208.031" transform="translate(-11014.319 6516.875)" fill="#c38976"/>
    <path id="path1058" d="M62.41-51.815a1.44,1.44,0,0,1-.273-.036,1.406,1.406,0,0,0-.266-.036.508.508,0,0,0-.128.016,1.415,1.415,0,0,0,.2-.276.736.736,0,0,1,.554-.392.4.4,0,0,1,.374.258c0,.007,0,.014,0,.021a.552.552,0,0,1-.256.406.552.552,0,0,1-.208.038" transform="translate(-11014.344 6517.481)" fill="#b07665"/>
    <path id="path1060" d="M87.387-78.151l2.825-.07.478-.44-3.672-.586.369,1.1" transform="translate(-11031.65 6535.769)" fill="#6f7375"/>
    <path id="path1062" d="M89.244-77.932a4.755,4.755,0,0,0-.131-.98l3.011.481-.478.44-1,.025-1.407.034" transform="translate(-11033.085 6535.539)" fill="#5d6162"/>
    <path id="path1064" d="M21.064-78.151l-2.825-.07-.479-.44,3.672-.586-.369,1.1" transform="translate(-10984.229 6535.769)" fill="#6f7375"/>
    <path id="path1066" d="M20.65-77.935l-1.407-.035-1-.024h-.009l-.479-.44,3.02-.482a4.761,4.761,0,0,0-.131.982" transform="translate(-10984.229 6535.542)" fill="#5d6162"/>
    <path id="path1068" d="M55.85-75.012c-.018-.034-.453-.844-1.981-.785-1.512.058-1.814.768-1.816.774l-.2-.076c.013-.034.34-.844,2-.909a2.207,2.207,0,0,1,2.176.9l-.187.1" transform="translate(-11007.575 6533.552)" fill="#6f7375"/>
    <path id="path1070" d="M47.98-80.243H54.9v-.42H47.98Z" transform="translate(-11004.921 6536.739)" fill="#6f7375"/>
    <path id="path1072" d="M56.9-80.243h-2.27a2.843,2.843,0,0,0,.027-.374c0-.016,0-.031,0-.047H56.87c0,.016,0,.031,0,.047a2.884,2.884,0,0,0,.027.374" transform="translate(-11009.472 6536.739)" fill="#5d6162"/>
    <path id="path1074" d="M35.924-84.778c-.043-.994-1.232-1.99-4.915-1.833a3.316,3.316,0,0,0-3.422,3.835,3.636,3.636,0,0,0,3.737,3.53,3.5,3.5,0,0,0,2.079-.8,6.981,6.981,0,0,0,2.522-4.731" transform="translate(-10990.953 6540.821)" fill="#c3d5e3"/>
    <path id="path1076" d="M40.724-76.924l.013-.042a3.543,3.543,0,0,0,1.3-.68,6.982,6.982,0,0,0,2.522-4.731,1.244,1.244,0,0,0-.124-.49l.038.047h0l-.018-.028a1.084,1.084,0,0,1,.255.653,6.78,6.78,0,0,1-2.446,4.56,3.293,3.293,0,0,1-1.543.711" transform="translate(-10999.952 6538.247)" fill="#b5cadd"/>
    <path id="path1078" d="M28.753-80.66a3.527,3.527,0,0,1-.5-1.651h0s0,0,0-.007,0-.006,0-.009q-.005-.123-.005-.242a3.081,3.081,0,0,1,3.226-3.375q.368-.016.712-.016l.293,0,0,.007q-.284,0-.592.015A3.316,3.316,0,0,0,28.461-82.1a3.761,3.761,0,0,0,.328,1.389l-.035.051" transform="translate(-10991.411 6540.365)" fill="#b5cadd"/>
    <path id="path1080" d="M39.427-86.174c-.959,2.044-2.5,5.33-3.335,7.122a3.493,3.493,0,0,0,1.059.117c.112,0,.222-.016.331-.032.552-1.722,1.582-5.061,2.226-7.154-.089-.019-.183-.037-.28-.054" transform="translate(-10996.781 6540.512)" fill="#e6eef4"/>
    <path id="path1082" d="M33.437-86.6c-1.357,1.922-3.1,4.4-4,5.692a3.658,3.658,0,0,0,1.21,1.185L34-86.575c-.178-.014-.365-.023-.561-.029" transform="translate(-10992.223 6540.806)" fill="#e6eef4"/>
    <path id="path1084" d="M30.561-86.857c-2.141.091-3.315,1.41-3.221,3.617a3.428,3.428,0,0,0,3.518,3.328,3.276,3.276,0,0,0,1.954-.754,6.78,6.78,0,0,0,2.446-4.56c-.049-1.145-1.8-1.755-4.7-1.632m.315,7.365a3.85,3.85,0,0,1-3.956-3.731,3.533,3.533,0,0,1,3.623-4.054c4.548-.194,5.106,1.357,5.135,2.034a7.171,7.171,0,0,1-2.611,4.912,3.682,3.682,0,0,1-2.191.84" transform="translate(-10990.498 6541.278)" fill="#6f7375"/>
    <path id="path1086" d="M48.981-84.577a2.905,2.905,0,0,0-1.622-.787h0a2.934,2.934,0,0,1,1.616.776l.006.012" transform="translate(-11004.496 6539.958)" fill="#a1b1bd"/>
    <path id="path1088" d="M52.529-82.845l-.038-.047-.006-.012.026.031.018.028" transform="translate(-11008.005 6538.272)" fill="#97a9b9"/>
    <path id="path1090" d="M44.469-85.766q-.406-.068-.878-.1h0q.472.032.878.1h0" transform="translate(-11001.915 6540.301)" fill="#a1b1bd"/>
    <path id="path1092" d="M28.751-80.657a3.539,3.539,0,0,1-.5-1.654,3.527,3.527,0,0,0,.5,1.651l0,0m-.5-1.655s0,0,0-.007,0,0,0,.007m-.006-.258a3.081,3.081,0,0,1,3.226-3.375q.37-.016.714-.016l.291,0h0l-.293,0q-.343,0-.712.016a3.081,3.081,0,0,0-3.226,3.375" transform="translate(-10991.411 6540.365)" fill="#97a9b9"/>
    <path id="path1094" d="M46.686-85.491q-.15-.032-.31-.058h0c.107.018.21.037.31.058h0" transform="translate(-11003.823 6540.084)" fill="#bdc5c9"/>
    <path id="path1096" d="M29.955-80.481l-.051-.071q-.031-.049-.061-.1l0,0q.053.088.11.172m4.223-5.443q-.291-.019-.606-.026h0q.315.006.606.026h0" transform="translate(-10992.503 6540.358)" fill="#bdc5c9"/>
    <path id="path1098" d="M28.662-80.78a3.528,3.528,0,0,1-.629-1.871,3.2,3.2,0,0,1,3.221-3.617q.369-.016.712-.016c1.992,0,3.334.393,3.8,1.1l-.026-.031a2.934,2.934,0,0,0-1.616-.776c-.1-.021-.2-.041-.31-.058q-.406-.067-.878-.1-.291-.02-.606-.026l-.291,0q-.345,0-.714.016A3.081,3.081,0,0,0,28.1-82.791q0,.119.005.242s0,.006,0,.009,0,0,0,.007h0a3.539,3.539,0,0,0,.5,1.654q.03.05.061.1" transform="translate(-10991.26 6540.586)" fill="#5d6162"/>
    <path id="path1100" d="M39.225-69.788l.08,0a3.682,3.682,0,0,0,2.191-.84,6.588,6.588,0,0,0,1.954-2.495h0A6.588,6.588,0,0,1,41.5-70.631a3.682,3.682,0,0,1-2.191.84l-.08,0" transform="translate(-10998.927 6531.577)" fill="#bf9586"/>
    <path id="path1102" d="M32.229-76.86a3.773,3.773,0,0,1-3.106-1.665,3.77,3.77,0,0,0,3.036,1.563c.053,0,.105,0,.158,0a3.682,3.682,0,0,0,2.191-.84,7.17,7.17,0,0,0,2.611-4.912,1.486,1.486,0,0,0-.243-.738,1.5,1.5,0,0,1,.313.84c0,.028,0,.057,0,.087a2.843,2.843,0,0,1-.027.374h0a6.867,6.867,0,0,1-.632,1.957A6.588,6.588,0,0,1,34.578-77.7a3.682,3.682,0,0,1-2.191.84l-.08,0h-.079" transform="translate(-10992.009 6538.65)" fill="#5d6162"/>
    <path id="path1104" d="M27.45-84.021a3.3,3.3,0,0,1,3.164-2.82,3.6,3.6,0,0,0-3.164,2.82m3.164-2.82c.066,0,.116-.006.146-.006H30.8q-.092,0-.181,0" transform="translate(-10990.864 6540.972)" fill="#b4b6b4"/>
    <path id="path1106" d="M62.408-84.778c.043-.994,1.232-1.99,4.915-1.833a3.316,3.316,0,0,1,3.422,3.835,3.636,3.636,0,0,1-3.737,3.53,3.5,3.5,0,0,1-2.078-.8,6.98,6.98,0,0,1-2.522-4.731" transform="translate(-11014.798 6540.821)" fill="#c3d5e3"/>
    <path id="path1108" d="M66.691-77.011a3.28,3.28,0,0,1-.873-.4l.062-.127a3.55,3.55,0,0,0,.841.467l-.03.065M64.6-78.518A6.778,6.778,0,0,1,63.073-82.2a1.086,1.086,0,0,1,.254-.652l-.017.027.039-.047a1.243,1.243,0,0,0-.124.491,6.916,6.916,0,0,0,1.485,3.7l-.108.155" transform="translate(-11015.254 6538.248)" fill="#b5cadd"/>
    <path id="path1110" d="M77.777-80.247a3.747,3.747,0,0,0,.578-1.852,3.674,3.674,0,0,0-.9-2.838l.076-.246a3.283,3.283,0,0,1,1.037,2.614q0,.119-.005.242s0,.006,0,.01a.028.028,0,0,0,0,0s0,0,0,.005,0,0,0,.005a.005.005,0,0,0,0,0,3.527,3.527,0,0,1-.609,1.814l.054-.075a3.476,3.476,0,0,1-.228.315m-.657-4.983a3.2,3.2,0,0,0-.738-.411l.06-.123a3.182,3.182,0,0,1,.767.345l-.088.189m-1.3-.587a4.855,4.855,0,0,0-.885-.117q-.39-.016-.743-.016h-.061q.243-.009.5-.009.343,0,.712.016a4.9,4.9,0,0,1,.531.05l-.054.076" transform="translate(-11022.824 6540.365)" fill="#b5cadd"/>
    <path id="path1112" d="M77.392-84.85c-.957,2.039-2.34,4.994-3.126,6.674a3.463,3.463,0,0,0,.737.137c.09,0,.179.012.27.009h.057c.105,0,.209-.015.311-.029.5-1.574,1.407-4.494,2.05-6.583a2.932,2.932,0,0,0-.3-.207" transform="translate(-11022.919 6539.605)" fill="#e6eef4"/>
    <path id="path1114" d="M68.8-79.609l3.236-6.607a4.134,4.134,0,0,0-.528-.129c-1.348,1.91-3.058,4.335-3.946,5.61.037.06.081.113.122.17a4.566,4.566,0,0,0,.776.711,3.723,3.723,0,0,0,.34.245" transform="translate(-11018.329 6540.628)" fill="#e6eef4"/>
    <path id="path1116" d="M62.161-85.226a6.78,6.78,0,0,0,2.446,4.56,3.276,3.276,0,0,0,1.954.754,3.429,3.429,0,0,0,3.518-3.328c.094-2.207-1.08-3.525-3.221-3.617-2.892-.124-4.648.486-4.7,1.632m2.191,4.894a7.169,7.169,0,0,1-2.611-4.912c.029-.676.587-2.228,5.135-2.034A3.533,3.533,0,0,1,70.5-83.223a3.85,3.85,0,0,1-3.955,3.731,3.681,3.681,0,0,1-2.191-.84" transform="translate(-11014.342 6541.278)" fill="#6f7375"/>
    <path id="path1118" d="M86.253-72.578a3.527,3.527,0,0,0,.609-1.814,3.534,3.534,0,0,1-.555,1.739l-.054.075m.609-1.815s0,0,0-.005,0,0,0,.005m0-.011a.028.028,0,0,1,0,0,.028.028,0,0,0,0,0" transform="translate(-11031.126 6532.455)" fill="#97a9b9"/>
    <path id="path1120" d="M63.95-84.966l.006-.011c.491-.563,1.6-.9,3.2-.955h0c-1.606.057-2.723.4-3.209.966" transform="translate(-11015.855 6540.346)" fill="#a1b1bd"/>
    <path id="path1122" d="M63.828-82.845l.017-.027.027-.032-.006.011-.039.047" transform="translate(-11015.771 6538.272)" fill="#97a9b9"/>
    <path id="path1124" d="M75.861-85.893a4.9,4.9,0,0,0-.531-.05q-.369-.016-.712-.016-.257,0-.5.009h0q.244-.009.5-.009.344,0,.714.016a4.9,4.9,0,0,1,.531.05h0" transform="translate(-11022.814 6540.365)" fill="#97a9b9"/>
    <path id="path1126" d="M70.99-80.784a3.533,3.533,0,0,0,.555-1.739.005.005,0,0,1,0,0s0,0,0-.005v-.005a.028.028,0,0,1,0,0s0-.006,0-.01q.005-.123.005-.242a3.283,3.283,0,0,0-1.037-2.614,2.785,2.785,0,0,0-.321-.236,3.182,3.182,0,0,0-.767-.345,4.068,4.068,0,0,0-.57-.128,4.894,4.894,0,0,0-.531-.05q-.37-.016-.714-.016-.259,0-.5.009c-1.595.057-2.708.392-3.2.955l-.027.032c.466-.7,1.808-1.1,3.8-1.1q.343,0,.712.016a3.2,3.2,0,0,1,3.221,3.617,3.528,3.528,0,0,1-.626,1.867" transform="translate(-11015.81 6540.586)" fill="#5d6162"/>
    <path id="path1128" d="M61.745-80.85c0-.009,0-.018,0-.027,0,.009,0,.018,0,.027" transform="translate(-11014.346 6536.885)" fill="#bf9586"/>
    <path id="path1130" d="M66.7-76.86c-.053,0-.106,0-.159,0h0a3.681,3.681,0,0,1-2.191-.84,7.246,7.246,0,0,1-2.613-4.825c0-.03,0-.059,0-.087h0c0-.009,0-.018,0-.027a1.5,1.5,0,0,1,.311-.813,1.485,1.485,0,0,0-.242.738,7.169,7.169,0,0,0,2.611,4.912,3.681,3.681,0,0,0,2.191.84c.053,0,.106,0,.159,0a3.77,3.77,0,0,0,3.036-1.563A3.774,3.774,0,0,1,66.7-76.86" transform="translate(-11014.342 6538.65)" fill="#5d6162"/>
    <path id="path1132" d="M62.4-85.05a1.686,1.686,0,0,1,.76-1.137,5.8,5.8,0,0,1,2.108-.575,6.348,6.348,0,0,0-2.108.728,1.862,1.862,0,0,0-.76.984" transform="translate(-11014.793 6540.914)" fill="#b4b6b4"/>
    <path id="path1134" d="M48.748-40.227c.317.074.741-.818,1.79-.976a9.738,9.738,0,0,1,1.434.021c.686.01.92-.182,1.428.074.609.308.931.828,1.449.941a2.77,2.77,0,0,1-1.6,1.509c-.431.15-.607-.023-1.379-.049-.839-.028-1.076.082-1.521-.121a4.19,4.19,0,0,1-1.6-1.4" transform="translate(-11005.446 6509.747)" fill="#d38e83"/>
    <path id="path1136" d="M49.645-38.276s.09-.008.238-.035.355-.086.609-.156a1.76,1.76,0,0,1,.443-.076.859.859,0,0,1,.137.011l.124.029c.074.016.136.024.219.035.315.035.662.058,1,.064.171,0,.343.007.509,0a2.247,2.247,0,0,0,.458-.056,1.591,1.591,0,0,1,.251-.07,1,1,0,0,1,.265,0,2.786,2.786,0,0,1,.429.092c.252.066.461.122.612.147l.237.047a4.192,4.192,0,0,1-.885-.024c-.131-.015-.272-.034-.408-.037a.758.758,0,0,0-.2.023,1.959,1.959,0,0,0-.206.075,2.049,2.049,0,0,1-.537.1c-.178.013-.357.014-.536.013a6.919,6.919,0,0,1-1.044-.1,1.923,1.923,0,0,1-.253-.061l-.1-.035-.09-.015a2.02,2.02,0,0,0-.4.021,4.363,4.363,0,0,1-.641.045,1.489,1.489,0,0,1-.243-.024" transform="translate(-11006.061 6507.899)" fill="#a4645b"/>
  </g>
</svg>
