<svg xmlns="http://www.w3.org/2000/svg" xmlns:xlink="http://www.w3.org/1999/xlink" width="36.874" height="47.831" viewBox="0 0 36.874 47.831">
  <defs>
    <clipPath id="clip-path">
      <path id="path4796" d="M336.978-303.6c2.207-5.344.647-13.327-3.206-16.486-4.992-4.093-11-4.858-17.14-3.6a13.223,13.223,0,0,0-9.83,8.142c-.14.474-.034-.019-.14.474.371,1.135,2.257,1.926,4.142,1.81,4.788-.294,7.011-.951,10.671.076s2.1,4.227,4.428,5.657,3.241,2.082,2.716,3.4.377,2.039.188,3.739a3.03,3.03,0,0,0,.562,2.451l.847.258,6.135-4.444c.2-.453.406-.941.626-1.473Z" transform="translate(-306.662 324.238)"/>
    </clipPath>
    <linearGradient id="linear-gradient" x1="-3.489" y1="4.352" x2="-3.488" y2="4.352" gradientUnits="objectBoundingBox">
      <stop offset="0" stop-color="#e9b49f"/>
      <stop offset="1" stop-color="#652f23"/>
    </linearGradient>
    <clipPath id="clip-path-2">
      <path id="path4874" d="M295.3-257.408a6.3,6.3,0,0,1-1.524-2.7h0a.1.1,0,0,0,0-.011v0l0-.008,0-.007v0l0-.01v0l0-.012h0c-.012-.044-.024-.089-.036-.134-.661-2.571.176-5.007,1.868-5.442l.033-.009h.008a2.085,2.085,0,0,1,.484-.056,2.434,2.434,0,0,1,.857.163,2.437,2.437,0,0,0-.849-.159,2.1,2.1,0,0,0-.3.021,2.8,2.8,0,0,1,1.365.492h0c-3.127,2.221-2.316,6.375-1.89,7.887" transform="translate(-293.502 265.813)"/>
    </clipPath>
    <linearGradient id="linear-gradient-2" x1="-28.328" y1="11.273" x2="-28.315" y2="11.273" gradientUnits="objectBoundingBox">
      <stop offset="0" stop-color="#452f29"/>
      <stop offset="1" stop-color="#e9b49f"/>
    </linearGradient>
    <clipPath id="clip-path-3">
      <path id="path4916" d="M321.315-255.165a6.387,6.387,0,0,1-2.242-3.422h0l0-.013h0l0-.012v0a.115.115,0,0,1,0-.012v0l0-.011v0l0-.011v0l0-.01v0a.1.1,0,0,1,0-.01v-.005l0-.009v-.006l0-.008v-.007l0-.008a.039.039,0,0,0,0-.007.039.039,0,0,0,0-.007s0-.005,0-.008l0-.007a.038.038,0,0,1,0-.008.028.028,0,0,1,0-.006l0-.009v-.005l0-.011v0l0-.015a7.569,7.569,0,0,1-.243-1.884c0-2.041.9-3.72,2.353-4.095h0l.018,0a2.454,2.454,0,0,1,.483-.063l-.057,0c.053,0,.107-.005.16-.005a3.432,3.432,0,0,1,2.306,1.048c-3.3,2.137-2.994,8.393-2.716,8.655m-2.711-3.613,0-.012,0,.012m-.256-1.973h0a6.734,6.734,0,0,1,.188-1.607q.061-.246.139-.479a3.665,3.665,0,0,1,2.442-2.542h0l.011,0h0l-.011,0c-1.708.439-2.769,2.343-2.769,4.628m2.787-4.632h0" transform="translate(-318.348 265.385)"/>
    </clipPath>
    <linearGradient id="linear-gradient-3" x1="-19.965" y1="9.256" x2="-19.957" y2="9.256" xlink:href="#linear-gradient-2"/>
    <clipPath id="clip-path-4">
      <path id="path4938" d="M322.523-254.219a6.4,6.4,0,0,1-2.245-3.426,6.387,6.387,0,0,0,2.242,3.422l0,0v0m-2.245-3.426,0-.013,0,.013m0-.015,0-.012,0,.012m0-.014,0-.012a.106.106,0,0,0,0,.012m0-.015,0-.011,0,.011m0-.014,0-.011,0,.011m0-.015,0-.01,0,.01m0-.015,0-.009,0,.009m0-.015,0-.009,0,.009m0-.015,0-.008,0,.008m0-.015,0-.008,0,.008m0-.015,0-.007a.041.041,0,0,1,0,.007m0-.015,0-.007,0,.007m0-.015a.028.028,0,0,1,0-.006.028.028,0,0,0,0,.006m0-.015v0m0-.016v0m2.122-6a2.43,2.43,0,0,1,.426-.067l.057,0a2.453,2.453,0,0,0-.483.063" transform="translate(-320.22 263.922)"/>
    </clipPath>
    <linearGradient id="linear-gradient-4" x1="-43.794" y1="9.695" x2="-43.776" y2="9.695" gradientUnits="objectBoundingBox">
      <stop offset="0" stop-color="#39241f"/>
      <stop offset="1" stop-color="#c18d79"/>
    </linearGradient>
  </defs>
  <g id="Group_74741" data-name="Group 74741" transform="translate(10688.903 -6251.803)">
    <path id="path4788" d="M297.807-300.6s15.045-3.979,16.154-9.441-3.564-9.106-8.4-7.918-9.43,3.819-9.546,4.167a8.834,8.834,0,0,0,1.737,5.395c1.552,1.686.522,3.053-1.062,5.22a2.385,2.385,0,0,0,1.113,2.578" transform="translate(-10983.153 6575.728)" fill="#653023"/>
    <path id="path4790" d="M302.494-301.465c-.035-.51-1.886-1.608-1.509-3.032a21.812,21.812,0,0,0,1.1-4.615,31.777,31.777,0,0,1,1.029-6.436,13.223,13.223,0,0,1,9.83-8.142c6.14-1.254,12.147-.489,17.14,3.6,3.853,3.159,5.413,11.142,3.206,16.486-2.527,6.12-3.626,6.793-3.626,6.793l-2.337,2.82s.588,3.013-1.074,4.682-9.144,8.333-14.544,8.743-6.18-3.2-6.5-5.253-2.5-7.063-3.06-8.362c-.809-1.859-.842-4.052.349-7.289" transform="translate(-10986.331 6579.623)" fill="#e9b49f"/>
    <g id="g4792" transform="translate(-10683.355 6255.385)">
      <g id="g4794" transform="translate(0 0)" clip-path="url(#clip-path)">
        <path id="path4806" d="M336.978-303.6c2.207-5.344.647-13.327-3.206-16.486-4.992-4.093-11-4.858-17.14-3.6a13.223,13.223,0,0,0-9.83,8.142c-.14.474-.034-.019-.14.474.371,1.135,2.257,1.926,4.142,1.81,4.788-.294,7.011-.951,10.671.076s2.1,4.227,4.428,5.657,3.241,2.082,2.716,3.4.377,2.039.188,3.739a3.03,3.03,0,0,0,.562,2.451l.847.258,6.135-4.444c.2-.453.406-.941.626-1.473" transform="translate(-306.662 324.238)" fill="url(#linear-gradient)"/>
      </g>
    </g>
    <path id="path4808" d="M372.016-261.695c.055-1.042,1.2-4.966,3.75-5.62s4.184,1.533,3.219,4.168c-.574,1.566-2.082,2.421-2.646,3.728-.571,1.324-1.659,2.96-4.143,1.911,0,0-.478-.966-.18-4.187" transform="translate(-11032.015 6543.063)" fill="#e9b49f"/>
    <path id="path4810" d="M331.141-321.878c-4.409-2.49-9.412-2.848-14.509-1.807a13.223,13.223,0,0,0-9.83,8.142c-.14.474-.034-.019-.14.474.371,1.135,2.257,1.926,4.142,1.81.324-.02.634-.041.935-.064,6.683-.4,11.6-9.383,19.4-8.554" transform="translate(-10990.018 6579.619)" fill="#653023"/>
    <path id="path4812" d="M307.781-307.749c-1.982.975-1.688,1.84-1.9,2.555-.14.473.369.24.263.733.371,1.135,2.257,1.926,4.142,1.81.324-.02.634-.041.935-.064.045,0,.089-.009.134-.013a4.149,4.149,0,0,1-1.07-.4c-3.951-2.192,1.827-3.663-2.5-4.623" transform="translate(-10989.499 6569.01)" fill="#653023"/>
    <path id="path4814" d="M315.739-333.273c-2.792-1.782-2.614-.594-8.376-.95s-3.624,3.148-8.614,3.519-2.317,3.669-5.883,5.194-.889,5.425.656,6.469,2.323,2.4.355,4.48.777,3.6.777,3.6c-2.966-2.878,3.679-5.2,1.307-6.778s-2.024-8.047,2.317-7.088h0c4.332.96-1.447,2.43,2.5,4.623a4.149,4.149,0,0,0,1.07.4c6.614-.508,11.52-9.364,19.268-8.541,1.465-3.214-2.594-3.143-5.386-4.925" transform="translate(-10980 6586.089)" fill="#9c4b33"/>
    <path id="path4816" d="M308.239-307.682l-.154-.057a3.413,3.413,0,0,1-.428-.185,2.65,2.65,0,0,1-.6-.422,1.441,1.441,0,0,1-.463-.851,1.738,1.738,0,0,1,.273-1.124,4.6,4.6,0,0,1,.818-.959c.073-.077.157-.152.222-.23l.183-.239.152-.267c.031-.1.079-.188.1-.286a.911.911,0,0,0-.353-1.019,2.1,2.1,0,0,0-1.187-.328,5.353,5.353,0,0,0-1.267.143c-.416.1-.824.176-1.216.239s-.76.112-1.1.143a9.642,9.642,0,0,1-1.662.025,3.663,3.663,0,0,1-.623-.094,4.718,4.718,0,0,0,.625.025,12.121,12.121,0,0,0,1.636-.154c.336-.048.7-.119,1.079-.2l1.193-.284a5.654,5.654,0,0,1,1.343-.175,2.417,2.417,0,0,1,1.394.375,1.219,1.219,0,0,1,.458.626,1.368,1.368,0,0,1,0,.762,3.233,3.233,0,0,1-.128.344l-.182.306a3.522,3.522,0,0,1-.452.508,5.319,5.319,0,0,0-.816.877,1.512,1.512,0,0,0-.294.964,1.379,1.379,0,0,0,.359.783,2.574,2.574,0,0,0,.538.453c.168.1.3.183.4.227l.146.075" transform="translate(-10986.331 6573.022)" fill="#af5c43"/>
    <path id="path4818" d="M301.462-310.207a5.208,5.208,0,0,0-.51-.168,6.29,6.29,0,0,0-1.385-.213,5.626,5.626,0,0,0-1.931.25,3.316,3.316,0,0,0-1.736,1.266,3.942,3.942,0,0,0-.621,2.085,2.869,2.869,0,0,0,.6,1.8c.341.465.691.815.909,1.082a2.789,2.789,0,0,1,.312.442,3.227,3.227,0,0,0-.359-.4l-.448-.426a6.341,6.341,0,0,1-.564-.584,3.112,3.112,0,0,1-.752-1.908,4.215,4.215,0,0,1,.153-1.164,3.772,3.772,0,0,1,.48-1.118,3.478,3.478,0,0,1,1.93-1.372,5.075,5.075,0,0,1,2.042-.158,5.2,5.2,0,0,1,1.392.351,3.451,3.451,0,0,1,.487.238" transform="translate(-10982.497 6570.996)" fill="#af5c43"/>
    <path id="path4820" d="M322.313-325.833l.5-.078a3.355,3.355,0,0,1,.58-.051,3.7,3.7,0,0,1,.764.022l.436.055.456.123a2.26,2.26,0,0,1,.469.176,2.2,2.2,0,0,1,.465.246,4.114,4.114,0,0,1,.443.32c.133.128.272.256.4.394l.337.461c.1.162.179.337.269.506a3.538,3.538,0,0,1,.2.534,2.787,2.787,0,0,1,.14.545,6.011,6.011,0,0,1,.122,1.081,9.412,9.412,0,0,1-.045,1.008c-.051.316-.085.617-.141.889a10,10,0,0,1-.363,1.29l-.17.477.1-.5c.031-.158.083-.345.118-.565s.067-.47.114-.739.05-.566.079-.876c0-.311.006-.639-.009-.975a6.718,6.718,0,0,0-.145-1.022,2.549,2.549,0,0,0-.137-.509,3.209,3.209,0,0,0-.19-.494c-.082-.155-.151-.318-.242-.468s-.2-.284-.3-.424l-.357-.368a3.91,3.91,0,0,0-.395-.307,2.408,2.408,0,0,0-.42-.245,2.04,2.04,0,0,0-.427-.193l-.423-.145-.413-.079a5.071,5.071,0,0,0-.733-.088,3.26,3.26,0,0,0-.577-.012l-.507.009" transform="translate(-11000.09 6580.738)" fill="#af5c43"/>
    <path id="path4822" d="M338.788-321.678l.145-.288a3.481,3.481,0,0,0,.143-.336c.058-.125.09-.285.149-.444a5.467,5.467,0,0,0,.2-1.148c.028-.211.012-.431.02-.653a5.3,5.3,0,0,0-.068-.668,4.78,4.78,0,0,0-.141-.655,4.938,4.938,0,0,0-.229-.606c-.045-.1-.09-.189-.133-.281l-.154-.255a3.46,3.46,0,0,0-.322-.444c-.1-.137-.227-.236-.319-.343a1.973,1.973,0,0,0-.272-.243l-.247-.207s.105.051.286.15a2.024,2.024,0,0,1,.317.2,2.7,2.7,0,0,1,.38.307,3.689,3.689,0,0,1,.39.432l.193.256c.057.093.107.192.163.291a4.027,4.027,0,0,1,.276.643,5.064,5.064,0,0,1,.163.7,5.638,5.638,0,0,1,.06.718,5.222,5.222,0,0,1-.052.693,4.233,4.233,0,0,1-.133.634c-.06.2-.123.381-.191.546a3.053,3.053,0,0,1-.22.436,3.542,3.542,0,0,1-.2.314l-.2.251" transform="translate(-11009.904 6582.205)" fill="#af5c43"/>
    <path id="path4824" d="M323.16-310.664l-.057-.067a.5.5,0,0,1-.107-.229,1.676,1.676,0,0,1,.112-.891c.121-.35.289-.741.469-1.154a8.982,8.982,0,0,0,.474-1.3,3.082,3.082,0,0,0,.089-1.328,2.521,2.521,0,0,0-.181-.585,2.4,2.4,0,0,0-.286-.48,4.8,4.8,0,0,0-.309-.371c-.1-.1-.191-.2-.272-.263l-.25-.22.292.164c.093.053.195.134.319.22a2.621,2.621,0,0,1,.374.342,2.635,2.635,0,0,1,.363.49,2.227,2.227,0,0,1,.258.641,2.63,2.63,0,0,1,.064.736,3.646,3.646,0,0,1-.116.745,7.058,7.058,0,0,1-.536,1.346c-.2.409-.422.771-.566,1.1a1.778,1.778,0,0,0-.23.806.514.514,0,0,0,.055.229l.04.077" transform="translate(-11000.432 6575.322)" fill="#af5c43"/>
    <path id="path4826" d="M319.51-323.624l.5-.158c.166-.028.372-.063.609-.091a4.019,4.019,0,0,1,.8.024,4.692,4.692,0,0,1,.93.214l.479.218a3.96,3.96,0,0,1,.46.3,2.734,2.734,0,0,1,.421.387,2.234,2.234,0,0,1,.361.462l.166.248.12.274a2.708,2.708,0,0,1,.206.562l.121.586q.012.3.025.588l.011.29-.031.284c-.021.188-.041.374-.061.557a9.955,9.955,0,0,1-.243,1.025c-.081.324-.221.61-.316.883a4.835,4.835,0,0,1-.315.725l-.279.54-.25.466.186-.5.22-.563a7.808,7.808,0,0,0,.249-.74c.076-.275.2-.563.254-.883s.142-.654.189-1q.023-.263.047-.534l.024-.272-.017-.273q-.017-.274-.034-.551l-.123-.538a2.42,2.42,0,0,0-.178-.517l-.1-.253-.147-.227a1.95,1.95,0,0,0-.318-.426,2.406,2.406,0,0,0-.376-.361c-.141-.1-.269-.211-.413-.293l-.431-.231a4.452,4.452,0,0,0-.864-.256,5.363,5.363,0,0,0-.765-.09c-.228,0-.429.016-.6.026l-.521.091" transform="translate(-10998.286 6579.394)" fill="#af5c43"/>
    <path id="path4828" d="M340.182-325.345s.067-.152.184-.416a2.4,2.4,0,0,0,.168-.487,3.63,3.63,0,0,0,.138-.645,4.794,4.794,0,0,0,.059-.777,7.782,7.782,0,0,0-.071-.866c-.025-.149-.051-.3-.077-.452l-.12-.455a7.089,7.089,0,0,0-.317-.905,7.464,7.464,0,0,0-.43-.859,9.218,9.218,0,0,0-.5-.784c-.2-.23-.36-.476-.558-.671a5.11,5.11,0,0,0-.566-.542l-.267-.226-.258-.182a2.924,2.924,0,0,0-.435-.277l-.4-.22.427.157a3.034,3.034,0,0,1,.473.227l.288.154.293.21a5.352,5.352,0,0,1,.626.517,6.705,6.705,0,0,1,.623.663,7.419,7.419,0,0,1,.551.8,7.688,7.688,0,0,1,.461.893,7.535,7.535,0,0,1,.322.954c.039.162.081.321.112.48s.043.322.063.479a5.566,5.566,0,0,1,.019.911,4.956,4.956,0,0,1-.122.807c-.031.122-.06.24-.088.351s-.086.21-.124.3a2.514,2.514,0,0,1-.23.472l-.245.383" transform="translate(-11009.37 6585.976)" fill="#af5c43"/>
    <path id="path4830" d="M347.744-329.978a1.135,1.135,0,0,1,.222.175,2.963,2.963,0,0,1,.447.616,5.993,5.993,0,0,1,.432.977,7.827,7.827,0,0,1,.309,1.184,6.823,6.823,0,0,1,.1,1.223,4.242,4.242,0,0,1-.033.565,3.894,3.894,0,0,1-.084.5,2.663,2.663,0,0,1-.121.411,1.8,1.8,0,0,1-.123.3c-.079.164-.128.254-.128.254s.02-.1.063-.276a1.8,1.8,0,0,0,.06-.314c.01-.124.044-.258.047-.41s.028-.312.021-.485,0-.354-.015-.541-.029-.38-.051-.577-.057-.393-.086-.592a11.909,11.909,0,0,0-.574-2.134c-.062-.137-.105-.272-.163-.379a1.773,1.773,0,0,0-.151-.277,1.488,1.488,0,0,0-.172-.222" transform="translate(-11016.457 6583.317)" fill="#af5c43"/>
    <path id="path4832" d="M352.355-326.809l.09-.317c.062-.2.122-.493.2-.839.038-.173.067-.364.1-.563.017-.2.056-.412.063-.631a5.249,5.249,0,0,0,.016-.672,4.97,4.97,0,0,0-.058-.685,4.876,4.876,0,0,0-.161-.661,3.19,3.19,0,0,0-.27-.6l-.16-.271a2.647,2.647,0,0,0-.19-.234l-.188-.22a1.791,1.791,0,0,0-.207-.174c-.139-.1-.256-.22-.375-.3l-.323-.187-.284-.171.312.108.36.134a3.593,3.593,0,0,1,.431.254,2.063,2.063,0,0,1,.238.163l.225.214a2.854,2.854,0,0,1,.232.235l.2.285a2.957,2.957,0,0,1,.326.645,5.043,5.043,0,0,1,.188.72,5.374,5.374,0,0,1,.05.737,4.421,4.421,0,0,1-.048.708,5.382,5.382,0,0,1-.12.648c-.055.2-.1.393-.161.565a6.6,6.6,0,0,1-.327.813,3.087,3.087,0,0,1-.155.293" transform="translate(-11018.3 6585.476)" fill="#af5c43"/>
    <path id="path4834" d="M359.074-323.338l.289-.764c.086-.228.181-.494.28-.778s.2-.589.266-.9a5.855,5.855,0,0,0,.173-.909c.024-.146.014-.286.025-.421s-.018-.259-.021-.378-.045-.219-.06-.316a.9.9,0,0,0-.08-.238c-.055-.13-.084-.21-.084-.21s.054.06.144.176a.944.944,0,0,1,.143.223,1.754,1.754,0,0,1,.136.32,2.586,2.586,0,0,1,.087.4,2.73,2.73,0,0,1,.023.459,4.248,4.248,0,0,1-.141.978,6.458,6.458,0,0,1-.708,1.677,5.51,5.51,0,0,1-.473.676" transform="translate(-11023.748 6582.205)" fill="#af5c43"/>
    <path id="path4836" d="M309.066-321.1l.371-.063c.24-.027.57-.109.969-.184a26.819,26.819,0,0,1,2.962-.565,6.247,6.247,0,0,1,.839-.014,3.075,3.075,0,0,1,.812.177,1.317,1.317,0,0,1,.361.177,1.119,1.119,0,0,1,.306.232,2.509,2.509,0,0,1,.25.262l.181.282a2.345,2.345,0,0,1,.224.528,2.1,2.1,0,0,1,.1.424l.063.372s-.048-.128-.129-.353a2.086,2.086,0,0,0-.159-.394l-.122-.229a.988.988,0,0,0-.149-.24l-.186-.241a2.328,2.328,0,0,0-.242-.211.909.909,0,0,0-.283-.177,1.26,1.26,0,0,0-.321-.135,3.172,3.172,0,0,0-.729-.13,6.015,6.015,0,0,0-.787.025c-.266.014-.533.059-.8.094l-.776.122c-.5.084-.981.144-1.389.192-.2.029-.4.033-.563.044s-.312.012-.432.012l-.377-.006" transform="translate(-10991.564 6578.142)" fill="#af5c43"/>
    <path id="path4838" d="M365.178-322.443s.1-.2.245-.5l.555-1.051c.1-.189.188-.381.263-.562a2.792,2.792,0,0,0,.163-.5.933.933,0,0,0,.03-.209.48.48,0,0,0,0-.165c-.018-.091-.025-.151-.025-.151a1.476,1.476,0,0,1,.09.128.557.557,0,0,1,.071.17.679.679,0,0,1,.043.239,1.734,1.734,0,0,1-.07.592,3.518,3.518,0,0,1-.243.624,4.712,4.712,0,0,1-.706,1.007,3.585,3.585,0,0,1-.411.381" transform="translate(-11027.677 6580.488)" fill="#af5c43"/>
    <path id="path4840" d="M313.247-220.334c.276.555,1.33.242,1.642-.569,0,0,.5.713,3.347.99,3.356.327,8.272-.3,8-4.136a4.578,4.578,0,0,1,.438,5.114c-1.591,2.745-7.1,3.655-9.115,3.378s-4.943-2.254-4.315-4.777" transform="translate(-10994.199 6515.144)" fill="#9c4b33"/>
    <path id="path4842" d="M311.039-227.217c.351-1.514,3.613-2.425,8.324.333a11.531,11.531,0,0,0-1.478-1.76,6.743,6.743,0,0,0-3.183-1.642,7.293,7.293,0,0,0-1.478-.025c-.329.014-.656.028-.94.022-1.1-.021-1.213,1.086-1.493,2.071a.9.9,0,0,0,.248,1" transform="translate(-10992.642 6519.189)" fill="#9c4b33"/>
    <path id="path4844" d="M354.642-268.427c.048.007.086.023.131.033a3.174,3.174,0,0,1,1.009-.016c-.041-.032-.082-.064-.128-.1a2.883,2.883,0,0,0-.916-.38,4.935,4.935,0,0,0-1.251-.122,19.292,19.292,0,0,0-6.295,1.7c-2.182.908-4.279,1.981-5.836,2.806l-2.576,1.4.812,1.371,2.46-1.554c1.48-.915,3.473-2.107,5.543-3.133a18.638,18.638,0,0,1,5.92-2.041,4.48,4.48,0,0,1,1.126.034" transform="translate(-11010.688 6544.078)" fill="#754e39"/>
    <path id="path4846" d="M322.252-237.928c.519-.391-.057-2.322-1.551-2.684a.749.749,0,0,0,.218-.715,6.006,6.006,0,0,0,1.863,2.035,1.055,1.055,0,0,1-.53,1.363" transform="translate(-10999.053 6526.263)" fill="#d29b86"/>
    <path id="path4848" d="M320.652-266.622c.03-.862-.659-1.186,2.812-2.128s4.236-.882,6.884.412.059.662-1.765.331-5.177,1.081-5.177,1.081-2.8,1.667-2.754.3" transform="translate(-10998.998 6544.325)" fill="#9c4b33"/>
    <path id="path4850" d="M304.71-266.837c.153-.99-.288-1.236-1.787-1.707s-2.05-.535-2,.295c.032.483.857.714,1.9,1.059.751.247,1.807.819,1.879.353" transform="translate(-10986.324 6544)" fill="#9c4b33"/>
    <path id="path4852" d="M315.085-221.169h0c-1.967,0-1.793-1.6-1.793-1.6a.682.682,0,0,1,.428-1.036.48.48,0,0,1,.143-.021,1.175,1.175,0,0,1,.35.078,1.332,1.332,0,0,0,.422.079,1.341,1.341,0,0,0,.62-.171,1.331,1.331,0,0,1,.589-.105,16.012,16.012,0,0,1,3.522.805s-2.311,1.968-4.277,1.967" transform="translate(-10994.2 6515.075)" fill="#de9f90"/>
    <path id="path4854" d="M318.6-258.947c.791,3.079,3.2,5.12,5.381,4.559s3.307-3.51,2.516-6.589-3.2-5.12-5.381-4.559-3.307,3.511-2.516,6.589" transform="translate(-10997.539 6541.903)" fill="#442f29"/>
    <path id="path4856" d="M334.029-234.076h0m.011,0,.017,0h0l-.017,0m.019,0h0" transform="translate(-11007.63 6521.602)" fill="#b18676"/>
    <path id="path4858" d="M341.2-252.626h0l0-.014,0,.014m-.007-.026h0" transform="translate(-11012.241 6533.552)" fill="#5b3a2a"/>
    <path id="path4860" d="M330.232-249.643q-.1,0-.191-.007h.028a2.771,2.771,0,0,1-.7-.14,2.89,2.89,0,0,0,.634-.09c2.181-.56,3.307-3.51,2.516-6.589a8,8,0,0,0-.475-1.343,7.449,7.449,0,0,1,.9,2.115c.723,2.817-.221,5.494-2.11,5.979a2.413,2.413,0,0,1-.6.076" transform="translate(-11004.633 6536.873)" fill="#35231f"/>
    <path id="path4862" d="M293.728-260.306c.661,2.571,2.568,4.3,4.26,3.868s2.529-2.872,1.868-5.443-2.568-4.3-4.26-3.867-2.529,2.871-1.868,5.442" transform="translate(-10981.548 6542.023)" fill="#ab8475"/>
    <path id="path4864" d="M293.728-260.306c.661,2.571,2.568,4.3,4.26,3.868s2.529-2.872,1.868-5.443-2.568-4.3-4.26-3.867-2.529,2.871-1.868,5.442" transform="translate(-10981.548 6542.023)" fill="#442f29"/>
    <path id="path4866" d="M305.791-249.329c.036-.007.071-.015.106-.024h0c-.035.009-.071.017-.106.024m1.975-5.468h0l0-.01,0,.01" transform="translate(-10989.457 6534.938)" fill="#b18676"/>
    <path id="path4868" d="M300.806-251.183a3.1,3.1,0,0,1-2.106-.988,2.724,2.724,0,0,0,1.462.469,2.113,2.113,0,0,0,.527-.066c1.692-.435,2.529-2.872,1.868-5.443q-.072-.278-.162-.542a7.188,7.188,0,0,1,.37,1.08c.661,2.571-.175,5.008-1.868,5.443a2,2,0,0,1-.211.038h-.005l-.018,0h0c.048,0,.1,0,.144,0a2.133,2.133,0,0,0,.527-.065c-.035.009-.071.017-.106.024a2.1,2.1,0,0,1-.422.042" transform="translate(-10984.894 6536.834)" fill="#35231f"/>
    <g id="g4870" transform="translate(-10688.046 6276.209)">
      <g id="g4872" transform="translate(0 0)" clip-path="url(#clip-path-2)">
        <path id="path4884" d="M295.3-257.408a6.3,6.3,0,0,1-1.524-2.7h0a.1.1,0,0,0,0-.011v0l0-.008,0-.007v0l0-.01v0l0-.012h0c-.012-.044-.024-.089-.036-.134-.661-2.571.176-5.007,1.868-5.442l.033-.009h.008a2.085,2.085,0,0,1,.484-.056,2.434,2.434,0,0,1,.857.163,2.437,2.437,0,0,0-.849-.159,2.1,2.1,0,0,0-.3.021,2.8,2.8,0,0,1,1.365.492h0c-3.127,2.221-2.316,6.375-1.89,7.887" transform="translate(-293.502 265.813)" fill="url(#linear-gradient-2)"/>
      </g>
    </g>
    <path id="path4886" d="M304.06-261.873c-.63-2.453-2.4-4.137-4.027-3.908,1.5.094,3.016,1.693,3.59,3.928.661,2.571-.175,5.008-1.868,5.443a2.076,2.076,0,0,1-.234.041,2.147,2.147,0,0,0,.671-.06c1.693-.435,2.529-2.872,1.868-5.443" transform="translate(-10985.751 6542.015)" fill="#754e39"/>
    <path id="path4888" d="M304.207-239.342l.018,0h.005l-.023,0" transform="translate(-10988.438 6524.987)" fill="#2d1c19"/>
    <path id="path4890" d="M311.07-255.667h0a.041.041,0,0,0,0-.007v0q-.016-.064-.034-.128c-.032-.115-.067-.228-.1-.339q.077.233.14.477" transform="translate(-10992.765 6535.798)" fill="#c18d79"/>
    <path id="path4892" d="M310.81-256.424c-.066-.235-.142-.463-.227-.682q.066.168.124.343c.037.111.071.224.1.339" transform="translate(-10992.541 6536.418)" fill="#39251f"/>
    <path id="path4894" d="M311.322-254.813l0-.01h0l0,.01m0-.018v0" transform="translate(-10993.013 6534.955)" fill="#926859"/>
    <path id="path4896" d="M302.126-256.359c-.048,0-.1,0-.144,0h0l.023,0h0a2.088,2.088,0,0,0,.525-.059,2.283,2.283,0,0,0,1.148-.726c-.036.076-.071.152-.105.229a2.208,2.208,0,0,1-.922.5,2.135,2.135,0,0,1-.527.065m2.356-2.451a6.508,6.508,0,0,0-.081-3.059c-.582-2.265-2.132-3.871-3.651-3.924h.044a3.984,3.984,0,0,1,3.2,2.5h0c.077.154.15.311.218.474h0c.017.04.033.081.049.122.085.219.162.447.227.682h0q.018.064.034.128v0a.039.039,0,0,1,0,.007l0,.01h0a7.05,7.05,0,0,1,.226,1.748,6.062,6.062,0,0,1-.056.832c-.055.137-.114.272-.176.408l-.034.07" transform="translate(-10986.213 6542.009)" fill="#623d2c"/>
    <path id="path4898" d="M311.2-261.936a7.554,7.554,0,0,0-.111-.781,14.17,14.17,0,0,0-.382-1.521,24.848,24.848,0,0,0-1.122-2.887c.1.636.166,1.275.2,1.916a18.216,18.216,0,0,1,.005,1.919,12.08,12.08,0,0,1-.226,1.889c-.028.155-.066.307-.108.458a4.2,4.2,0,0,1-.135.448,3.567,3.567,0,0,1-.165.433c-.057.141-.122.281-.194.425l-.848,1.7a5.968,5.968,0,0,0-.366.922,2.558,2.558,0,0,0-.094.518,2.322,2.322,0,0,0-.005.26,2.013,2.013,0,0,0,.029.278,1.517,1.517,0,0,0,.538.945,2.107,2.107,0,0,0,.925.408,3.952,3.952,0,0,0,.954.067,2.84,2.84,0,0,0,.971-.18l.123-.051.006-.147c.043-1.04.073-2.076.09-3.116s.024-2.079-.031-3.122c-.016-.261-.028-.522-.056-.784" transform="translate(-10990.656 6542.866)" fill="#e9b49f"/>
    <path id="path4900" d="M307.654-250.869a2.673,2.673,0,0,1,.132-.869,5.625,5.625,0,0,1,.232-.606l.052-.048a5.581,5.581,0,0,0-.316.817,2.556,2.556,0,0,0-.094.518c-.006.08-.007.13-.006.189m1.441-3.6c.015-.079.028-.161.039-.242a5.917,5.917,0,0,0,.278-.885,9.327,9.327,0,0,0,.237-1.323,16.085,16.085,0,0,0,.115-1.762h.055c0,.275-.01.55-.023.824a12.076,12.076,0,0,1-.226,1.889c-.028.155-.066.307-.108.458a4.2,4.2,0,0,1-.135.448,3.563,3.563,0,0,1-.165.433c-.021.053-.044.106-.068.159" transform="translate(-10990.655 6537.431)" fill="#d29b86"/>
    <path id="path4902" d="M308.971-244.543c.072-.153.146-.3.22-.456.192-.4.387-.8.582-1.2-.019.085-.041.167-.065.249l-.652,1.307c-.028.035-.057.069-.086.1" transform="translate(-10991.504 6529.399)" fill="#6a4330"/>
    <path id="path4904" d="M308.677-245.176c.034-.077.069-.153.105-.229.029-.033.057-.067.086-.1l-.088.178-.05.105-.052.048m.842-1.639c.023-.081.045-.164.065-.249l.034-.07c.062-.135.121-.271.176-.408-.011.082-.025.163-.039.242-.039.088-.081.176-.126.266l-.108.218" transform="translate(-10991.314 6530.262)" fill="#583425"/>
    <path id="path4906" d="M313.31-264.59h-.054c0-.057,0-.113,0-.169-.017-.709-.053-1.3-.1-1.714s-.073-.651-.073-.651h0c.1.636.166,1.275.2,1.916.012.206.019.413.024.619" transform="translate(-10994.149 6542.866)" fill="#d29b86"/>
    <path id="path4908" d="M309.583-254.684a2.53,2.53,0,0,1-.987-.187,1.478,1.478,0,0,1-.854-.918,1.81,1.81,0,0,1-.086-.516c0-.058,0-.109.006-.189a2.558,2.558,0,0,1,.094-.518,5.58,5.58,0,0,1,.316-.817h0l.05-.106.088-.178.652-1.307.108-.218c.045-.09.087-.178.126-.266h0c.024-.053.047-.106.068-.159a3.562,3.562,0,0,0,.165-.433,4.2,4.2,0,0,0,.135-.448c.042-.151.08-.3.108-.458a12.077,12.077,0,0,0,.226-1.889c.013-.274.021-.548.023-.824.08,0,.162.011.244.022.008.154.015.314.019.476a12.768,12.768,0,0,1-.028,1.3,9.8,9.8,0,0,1-.2,1.388,6.886,6.886,0,0,1-.469,1.386c-.388.874-.889,1.708-1.181,2.5a2.079,2.079,0,0,0-.1,1.144,1.141,1.141,0,0,0,.611.765,3.338,3.338,0,0,0,1.491.292h.135a2.175,2.175,0,0,0,.641-.089,1.814,1.814,0,0,1-.632.187,4.979,4.979,0,0,1-.76.056h-.01m.451-9.892c-.072-.007-.145-.012-.216-.015,0-.206-.012-.413-.024-.619-.038-.641-.1-1.28-.2-1.916,0,0,.069.228.159.636a16.213,16.213,0,0,1,.268,1.713q.009.1.017.2" transform="translate(-10990.656 6542.866)" fill="#d29b86"/>
    <path id="path4910" d="M313.2-259.38a3.471,3.471,0,0,0-2.935-.475,1.6,1.6,0,0,0-.432.279c.077.154.15.311.218.474a1.07,1.07,0,0,1,.4-.317,3.115,3.115,0,0,1,2.607.517q.061-.245.14-.479" transform="translate(-10992.059 6538.292)" fill="#754e39"/>
    <g id="g4912" transform="translate(-10679.19 6276.361)">
      <g id="g4914" transform="translate(0 0)" clip-path="url(#clip-path-3)">
        <path id="path4926" d="M321.315-255.165a6.387,6.387,0,0,1-2.242-3.422h0l0-.013h0l0-.012v0a.115.115,0,0,1,0-.012v0l0-.011v0l0-.011v0l0-.01v0a.1.1,0,0,1,0-.01v-.005l0-.009v-.006l0-.008v-.007l0-.008a.039.039,0,0,0,0-.007.039.039,0,0,0,0-.007s0-.005,0-.008l0-.007a.038.038,0,0,1,0-.008.028.028,0,0,1,0-.006l0-.009v-.005l0-.011v0l0-.015a7.569,7.569,0,0,1-.243-1.884c0-2.041.9-3.72,2.353-4.095h0l.018,0a2.454,2.454,0,0,1,.483-.063l-.057,0c.053,0,.107-.005.16-.005a3.432,3.432,0,0,1,2.306,1.048c-3.3,2.137-2.994,8.393-2.716,8.655m-2.711-3.613,0-.012,0,.012m-.256-1.973h0a6.734,6.734,0,0,1,.188-1.607q.061-.246.139-.479a3.665,3.665,0,0,1,2.442-2.542h0l.011,0h0l-.011,0c-1.708.439-2.769,2.343-2.769,4.628m2.787-4.632h0" transform="translate(-318.348 265.385)" fill="url(#linear-gradient-3)"/>
      </g>
    </g>
    <path id="path4928" d="M323.743-254.749c-1.889.486-4.007-1.4-4.73-4.221s.22-5.493,2.11-5.979,4.007,1.4,4.731,4.221-.221,5.494-2.11,5.979m2.756-6.227c-.791-3.079-3.2-5.12-5.381-4.559s-3.307,3.511-2.516,6.589,3.2,5.12,5.381,4.559,3.307-3.51,2.516-6.589" transform="translate(-10997.539 6541.903)" fill="#754e39"/>
    <path id="path4930" d="M327.626-236.211a3.634,3.634,0,0,1-.951-.5v0l0,0a3.6,3.6,0,0,0,.962.5h-.008" transform="translate(-11002.896 6523.293)" fill="#39251f"/>
    <path id="path4932" d="M330.027-235.165a2.776,2.776,0,0,1-.678-.14h.008a2.772,2.772,0,0,0,.7.14h-.028" transform="translate(-11004.618 6522.388)" fill="#2d1c19"/>
    <g id="g4934" transform="translate(-10678.522 6276.883)">
      <g id="g4936" transform="translate(0 0)" clip-path="url(#clip-path-4)">
        <path id="path4948" d="M322.523-254.219a6.4,6.4,0,0,1-2.245-3.426,6.387,6.387,0,0,0,2.242,3.422l0,0v0m-2.245-3.426,0-.013,0,.013m0-.015,0-.012,0,.012m0-.014,0-.012a.106.106,0,0,0,0,.012m0-.015,0-.011,0,.011m0-.014,0-.011,0,.011m0-.015,0-.01,0,.01m0-.015,0-.009,0,.009m0-.015,0-.009,0,.009m0-.015,0-.008,0,.008m0-.015,0-.008,0,.008m0-.015,0-.007a.041.041,0,0,1,0,.007m0-.015,0-.007,0,.007m0-.015a.028.028,0,0,1,0-.006.028.028,0,0,0,0,.006m0-.015v0m0-.016v0m2.122-6a2.43,2.43,0,0,1,.426-.067l.057,0a2.453,2.453,0,0,0-.483.063" transform="translate(-320.22 263.922)" fill="url(#linear-gradient-4)"/>
      </g>
    </g>
    <path id="path4950" d="M323.147-253.585c-1.717,0-3.479-1.772-4.126-4.291-.724-2.816.221-5.493,2.109-5.979a2.388,2.388,0,0,1,.6-.073l.116,0a2.427,2.427,0,0,0-.426.067l-.018,0h0c-1.458.374-2.352,2.053-2.353,4.095a7.568,7.568,0,0,0,.243,1.884l0,.015v0l0,.011v.005l0,.009a.032.032,0,0,0,0,.006l0,.008,0,.007,0,.008,0,.007a.041.041,0,0,1,0,.007l0,.008v.007l0,.008v.006l0,.009v.005l0,.01v0l0,.01v0l0,.011v0l0,.011v0l0,.012a0,0,0,0,0,0,0l0,.012h0l0,.013h0a6.4,6.4,0,0,0,2.245,3.426,3.635,3.635,0,0,0,.951.5,2.775,2.775,0,0,0,.678.14h-.076" transform="translate(-10997.814 6540.809)" fill="#623d2c"/>
    <path id="path4952" d="M334.107-234.08h0" transform="translate(-11007.681 6521.6)" fill="#c18d79"/>
    <path id="path4954" d="M334.106-234.08h0" transform="translate(-11007.68 6521.6)" fill="#926859"/>
    <path id="path4956" d="M334.129-242.444l.009,0h0c1.708-.439,2.769-2.343,2.769-4.627,0,2.284-1.061,4.189-2.769,4.627l-.009,0" transform="translate(-11007.694 6529.962)" fill="#c18d79"/>
    <path id="path4958" d="M334.127-234.089l.01,0-.009,0h0" transform="translate(-11007.693 6521.606)" fill="#926859"/>
    <path id="path4960" d="M340.628-254.474q-.076-.246-.164-.481.089.236.164.481h0" transform="translate(-11011.771 6535.034)" fill="#c18d79"/>
    <path id="path4962" d="M341.024-253.252h0a.014.014,0,0,1,0,0,.03.03,0,0,1,0-.006.107.107,0,0,0,0,.012m0-.013v-.008a.075.075,0,0,1,0-.01l0-.005a.052.052,0,0,0,0-.01v-.006l0-.011v-.006a.093.093,0,0,1,0-.012l0-.007,0-.008a.037.037,0,0,0,0-.008l0-.007,0-.009,0-.006a.06.06,0,0,0,0-.009v0l-.01-.035a0,0,0,0,0,0,0,.1.1,0,0,0,0-.011v0l0-.012h0c-.015-.051-.029-.1-.045-.153h0c.034.112.067.225.1.339" transform="translate(-11012.068 6534.165)" fill="#623d2c"/>
    <path id="path4964" d="M341.109-252.962l0-.015h0l0,.014m0-.019,0-.01v0h0a.032.032,0,0,0,0,.006m0-.016a.08.08,0,0,1,0-.01.08.08,0,0,0,0,.01m0-.015a.054.054,0,0,0,0-.009.054.054,0,0,1,0,.009m0-.015,0-.011,0,.011m0-.017a.116.116,0,0,1,0-.012.092.092,0,0,0,0,.012m-.005-.019,0-.008,0,.008m0-.015,0-.007,0,.007m0-.015,0-.006,0,.006m0-.014v0m-.011-.039a0,0,0,0,0,0,0,0,0,0,0,1,0,0m0-.013a0,0,0,0,0,0,0v0m0-.014h0" transform="translate(-11012.149 6533.888)" fill="#4b2c21"/>
    <path id="path4966" d="M329.406-254.286c-.06,0-.12,0-.18,0a2.921,2.921,0,0,0,.635-.084c2.18-.56,3.307-3.51,2.516-6.589-.683-2.658-2.572-4.538-4.479-4.643l.1,0c1.753,0,3.52,1.524,4.378,3.8a8.165,8.165,0,0,1,.268.848h0A7.893,7.893,0,0,1,332.9-259c0,2.284-1.061,4.189-2.769,4.627h0l-.01,0h-.008a2.908,2.908,0,0,1-.7.084" transform="translate(-11003.685 6541.89)" fill="#623d2c"/>
    <path id="path4968" d="M310.4-259.247a1.462,1.462,0,0,1,1.082-.441,2.684,2.684,0,0,1,1.209.333,3.135,3.135,0,0,0-1.145-.235,1.819,1.819,0,0,0-1.146.342" transform="translate(-10992.423 6538.08)" fill="#966c4e"/>
    <path id="path4970" d="M319.851-233.856a5.3,5.3,0,0,0-2.2-.57c0-.028,0-.055,0-.082a2.8,2.8,0,0,1,1.089-.2c.64,0,1.236.192,1.235.61a.513.513,0,0,1-.022.144c-.021.072-.052.1-.1.1" transform="translate(-10997.087 6522.005)" fill="#a26a59"/>
    <path id="path4972" d="M317.375-234.059l-.151,0a1.336,1.336,0,0,1,.154-.08c0,.027,0,.055,0,.082" transform="translate(-10996.815 6521.638)" fill="#a26a59"/>
    <path id="path4974" d="M314.111-221.218s.085-.018.22-.035.32-.058.566-.077a4.55,4.55,0,0,0,.8-.03c.292-.046.608-.1.927-.125a17.361,17.361,0,0,1,2.545.033l-.792.048c-.474.031-1.106.074-1.73.155l-.923.1c-.147.012-.3.037-.441.038s-.261,0-.379,0a2.151,2.151,0,0,1-.581-.032.779.779,0,0,1-.214-.078" transform="translate(-10994.812 6513.515)" fill="#d38e83"/>
  </g>
</svg>
