<svg xmlns="http://www.w3.org/2000/svg" width="16" height="13" viewBox="0 0 16 13">
  <path id="Union_3" data-name="Union 3" d="M1.6,13A1.57,1.57,0,0,1,0,11.466a.942.942,0,0,1,.96-.92H15.04a.942.942,0,0,1,.96.92A1.57,1.57,0,0,1,14.4,13ZM1.28,9.879A1.247,1.247,0,0,1,.018,8.444a1.32,1.32,0,0,1,1.334-1.02H5.138L9.76,9.64a.66.66,0,0,0,.739-.115l2.191-2.1h1.958a1.32,1.32,0,0,1,1.334,1.02A1.246,1.246,0,0,1,14.72,9.879ZM9.78,8.6,6,6.8H.948a.307.307,0,1,1,0-.614h14.1a.307.307,0,1,1,0,.614H11.979L10.15,8.546a.331.331,0,0,1-.37.058ZM.336,5.576A.316.316,0,0,1,.018,5.3,3.548,3.548,0,0,1,1.067,2.471C2.486.947,5.144,0,8,0s5.507.945,6.928,2.465a3.554,3.554,0,0,1,1.054,2.823.3.3,0,0,1-.1.2.365.365,0,0,1-.227.09Zm10-2.388-.64.62a.3.3,0,0,0,0,.438.327.327,0,0,0,.452,0l.64-.62a.3.3,0,0,0,0-.438.328.328,0,0,0-.452,0Zm-7.68,0a.3.3,0,0,0,0,.438l.64.62a.327.327,0,0,0,.452,0,.3.3,0,0,0,0-.438l-.64-.62a.328.328,0,0,0-.452,0Zm9.6-.62a.3.3,0,0,0,0,.438l.64.62a.327.327,0,0,0,.452,0,.3.3,0,0,0,0-.438l-.64-.62a.328.328,0,0,0-.452,0Zm-6.4-.62-.64.62a.3.3,0,0,0,0,.438.327.327,0,0,0,.452,0l.64-.619a.3.3,0,0,0,0-.438.328.328,0,0,0-.452,0Zm1.92-.62a.3.3,0,0,0,0,.438l.64.62a.327.327,0,0,0,.452,0,.3.3,0,0,0,0-.438l-.64-.62a.328.328,0,0,0-.452,0Z" fill="#c6c6c9"/>
</svg>
