<svg xmlns="http://www.w3.org/2000/svg" width="11.954" height="19.414" viewBox="0 0 11.954 19.414">
  <g id="Icon_ionic-ios-wifi" data-name="Icon ionic-ios-wifi" transform="translate(11.954) rotate(90)" opacity="0.68">
    <path id="Path_18953" data-name="Path 18953" d="M8.026,0A12.012,12.012,0,0,0,.091,3.082a.273.273,0,0,0-.011.4l.956.974a.3.3,0,0,0,.416.01,9.58,9.58,0,0,1,2.841-1.78,10.022,10.022,0,0,1,7.472,0,9.651,9.651,0,0,1,2.841,1.78.3.3,0,0,0,.416-.01l.956-.974a.273.273,0,0,0-.011-.4A12.044,12.044,0,0,0,8.026,0Z" transform="translate(1.686 4.198)" fill="#f6f8fa"/>
    <path id="Path_18955" data-name="Path 18955" d="M9.7,0A17.25,17.25,0,0,0,.111,2.848.215.215,0,0,0,.1,3.216l1.156.9a.446.446,0,0,0,.5.01A12.537,12.537,0,0,1,5.19,2.481a15.17,15.17,0,0,1,4.517-.668,15.275,15.275,0,0,1,4.517.668,12.63,12.63,0,0,1,3.434,1.645.446.446,0,0,0,.5-.01l1.156-.9a.215.215,0,0,0-.013-.368A17.3,17.3,0,0,0,9.7,0Z" transform="translate(0 0)" fill="#f6f8fa"/>
    <path id="Path_18954" data-name="Path 18954" d="M.082,2.2l.972.938a.284.284,0,0,0,.381.01,5.326,5.326,0,0,1,3.5-1.289,5.309,5.309,0,0,1,3.5,1.289.284.284,0,0,0,.381-.01L9.783,2.2a.26.26,0,0,0-.01-.388A7.309,7.309,0,0,0,4.929,0,7.309,7.309,0,0,0,.086,1.809.265.265,0,0,0,.082,2.2Z" transform="translate(4.774 8.741)" fill="#f6f8fa"/>
  </g>
</svg>
