<svg xmlns="http://www.w3.org/2000/svg" xmlns:xlink="http://www.w3.org/1999/xlink" width="23" height="21.904" viewBox="0 0 23 21.904">
  <defs>
    <linearGradient id="linear-gradient" x1="0.5" x2="0.5" y2="1" gradientUnits="objectBoundingBox">
      <stop offset="0" stop-color="#45a080"/>
      <stop offset="1" stop-color="#4e9fcf"/>
    </linearGradient>
  </defs>
  <g id="Group_74720" data-name="Group 74720" transform="translate(4655 -9661)">
    <path id="Path_19407" data-name="Path 19407" d="M20.427,19.666l.47-.55.458.4a.338.338,0,0,0,.221.082H21.6a.339.339,0,0,0,.232-.118l.728-.851a.342.342,0,0,0-.036-.48l-2.5-2.163a.338.338,0,0,0-.478.036l-.728.851a.342.342,0,0,0,.036.48l.458.4-.506.592a8.976,8.976,0,0,0-3.483-1.32V15.987h1.168a.992.992,0,0,0,.989-.993V14.2a.992.992,0,0,0-.989-.993h-5.1a.992.992,0,0,0-.989.993v.793a.992.992,0,0,0,.989.993h1.168v1.029a8.979,8.979,0,0,0-3.544,1.36l-.54-.631.458-.4a.342.342,0,0,0,.036-.48l-.728-.851a.338.338,0,0,0-.478-.036l-2.5,2.163a.342.342,0,0,0-.036.48l.728.851a.338.338,0,0,0,.478.036l.458-.4.515.6a9.155,9.155,0,0,0-1.181,1.535l-.035,0H4.045a.341.341,0,0,0,0,.681h1.8a9.071,9.071,0,0,0-.466,1.106H1.951a.341.341,0,0,0,0,.681H5.172a9.085,9.085,0,0,0-.253,1.458H.339a.341.341,0,0,0,0,.681H4.883c0,.051,0,.1,0,.153a9.176,9.176,0,0,0,.094,1.305H1.635a.341.341,0,0,0,0,.681H5.1A9.042,9.042,0,0,0,5.42,29.1H3.729a.341.341,0,0,0,0,.681H5.7a9.07,9.07,0,0,0,8.243,5.326,8.969,8.969,0,0,0,5.281-1.706.342.342,0,0,0,.078-.475.338.338,0,0,0-.473-.078,8.3,8.3,0,0,1-4.886,1.578,8.419,8.419,0,1,1,5.777-14.514l.01.009a8.439,8.439,0,0,1,.135,12.043.342.342,0,0,0,0,.482.338.338,0,0,0,.48,0,9.121,9.121,0,0,0,.086-12.787Zm-.59-2.945,1.99,1.719-.286.334-1.99-1.719Zm-.013,1.469.559.483-.448.523q-.276-.245-.571-.468Zm-7.384-2.883V13.889h.548v1.416Zm1.226-1.416h.548v1.416h-.548Zm1.226,1.416V13.889h.548v1.416ZM16.8,14.2v.793a.311.311,0,0,1-.31.312h-.37V13.889h.37A.311.311,0,0,1,16.8,14.2Zm-5.716.793V14.2a.311.311,0,0,1,.31-.312h.37v1.416h-.37a.311.311,0,0,1-.31-.312ZM6.245,18.773l-.286-.334,1.99-1.719.286.334-.458.4h0L6.7,18.377h0Zm1.168-.11.549-.474.5.582q-.293.225-.568.472L7.4,18.672Zm5.826-1.725v-.951h1.4v.951q-.347-.027-.7-.027t-.7.027Z" transform="translate(-4655 9647.792)" fill="url(#linear-gradient)"/>
    <path id="Path_19408" data-name="Path 19408" d="M154.959,138.34a.345.345,0,0,0-.466-.146,7.227,7.227,0,1,0,1.515-.587.345.345,0,1,0,.176.668,6.5,6.5,0,0,1,1.322-.205v.907a.345.345,0,0,0,.691,0v-.906q.251.014.5.046a6.521,6.521,0,0,1,3.558,1.64l-.625.625a.345.345,0,1,0,.488.488l.624-.624q.163.182.313.378a6.521,6.521,0,0,1,1.355,3.669h-.857a.345.345,0,0,0,0,.691h.855q-.014.247-.046.5a6.531,6.531,0,0,1-1.622,3.532l-.592-.592a.345.345,0,1,0-.488.488l.592.592a6.571,6.571,0,0,1-4.015,1.688v-.844a.345.345,0,1,0-.691,0v.848c-.181-.008-.364-.024-.547-.048a6.532,6.532,0,0,1-3.5-1.594l.612-.612a.345.345,0,1,0-.488-.488l-.615.615a6.572,6.572,0,0,1-1.716-4.038h.9a.345.345,0,0,0,0-.691h-.9c.008-.184.024-.369.048-.555a6.573,6.573,0,0,1,1.614-3.524l.644.643a.345.345,0,0,0,.488-.488l-.645-.645a6.574,6.574,0,0,1,1.376-.962A.345.345,0,0,0,154.959,138.34Z" transform="translate(-4799.074 9529.05)" fill="url(#linear-gradient)"/>
    <path id="Path_19409" data-name="Path 19409" d="M290.763,226.278a.345.345,0,0,0-.345.345v2.051a.845.845,0,1,0,.7,1.536l2.3,2.3a.345.345,0,0,0,.488-.488l-2.339-2.339a.843.843,0,0,0-.465-1.012v-2.051A.345.345,0,0,0,290.763,226.278Zm-.155,3.167a.155.155,0,1,1,.155.155A.155.155,0,0,1,290.608,229.445Z" transform="translate(-4931.857 9444.349)" fill="url(#linear-gradient)"/>
  </g>
</svg>
