<svg xmlns="http://www.w3.org/2000/svg" xmlns:xlink="http://www.w3.org/1999/xlink" width="23.129" height="23.129" viewBox="0 0 23.129 23.129">
  <defs>
    <linearGradient id="linear-gradient" x1="0.5" x2="0.5" y2="1" gradientUnits="objectBoundingBox">
      <stop offset="0" stop-color="#45a080"/>
      <stop offset="1" stop-color="#00b8ad"/>
    </linearGradient>
  </defs>
  <g id="Group_2521" data-name="Group 2521" transform="translate(0 -1.936)">
    <g id="svgexport-6_57_" data-name="svgexport-6 (57)" transform="translate(0 1.936)">
      <g id="Group_74601" data-name="Group 74601">
        <path id="Path_19038" data-name="Path 19038" d="M21.156,16.216A.678.678,0,1,0,20.5,17.4c.807.443,1.27.935,1.27,1.349,0,.506-.717,1.29-2.729,1.974a24.2,24.2,0,0,1-7.48,1.047,24.2,24.2,0,0,1-7.48-1.047c-2.012-.684-2.729-1.468-2.729-1.974,0-.414.463-.905,1.27-1.349a.678.678,0,1,0-.653-1.188A3.223,3.223,0,0,0,0,18.753c0,.92.633,2.233,3.648,3.257a25.564,25.564,0,0,0,7.916,1.119,25.564,25.564,0,0,0,7.916-1.119c3.015-1.024,3.648-2.337,3.648-3.257A3.223,3.223,0,0,0,21.156,16.216Z" fill="url(#linear-gradient)"/>
        <path id="Path_19039" data-name="Path 19039" d="M6.449,19.747a19.637,19.637,0,0,0,5.116.6,19.635,19.635,0,0,0,5.116-.6c1.683-.475,2.536-1.164,2.536-2.045s-.853-1.57-2.536-2.045c-.374-.106-.78-.2-1.212-.277q-.352.608-.737,1.252c.478.072.927.16,1.335.264a3.46,3.46,0,0,1,1.784.807,3.459,3.459,0,0,1-1.784.807,18.712,18.712,0,0,1-4.269.484c-.077.006-.154.009-.233.009s-.156,0-.233-.009a18.709,18.709,0,0,1-4.269-.484A3.46,3.46,0,0,1,5.279,17.7a3.46,3.46,0,0,1,1.784-.807c.408-.1.857-.192,1.335-.264q-.385-.644-.737-1.252c-.432.079-.838.172-1.212.277-1.683.475-2.536,1.163-2.536,2.045S4.766,19.271,6.449,19.747Z" fill="url(#linear-gradient)"/>
        <path id="Path_19040" data-name="Path 19040" d="M11.564,17.646a1.706,1.706,0,0,0,1.466-.822c2.2-3.607,4.833-8.362,4.833-10.525a6.3,6.3,0,0,0-12.6,0c0,2.163,2.628,6.918,4.833,10.525A1.706,1.706,0,0,0,11.564,17.646ZM9.033,5.866A2.532,2.532,0,1,1,11.564,8.4,2.535,2.535,0,0,1,9.033,5.866Z" fill="url(#linear-gradient)"/>
      </g>
    </g>
  </g>
</svg>
