<svg id="Filter" xmlns="http://www.w3.org/2000/svg" xmlns:xlink="http://www.w3.org/1999/xlink" width="21.666" height="19.259" viewBox="0 0 21.666 19.259">
  <defs>
    <linearGradient id="linear-gradient" x1="0.5" x2="0.5" y2="1" gradientUnits="objectBoundingBox">
      <stop offset="0" stop-color="#45a080"/>
      <stop offset="1" stop-color="#00b8ad"/>
    </linearGradient>
  </defs>
  <path id="Filter-2" data-name="Filter" d="M14.216,15.6a3.726,3.726,0,1,1,3.725,3.66A3.694,3.694,0,0,1,14.216,15.6ZM1.633,17.248a1.605,1.605,0,1,1,0-3.21H8.756a1.605,1.605,0,1,1,0,3.21ZM0,3.66A3.694,3.694,0,0,1,3.725,0,3.693,3.693,0,0,1,7.451,3.66,3.693,3.693,0,0,1,3.725,7.321,3.694,3.694,0,0,1,0,3.66Zm12.911,1.6a1.6,1.6,0,1,1,0-3.209h7.123a1.6,1.6,0,1,1,0,3.209Z" transform="translate(0 0)" fill="url(#linear-gradient)"/>
</svg>
