<svg xmlns="http://www.w3.org/2000/svg" width="33.59" height="21.501" viewBox="0 0 33.59 21.501">
  <g id="Icon_ionic-ios-people" data-name="Icon ionic-ios-people" transform="translate(-2.215)">
    <path id="Path_18934" data-name="Path 18934" d="M25.592,24.29c-.838-.295-2.207-.309-2.813-.538a4,4,0,0,1-1.3-.6,7.807,7.807,0,0,1-.217-2.1A3.4,3.4,0,0,0,22,20.024,11.307,11.307,0,0,0,22.361,18s.494.206.688-.766c.165-.84.479-1.282.4-1.9s-.434-.472-.434-.472a5.447,5.447,0,0,0,.434-2.756c0-2.2-1.683-4.355-4.833-4.355s-4.84,2.166-4.84,4.355a5.528,5.528,0,0,0,.426,2.756s-.352-.147-.434.472.224,1.061.4,1.9c.195.98.688.766.688.766a11.416,11.416,0,0,0,.359,2.026,3.4,3.4,0,0,0,.741,1.032,7.807,7.807,0,0,1-.217,2.1,3.851,3.851,0,0,1-1.3.589c-.6.228-1.968.258-2.813.553a5.211,5.211,0,0,0-3.426,4.952h20.82A5.2,5.2,0,0,0,25.592,24.29Z" transform="translate(0.382 -7.748)" fill="#bfbfbf"/>
    <path id="Path_18935" data-name="Path 18935" d="M10.332,20.462a5.172,5.172,0,0,0,2.5-.68c-1.16-1.718-.531-3.721-.771-5.592a3.131,3.131,0,0,0-3.494-2.982h-.03A3.141,3.141,0,0,0,5.073,14.19c-.239,1.864.426,4.094-.763,5.592a4.791,4.791,0,0,0,2.506.607h0a3.619,3.619,0,0,1-.075,1.228,1.909,1.909,0,0,1-.9.4,17.677,17.677,0,0,0-1.938.526,3.075,3.075,0,0,0-1.691,2.719H8.222a5.322,5.322,0,0,1,2.394-2.178,5.125,5.125,0,0,1,1.848-.38s.284-.439-.651-.607a6.478,6.478,0,0,1-1.436-.49C10.235,21.449,10.332,20.462,10.332,20.462Z" transform="translate(0 -7.527)" fill="#bfbfbf"/>
    <path id="Path_18936" data-name="Path 18936" d="M26.306,20.462a5.172,5.172,0,0,1-2.5-.68c1.16-1.718.531-3.721.771-5.592a3.131,3.131,0,0,1,3.494-2.982h.03a3.141,3.141,0,0,1,3.464,2.982c.239,1.864-.426,4.094.763,5.592a4.791,4.791,0,0,1-2.506.607h0a3.619,3.619,0,0,0,.075,1.228,1.909,1.909,0,0,0,.9.4,17.677,17.677,0,0,1,1.938.526,3.075,3.075,0,0,1,1.691,2.719H28.416a5.322,5.322,0,0,0-2.394-2.178,5.125,5.125,0,0,0-1.848-.38s-.284-.439.651-.607a6.478,6.478,0,0,0,1.436-.49C26.4,21.449,26.306,20.462,26.306,20.462Z" transform="translate(1.381 -7.527)" fill="#bfbfbf"/>
  </g>
</svg>
