<svg xmlns="http://www.w3.org/2000/svg" width="32.327" height="32" viewBox="0 0 32.327 32">
  <g id="svgexport-6_52_" data-name="svgexport-6 (52)" transform="translate(-1)">
    <g id="main" transform="translate(1 0)">
      <path id="Path_18937" data-name="Path 18937" d="M2.59,16h7.42a1.59,1.59,0,0,1,1.59,1.59v5.83a1.59,1.59,0,0,1-1.59,1.59H2.59A1.59,1.59,0,0,1,1,23.42v-5.83A1.59,1.59,0,0,1,2.59,16Z" transform="translate(-1 -8.526)" fill="#bfbfbf"/>
      <circle id="Ellipse_485" data-name="Ellipse 485" cx="2.65" cy="2.65" r="2.65" transform="translate(14.31)" fill="#bfbfbf"/>
      <path id="Path_18938" data-name="Path 18938" d="M12,35.382a3.135,3.135,0,0,0,.9,2.2h8.616v-2.2a.528.528,0,0,0-.528-.528H12.53A.53.53,0,0,0,12,35.382Z" transform="translate(-6.172 -17.341)" fill="#bfbfbf"/>
      <path id="Path_18939" data-name="Path 18939" d="M37.851,33.315a4.309,4.309,0,0,0-4.41-3.176,3.73,3.73,0,0,0,.127-.949,3.14,3.14,0,0,0-1.406-2.557c-1.138-.755-1.989-2.675-2.118-4.694H31.06a1.585,1.585,0,0,0,1.585-1.58V19.306a1.584,1.584,0,0,0-1.585-1.58H27.435c-3.064-.882-3.986-1.9-4.537-2.508l-.033-.037A1.964,1.964,0,0,0,21.8,13.16a1.929,1.929,0,0,0-2.714,1.323L17.56,21.749a1.581,1.581,0,0,0,1.377,1.893l2.605.288a.527.527,0,0,1,.47.552L21.6,31.428a2.8,2.8,0,0,1-.783-3.071h-8.1c-.854,1.415-2.222,4.069-1.669,5.8a2.14,2.14,0,0,0,1.382,1.389,1.975,1.975,0,0,0,.736.08,3.4,3.4,0,0,0,6.773,0h9.083a.669.669,0,0,0,.464-.224,3.708,3.708,0,0,0,.311.9.528.528,0,0,0,.909.074c.062-.089.129-.175.2-.26a3.392,3.392,0,1,0,6.616-1.44.522.522,0,0,0,.463-.57,4.114,4.114,0,0,0-.137-.788Zm-21.3,4.408a2.335,2.335,0,0,1-2.324-2.1H18.88A2.335,2.335,0,0,1,16.556,37.723ZM26.83,31.934H24.772l.91-8.606a1.58,1.58,0,0,0-1.021-1.645l-2.6-.969a.526.526,0,0,1-.33-.609l.4-1.7a9.05,9.05,0,0,0,4.7,1.925Zm7.73,5.945A2.338,2.338,0,0,1,31.931,35.3l.161-.2a5.873,5.873,0,0,1,4.068-.8l.125.1A2.332,2.332,0,0,1,34.56,37.88Z" transform="translate(-5.664 -6.989)" fill="#bfbfbf"/>
    </g>
  </g>
</svg>
