<svg xmlns="http://www.w3.org/2000/svg" width="16" height="16.889" viewBox="0 0 16 16.889">
  <path id="Union_5" data-name="Union 5" d="M7.714,16.889A7.86,7.86,0,0,1,0,9.185H16a7.86,7.86,0,0,1-7.714,7.7ZM5.427,15.7H6v-.593H5.427ZM1.466,12.3a7.874,7.874,0,0,0,3.265,3.076l.249-.533a7.3,7.3,0,0,1-3.025-2.85ZM4.757,8.594c.122-.132.241-.266.349-.409A6.221,6.221,0,0,0,6.3,5.07l-.564-.065A5.647,5.647,0,0,1,4.661,7.817c-.016.02-.035.039-.051.059A5.243,5.243,0,0,0,4.445,4.1a1.239,1.239,0,0,1,.624-.494A2.372,2.372,0,0,1,7.576,5.19a2.245,2.245,0,0,1,.127.522h0A2.369,2.369,0,0,0,6.09,8.582l-.023.012Zm8.055-.3c.066-.361.139-.722.223-1.077.157-.663.349-1.328.57-1.974l-.547-.183c-.227.663-.423,1.345-.585,2.026-.094.4-.176.8-.248,1.208H10.37a2.131,2.131,0,0,0,.054-.872c.5.136,1.022.274,1.377-.064s.217-.817.09-1.278a1.843,1.843,0,0,1-.033-1.368,1.786,1.786,0,0,1,1.03-.8,1.142,1.142,0,0,1,.881.062c.582.324.58,1.357.438,1.973a1.5,1.5,0,0,1-.343.607c-.158.2-.355.439-.211.727s.439.3.7.317a2.129,2.129,0,0,1,.606.109,1.662,1.662,0,0,1,.741.59Zm-6.2,0a1.5,1.5,0,0,1-.094-.524,1.546,1.546,0,0,1,.009-.157l.45.145.172-.5-.475-.153a1.629,1.629,0,0,1,1.206-.886v.5h.544v-.5A1.615,1.615,0,0,1,9.72,7.34l-.566.182.172.5.453-.145a1.483,1.483,0,0,1-.089.421Zm1.266-.524h.544V7.247H7.879ZM3.036,8.3A23.438,23.438,0,0,1,1.148,5.791C.307,4.5-.125,3.812.032,3.419a1.242,1.242,0,0,1,.784-.6,2.859,2.859,0,0,1,2.222.159c1.418.81,1.742,3.145,1.075,4.611-.023.051-.051.1-.078.147-.057-.239-.122-.476-.2-.706A8.541,8.541,0,0,0,1.383,3.387l-.4.435A7.965,7.965,0,0,1,3.274,7.216,7.47,7.47,0,0,1,3.548,8.3ZM.014,8.3a.794.794,0,0,1,.042-.439.872.872,0,0,1,.427-.422A4.254,4.254,0,0,1,1.2,7.111q.421.61.875,1.185ZM8.889,3.852V3.259a2.37,2.37,0,0,1,2.37-2.37h1.185v.593a2.37,2.37,0,0,1-2.37,2.37ZM6.222,1.482a.593.593,0,1,1,.593.593A.593.593,0,0,1,6.222,1.482ZM2.37.593a.593.593,0,1,1,.593.593A.593.593,0,0,1,2.37.593Z" transform="translate(0)" fill="#c6c6c9"/>
</svg>
