<svg id="svgexport-6_22_" data-name="svgexport-6 (22)" xmlns="http://www.w3.org/2000/svg" width="30.165" height="30.165" viewBox="0 0 30.165 30.165">
  <g id="Group_4359" data-name="Group 4359">
    <g id="Group_4358" data-name="Group 4358">
      <path id="Path_8105" data-name="Path 8105" d="M42.664,29.813a12.836,12.836,0,0,0-5.121,24.608l.167-3.241c0-2.578-1.906-1.752-1.906-3.556,0-1.011.032-3.117.032-4.7a23.534,23.534,0,0,1,2.229-9.2c.442-.909,1.482-1.9,1.494-.946,0,1.384.059,17.482.059,17.482h0l.2,4.9a12.778,12.778,0,0,0,2.852.33,12.916,12.916,0,0,0,1.585-.108l.425-8.229a4.121,4.121,0,0,1-2.5-1.734c-.695-1.041.534-10.241.534-10.241h.8v8.635H44.3V35.177h.867v8.635h.791V35.177h.9v8.635h.793V35.177h.613s1.227,9.2.533,10.241a4.139,4.139,0,0,1-2.475,1.73.338.338,0,0,0-.035.013l.4,7.676a12.835,12.835,0,0,0-4.022-25.025Z" transform="translate(-27.581 -27.569)" fill="#bfbfbf"/>
      <path id="Path_8106" data-name="Path 8106" d="M15.083,0A15.082,15.082,0,1,0,30.165,15.082,15.1,15.1,0,0,0,15.083,0Zm0,29.04A13.958,13.958,0,1,1,29.042,15.082,13.974,13.974,0,0,1,15.083,29.04Z" transform="translate(0 0)" fill="#bfbfbf"/>
    </g>
  </g>
</svg>
