<svg xmlns="http://www.w3.org/2000/svg" width="16.35" height="12.337" viewBox="0 0 16.35 12.337">
  <g id="Group_4495" data-name="Group 4495" transform="translate(0 0)">
    <g id="Group_4494" data-name="Group 4494" transform="translate(0 0)">
      <path id="Icon_ionic-ios-arrow-forward" data-name="Icon ionic-ios-arrow-forward" d="M4.176,5.23.219,9.184a.744.744,0,0,0,0,1.055.754.754,0,0,0,1.058,0l4.483-4.48a.746.746,0,0,0,.022-1.03L1.281.218A.747.747,0,0,0,.223,1.273Z" transform="translate(13.403 0) rotate(90)" fill="#fff"/>
      <path id="Icon_ionic-ios-arrow-forward-2" data-name="Icon ionic-ios-arrow-forward" d="M6.53,8.178.343,14.36a1.163,1.163,0,0,0,0,1.65A1.178,1.178,0,0,0,2,16.01l7.01-7a1.166,1.166,0,0,0,.034-1.611L2,.341A1.169,1.169,0,1,0,.348,1.991Z" transform="translate(16.35 2.989) rotate(90)" fill="#fff"/>
    </g>
  </g>
</svg>
