<svg id="Icon_ionic-ios-menu" data-name="Icon ionic-ios-menu" xmlns="http://www.w3.org/2000/svg" width="9.803" height="9.803" viewBox="0 0 9.803 9.803">
  <path id="Path_8078" data-name="Path 8078" d="M11.816,1.353H.514A.614.614,0,0,1,0,.677H0A.614.614,0,0,1,.514,0h11.3a.614.614,0,0,1,.514.677h0A.614.614,0,0,1,11.816,1.353Z" transform="translate(0.957 0) rotate(45)" fill="#fff"/>
  <path id="Path_8080" data-name="Path 8080" d="M11.989,1.353H.521A.616.616,0,0,1,0,.677H0A.616.616,0,0,1,.521,0H11.989a.616.616,0,0,1,.521.677h0A.616.616,0,0,1,11.989,1.353Z" transform="translate(0 8.846) rotate(-45)" fill="#fff"/>
</svg>
